<?xml version="1.0" standalone="no"?>
<!DOCTYPE svg PUBLIC "-//W3C//DTD SVG 1.1//EN" "http://www.w3.org/Graphics/SVG/1.1/DTD/svg11.dtd" >
<svg xmlns="http://www.w3.org/2000/svg" xmlns:xlink="http://www.w3.org/1999/xlink" version="1.1">
<metadata>
Created by FontForge 20170731 at Wed Jul 15 03:30:50 2020
 By Aleksey,,,
Copyright 2020 The Catamaran Project Authors (https://github.com/VanillaandCream/Catamaran-Tamil)
</metadata>
<defs>
<font id="Catamaran-ExtraLight" horiz-adv-x="507" >
  <font-face 
    font-family="Catamaran ExtraLight"
    font-weight="250"
    font-stretch="normal"
    units-per-em="1000"
    panose-1="0 0 0 0 0 0 0 0 0 0"
    ascent="800"
    descent="-200"
    x-height="485"
    cap-height="680"
    bbox="-534 -377 2493 1100"
    underline-thickness="50"
    underline-position="-200"
    unicode-range="U+000D-FB02"
  />
<missing-glyph horiz-adv-x="636" 
d="M97 696v-696h441v696h-441zM482 651v-607h-329v607h329z" />
    <glyph glyph-name=".notdef" horiz-adv-x="636" 
d="M97 696v-696h441v696h-441zM482 651v-607h-329v607h329z" />
    <glyph glyph-name="uni0000" horiz-adv-x="0" 
 />
    <glyph glyph-name="uni0000" horiz-adv-x="0" 
 />
    <glyph glyph-name="nonmarkingreturn" horiz-adv-x="333" 
 />
    <glyph glyph-name="CR" unicode="&#xd;" horiz-adv-x="0" 
 />
    <glyph glyph-name="space" unicode=" " horiz-adv-x="238" 
 />
    <glyph glyph-name="exclam" unicode="!" horiz-adv-x="146" 
d="M56 200l43 -21l13 523h-64zM73 84q-18 0 -30.5 -12t-12.5 -29q0 -18 12.5 -30.5t30.5 -12.5t30.5 12.5t12.5 30.5q0 17 -12.5 29t-30.5 12z" />
    <glyph glyph-name="quotedbl" unicode="&#x22;" horiz-adv-x="289" 
d="M217 702q-13 0 -22.5 -6t-15 -16t-5.5 -21q0 -14 10.5 -28t28.5 -15q-1 -26 -17.5 -45.5t-41.5 -34.5l17 -27q27 13 46.5 35.5t30.5 50.5t11 58q0 20 -12 34.5t-30 14.5zM83 702q-13 0 -22.5 -6t-15 -16t-5.5 -21q0 -9 4.5 -18.5t13.5 -16.5t21 -8q-2 -26 -18 -45.5
t-41 -34.5l17 -27q27 13 46.5 35.5t31 50.5t11.5 58q0 20 -12.5 34.5t-30.5 14.5z" />
    <glyph glyph-name="numbersign" unicode="#" horiz-adv-x="497" 
d="M378 502l-32 -131h-134l32 131h-48l-33 -131h-133l8 -44h114l-35 -143h-87l8 -44h68l-33 -135l48 -5l34 140h134l-33 -135l47 -5l34 140h130l-7 44h-112l35 143h84l-7 44h-66l33 131h-49zM335 327l-36 -143h-133l35 143h134z" />
    <glyph glyph-name="dollar" unicode="$" horiz-adv-x="522" 
d="M187 -111v102q-25 4 -51 9.5t-47.5 13.5t-33.5 15l15 43q18 -8 44 -17.5t57.5 -15.5t64.5 -6q58 0 97 17.5t59.5 46.5t20.5 63q0 38 -20 66.5t-61 53t-101 49.5q-45 18 -79 39.5t-57 46.5t-35 54.5t-12 63.5q0 56 37 98t102 57v99l43 10v-103q6 1 13 1.5t13 0.5
q11 0 21 -0.5t20 -2.5v97l44 10v-114q24 -5 45.5 -13t37.5 -16l-22 -41q-17 8 -37.5 16t-46 13t-60.5 5q-72 0 -114 -34t-42 -86q0 -38 21 -67t62.5 -54t100.5 -52q45 -20 79.5 -40.5t57 -43.5t34 -51t11.5 -64q0 -55 -32.5 -96t-94.5 -61v-112h-44v103q-14 -2 -29 -3.5
t-31 -1.5h-7v-98h-43z" />
    <glyph glyph-name="percent" unicode="%" horiz-adv-x="823" 
d="M534 710l-308 -710l52 -4l309 710zM192 702q-43 0 -78 -21t-55.5 -59t-20.5 -90q0 -54 19.5 -91.5t54.5 -57.5t81 -20q42 0 76.5 20.5t55 58.5t20.5 90q0 54 -19 92t-53.5 58t-80.5 20zM192 659q41 0 70 -32t29 -95q0 -43 -14.5 -71t-37 -41.5t-46.5 -13.5
q-40 0 -70.5 32t-30.5 94q0 44 15 72t37.5 41.5t47.5 13.5zM632 338q-43 0 -78 -21t-55.5 -59t-20.5 -90q0 -54 19.5 -92t54.5 -57.5t80 -19.5q43 0 77.5 20.5t55 58.5t20.5 90q0 54 -19 92t-53.5 58t-80.5 20zM632 294q41 0 70 -31.5t29 -94.5q0 -43 -14.5 -70.5t-37 -41
t-47.5 -13.5q-39 0 -69.5 31.5t-30.5 93.5q0 44 15 72t38 41t47 13z" />
    <glyph glyph-name="ampersand" unicode="&#x26;" horiz-adv-x="654" 
d="M463 116q-30 -38 -73 -60.5t-96 -22.5q-48 0 -92 19.5t-72 58.5t-28 94q0 54 21 97.5t63 70.5q10 -12 22 -24t25 -23zM590 0l27 33l-92 86q25 44 38 96.5t15 109.5l-41 14q-2 -49 -14.5 -97.5t-35.5 -88.5l-203 191q-34 33 -58.5 60.5t-37 56.5t-12.5 65q0 32 16 60.5
t45 46t66 17.5q48 0 74 -11t51 -23l21 41q-26 14 -63.5 26.5t-87.5 12.5q-53 0 -92.5 -23.5t-61 -63.5t-21.5 -88q0 -33 9 -60.5t26 -51.5q-49 -31 -79.5 -85t-30.5 -121q0 -69 32.5 -117t88 -73.5t123.5 -25.5q69 0 121 25.5t86 69.5z" />
    <glyph glyph-name="quotesingle" unicode="'" horiz-adv-x="156" 
d="M83 702q-13 0 -22.5 -6t-15 -16t-5.5 -21q0 -9 4.5 -18.5t13.5 -16.5t21 -8q-2 -26 -18 -45.5t-41 -34.5l17 -27q27 13 46.5 35.5t31 50.5t11.5 58q0 20 -12.5 34.5t-30.5 14.5z" />
    <glyph glyph-name="parenleft" unicode="(" horiz-adv-x="245" 
d="M215 -19q-22 23 -41.5 64.5t-34.5 92t-23.5 99t-8.5 84.5t8.5 83.5t23.5 96.5t34.5 90.5t41.5 65.5l-46 18q-42 -53 -68 -115.5t-38.5 -124.5t-12.5 -115t12.5 -115.5t38.5 -125t68 -116.5z" />
    <glyph glyph-name="parenright" unicode=")" horiz-adv-x="245" 
d="M30 657q21 -24 40.5 -65.5t35 -91t24 -97.5t8.5 -84t-8.5 -84t-24 -98t-35 -91.5t-40.5 -64.5l46 -18q41 54 67 116.5t39 125t13 115.5t-13 115t-39 124.5t-67 115.5z" />
    <glyph glyph-name="asterisk" unicode="*" horiz-adv-x="325" 
d="M182 774h-41l-1 -118l-118 29l-12 -35l119 -27l-83 -121l36 -21l80 115l83 -115l33 21l-82 121l119 27l-13 35l-120 -29v118z" />
    <glyph glyph-name="plus" unicode="+" horiz-adv-x="531" 
d="M491 295h-200v236l-53 3v-239h-208l8 -43h200v-244l53 -4v248h210z" />
    <glyph glyph-name="comma" unicode="," horiz-adv-x="156" 
d="M83 84q-12 0 -22 -6t-15.5 -15.5t-5.5 -20.5q0 -9 4.5 -18.5t13.5 -16.5t21 -7q-1 -27 -17.5 -46.5t-41.5 -34.5l17 -27q27 14 46.5 36t31 50t11.5 59q0 19 -12.5 33t-30.5 14z" />
    <glyph glyph-name="hyphen" unicode="-" horiz-adv-x="313" 
d="M275 295h-245l8 -44h245z" />
    <glyph glyph-name="period" unicode="." horiz-adv-x="145" 
d="M73 0q17 0 29.5 12.5t12.5 30.5q0 17 -12.5 29t-29.5 12q-19 0 -31 -12t-12 -30q0 -17 12 -29.5t31 -12.5z" />
    <glyph glyph-name="slash" unicode="/" horiz-adv-x="380" 
d="M318 710l-308 -710l51 -4l309 710z" />
    <glyph glyph-name="zero" unicode="0" horiz-adv-x="578" 
d="M38 288q0 -87 32 -155t89.5 -107t130.5 -39t129.5 39t89 107.5t32.5 155.5q0 84 -32.5 149.5t-89 103t-129.5 37.5t-130.5 -37.5t-89.5 -103t-32 -150.5zM95 291q0 70 25 124.5t69.5 85.5t100.5 31t99.5 -31.5t68.5 -87t25 -127.5q0 -73 -25 -130t-68.5 -89.5
t-99.5 -32.5t-100.5 33t-69.5 91.5t-25 132.5z" />
    <glyph glyph-name="one" unicode="1" horiz-adv-x="300" 
d="M222 0v566h-38l-174 -81l22 -43l134 57v-499h56z" />
    <glyph glyph-name="two" unicode="2" horiz-adv-x="473" 
d="M219 579q-64 0 -108.5 -17.5t-72.5 -34.5l22 -42q18 10 40.5 21.5t51.5 19t65 7.5q65 0 106 -32t41 -85q0 -32 -11.5 -58.5t-37.5 -55t-71 -66.5l-219 -186v-50h428l-8 44h-356l184 151q49 41 82 77.5t50 72.5t17 73q0 47 -25.5 83t-71 57t-106.5 21z" />
    <glyph glyph-name="three" unicode="3" horiz-adv-x="451" 
d="M205 579q-60 0 -107.5 -17t-86.5 -42l31 -36q24 16 65 32.5t95 16.5q42 0 73 -16.5t47.5 -43.5t16.5 -57q0 -57 -47.5 -93t-131.5 -36h-34l10 -41h18q104 0 150.5 -39t46.5 -103q0 -40 -23 -70.5t-59 -47t-76 -16.5q-55 0 -90 12t-70 33l-33 -39q34 -19 84 -35.5
t106 -16.5q67 0 116 24t75.5 65.5t26.5 92.5q0 41 -16 74.5t-44 56.5t-66 31q32 10 57.5 31.5t41 51.5t15.5 66q0 42 -21 79t-63.5 60t-106.5 23z" />
    <glyph glyph-name="four" unicode="4" horiz-adv-x="512" 
d="M492 119h-111v452h-34l-337 -446l9 -51h307v-143h55v143h103zM326 464v-345h-258z" />
    <glyph glyph-name="five" unicode="5" horiz-adv-x="491" 
d="M123 230q18 18 52 36t74 18q65 0 105 -41t40 -113t-44.5 -116t-123.5 -44q-50 0 -87.5 12t-72.5 33l-28 -40q24 -12 52.5 -24t62 -19.5t69.5 -7.5q76 0 127 28.5t77.5 75.5t26.5 102q0 54 -21.5 99.5t-67 73t-119.5 27.5q-27 0 -57.5 -10.5t-56.5 -28.5l10 230h268l5 45
h-325l-15 -336h49z" />
    <glyph glyph-name="six" unicode="6" horiz-adv-x="497" 
d="M67 285l17 -41q15 24 41 46.5t60 37t70 14.5q47 0 80 -20.5t50.5 -56t17.5 -80.5q0 -38 -17.5 -72.5t-50.5 -56.5t-81 -22q-53 0 -89.5 27t-54.5 79.5t-18 129.5q0 58 18.5 106.5t50.5 87.5t71.5 66.5t81.5 42.5t81 17l-18 44q-48 -6 -96.5 -25t-92 -50.5t-77.5 -75.5
t-53.5 -99.5t-19.5 -123.5q0 -88 28 -149t77.5 -92.5t112.5 -31.5q59 0 105 28t72 74.5t26 100.5q0 51 -23.5 96t-68.5 73t-112 28q-49 0 -86 -18t-62 -41.5t-40 -42.5z" />
    <glyph glyph-name="seven" unicode="7" horiz-adv-x="429" 
d="M174 -69l235 606l-22 29h-377l8 -45h333l-230 -570z" />
    <glyph glyph-name="eight" unicode="8" horiz-adv-x="508" 
d="M255 643q-64 0 -106 -23t-62.5 -60t-20.5 -79q0 -50 31.5 -87t77.5 -55q-38 -8 -69 -35t-49.5 -63t-18.5 -72q0 -50 24 -91.5t72.5 -66t120.5 -24.5t119.5 25.5t72 67t24.5 89.5q0 42 -19 77.5t-50 60t-67 32.5q27 12 51.5 32.5t40.5 48t16 61.5q0 41 -20.5 78
t-61.5 60.5t-106 23.5zM252 598q70 0 103 -35t33 -81q0 -26 -16 -52t-45.5 -45t-71.5 -25q-64 9 -98.5 44.5t-34.5 77.5q0 30 14 56.5t43 43t73 16.5zM255 316q79 -10 119 -52.5t40 -99.5q0 -38 -21.5 -68t-57.5 -46.5t-80 -16.5q-45 0 -81.5 17t-57.5 46.5t-21 67.5
q0 57 40 99.5t120 52.5z" />
    <glyph glyph-name="nine" unicode="9" horiz-adv-x="497" 
d="M429 280l-17 42q-14 -23 -40.5 -46t-60 -37.5t-70.5 -14.5q-46 0 -79.5 20.5t-51 56t-17.5 79.5q0 38 17.5 73t51 57t80.5 22q54 0 90 -27.5t54.5 -80t18.5 -129.5q0 -58 -19 -106.5t-50.5 -87.5t-71 -66t-82 -42.5t-81.5 -17.5l18 -44q48 6 96.5 25t92.5 50.5t78 75.5
t53.5 100t19.5 123q0 89 -28 149.5t-77.5 92t-113.5 31.5q-58 0 -104 -28t-72 -74t-26 -101q0 -50 23 -95.5t68.5 -73.5t111.5 -28q50 0 86.5 18t62 42t39.5 42z" />
    <glyph glyph-name="colon" unicode=":" horiz-adv-x="145" 
d="M72 360q18 0 30.5 12.5t12.5 30.5q0 17 -12.5 30t-30.5 13t-30 -13t-12 -30q0 -18 12 -30.5t30 -12.5zM72 41q18 0 30.5 12.5t12.5 30.5t-12.5 30.5t-30.5 12.5t-30 -12.5t-12 -30.5t12 -30.5t30 -12.5z" />
    <glyph glyph-name="semicolon" unicode=";" horiz-adv-x="156" 
d="M83 360q18 0 30.5 12.5t12.5 30.5q0 17 -12.5 30t-30.5 13t-30.5 -13t-12.5 -30q0 -18 12.5 -30.5t30.5 -12.5zM83 127q-12 0 -22 -6t-15.5 -16t-5.5 -22q0 -8 4.5 -18t13.5 -16.5t21 -7.5q-1 -26 -17.5 -46t-41.5 -35l17 -27q27 13 46.5 35.5t31 51t11.5 58.5
q0 20 -12.5 34.5t-30.5 14.5z" />
    <glyph glyph-name="less" unicode="&#x3c;" horiz-adv-x="322" 
d="M302 59l-221 186l221 186l-23 39l-249 -206v-38l249 -207z" />
    <glyph glyph-name="equal" unicode="=" horiz-adv-x="497" 
d="M460 371h-430l8 -44h429zM460 184h-430l8 -44h429z" />
    <glyph glyph-name="greater" unicode="&#x3e;" horiz-adv-x="322" 
d="M292 263l-249 207l-23 -39l221 -187l-221 -186l23 -39l249 207v37z" />
    <glyph glyph-name="question" unicode="?" horiz-adv-x="398" 
d="M186 702q-59 0 -101.5 -18.5t-74.5 -42.5l8 -47q39 28 75.5 44.5t90.5 16.5q60 0 92.5 -29t32.5 -89q0 -57 -48 -103t-126 -71l8 -205l39 -20l9 194q56 25 95.5 58.5t60.5 71.5t21 76q0 48 -19.5 85t-59.5 58t-103 21zM157 84q-18 0 -30 -12t-12 -29q0 -18 12 -30.5
t30 -12.5t30.5 12.5t12.5 30.5q0 17 -12.5 29t-30.5 12z" />
    <glyph glyph-name="at" unicode="@" horiz-adv-x="762" 
d="M532 384l-18 22h-71q-43 0 -82.5 -14t-69.5 -40t-47.5 -62t-17.5 -79q0 -64 41.5 -104.5t117.5 -40.5q25 0 51 10t44 23q14 -17 34.5 -26.5t46.5 -9.5q38 0 67.5 15t51.5 45.5t33 75.5t11 105q0 63 -22 115.5t-62.5 92t-96 61t-123.5 21.5q-91 0 -162.5 -30t-120 -83
t-74 -121.5t-25.5 -146.5q0 -72 25.5 -130t69.5 -99t100.5 -63t117.5 -22q49 0 97.5 8.5t90.5 30.5l-14 42q-20 -11 -47.5 -19t-57 -12t-58.5 -4q-74 0 -135 32.5t-97 93t-36 143.5q0 77 25 138.5t69 106t103 68t126 23.5q79 0 136.5 -32.5t88.5 -89t31 -131.5
q0 -62 -14 -104t-38 -64t-55 -22q-27 0 -44.5 16.5t-13.5 59.5zM384 107q-33 0 -56.5 14t-35 37.5t-11.5 52.5q0 48 22 83t57.5 54t77.5 19h45l-23 -177q-2 -14 -2 -29t5 -29q-13 -11 -34 -18t-45 -7z" />
    <glyph glyph-name="A" unicode="A" horiz-adv-x="581" 
d="M420 253h-265l130 355zM257 680l-247 -680h54l76 209h296l80 -215l55 11l-259 675h-55z" />
    <glyph glyph-name="B" unicode="B" horiz-adv-x="571" 
d="M277 0q53 0 99 9.5t81.5 31t55.5 57.5t20 90q0 71 -38.5 113t-100.5 61q41 20 71 55t30 86q0 68 -31.5 106.5t-86.5 54.5t-127 16h-152v-680h179zM257 635q55 0 95.5 -11.5t63 -40.5t22.5 -81q0 -48 -27 -76t-71 -39t-96 -12h-91v260h104zM295 330q82 0 131.5 -34
t49.5 -110q0 -52 -25.5 -83t-69 -44.5t-97.5 -13.5h-131v285h142z" />
    <glyph glyph-name="C" unicode="C" horiz-adv-x="553" 
d="M526 657q-19 13 -50 21t-62.5 12t-52.5 4q-73 0 -131.5 -27.5t-98.5 -76.5t-61.5 -114t-21.5 -140q0 -69 19 -132t56.5 -112t95.5 -77.5t136 -28.5q29 0 61.5 5t61.5 13.5t48 18.5l-24 42q-27 -12 -61.5 -21t-88.5 -9q-58 0 -103.5 24t-76.5 66t-47.5 96.5t-16.5 115.5
q0 92 33.5 161.5t91 108.5t128.5 39q36 0 60.5 -4t44.5 -10.5t40 -15.5z" />
    <glyph glyph-name="D" unicode="D" horiz-adv-x="663" 
d="M320 0q100 0 165 46.5t97.5 125t32.5 172.5q0 93 -29 169t-92.5 121.5t-168.5 45.5h-227v-680h222zM331 635q78 0 128.5 -39.5t75.5 -105.5t25 -147q0 -87 -30 -154.5t-83.5 -105.5t-125.5 -38h-168v590h178z" />
    <glyph glyph-name="E" unicode="E" horiz-adv-x="499" 
d="M479 0l-6 44h-320v284h245l-5 41h-240v269h303l-5 42h-353v-680h381z" />
    <glyph glyph-name="F" unicode="F" horiz-adv-x="467" 
d="M382 365h-229v273h294l-7 42h-342v-680h55v324h235z" />
    <glyph glyph-name="G" unicode="G" horiz-adv-x="620" 
d="M353 300h153v-242q-25 -9 -55.5 -16t-66.5 -7q-79 0 -141.5 37.5t-98.5 106t-36 157.5q0 71 22.5 128t62 98t90.5 63t110 22q36 0 60.5 -3.5t44.5 -10t40 -15.5l19 39q-18 13 -49.5 21t-63.5 12t-53 4q-73 0 -136 -26t-109 -74t-72 -113.5t-26 -144.5q0 -99 41 -178.5
t117 -125.5t179 -46q30 0 63 6t63.5 16.5t49.5 22.5v311h-202z" />
    <glyph glyph-name="H" unicode="H" horiz-adv-x="653" 
d="M555 0v680h-55v-314h-347v319l-55 -5v-680h55v322h347v-322h55z" />
    <glyph glyph-name="I" unicode="I" horiz-adv-x="250" 
d="M153 0v680h-55v-680h55z" />
    <glyph glyph-name="J" unicode="J" horiz-adv-x="239" 
d="M97 54q0 -40 -7.5 -61t-26.5 -33t-53 -25l24 -37q48 15 73.5 33t35 44.5t9.5 66.5v638h-55v-626z" />
    <glyph glyph-name="K" unicode="K" horiz-adv-x="586" 
d="M508 0l-271 352l-84 -89v-263h-55v680h55v-350l340 365l37 -35l-256 -269l302 -391h-68z" />
    <glyph glyph-name="L" unicode="L" horiz-adv-x="494" 
d="M479 44h-326v636h-55v-680h386z" />
    <glyph glyph-name="M" unicode="M" horiz-adv-x="740" 
d="M381 242l206 318v-560h55v680h-33l-240 -360l-243 360h-28v-680h55v555l208 -317z" />
    <glyph glyph-name="N" unicode="N" horiz-adv-x="670" 
d="M153 0v568l14 -29l372 -539h34v680h-56v-561l-34 59l-351 502h-34v-680h55z" />
    <glyph glyph-name="O" unicode="O" horiz-adv-x="713" 
d="M354 -14q-89 0 -158 45t-108.5 124.5t-39.5 181.5q0 103 40 184t110.5 127.5t161.5 47.5q88 0 157.5 -45t109 -124.5t39.5 -181.5q0 -103 -40.5 -184t-110.5 -127.5t-161 -47.5zM352 33q74 0 131 40.5t89.5 110.5t32.5 160q0 88 -31.5 156.5t-86.5 108t-126 39.5
q-73 0 -130.5 -40.5t-90 -110t-32.5 -159.5q0 -88 31.5 -157t86.5 -108.5t126 -39.5z" />
    <glyph glyph-name="P" unicode="P" horiz-adv-x="549" 
d="M153 0v264h103q53 0 99 12.5t81.5 38t55.5 65.5t20 95q0 74 -32 119t-87 65.5t-126 20.5h-169v-680h55zM274 634q55 0 95.5 -15.5t63.5 -50.5t23 -94q0 -56 -26 -93t-69.5 -54.5t-97.5 -17.5h-110v325h121z" />
    <glyph glyph-name="Q" unicode="Q" horiz-adv-x="713" 
d="M427 214l-39 -33l213 -200l34 28zM360 696q-91 -1 -161.5 -47.5t-110.5 -127.5t-40 -184q0 -102 39.5 -181.5t108.5 -124.5t158 -45q91 1 161 47.5t110.5 127.5t40.5 184q0 102 -39.5 181.5t-109 124.5t-157.5 45zM108 338q0 90 32.5 159.5t90 110t130.5 40.5
q71 0 126 -39.5t86.5 -108t31.5 -156.5q0 -90 -32.5 -160t-89.5 -110.5t-131 -40.5q-71 0 -126 39.5t-86.5 108.5t-31.5 157z" />
    <glyph glyph-name="R" unicode="R" horiz-adv-x="576" 
d="M269 634q52 0 94 -13.5t67.5 -46t25.5 -90.5q0 -56 -29 -90t-73.5 -48.5t-95.5 -14.5h-105v303h116zM98 680v-680h55v286h103q21 0 43 2t42 6l163 -294h62l-177 309q54 21 88 64t35 113q0 72 -32 114.5t-87 61t-126 18.5h-169z" />
    <glyph glyph-name="S" unicode="S" horiz-adv-x="506" 
d="M55 29q13 -8 34.5 -15.5t48 -13.5t52.5 -9.5t47 -3.5q74 0 125.5 22t78.5 60.5t27 88.5q0 36 -11.5 64t-34 51t-57 43.5t-79.5 40.5q-59 27 -100.5 52t-62.5 54t-21 67q0 52 42 86t114 34q35 0 60.5 -5t46 -13t37.5 -16l22 41q-30 15 -74 27t-94 12q-64 0 -110.5 -21.5
t-72 -58.5t-25.5 -83q0 -34 12 -63.5t35 -54.5t57 -46.5t79 -39.5q60 -25 101 -49.5t61 -53t20 -66.5q0 -34 -20.5 -63t-59.5 -46.5t-97 -17.5q-33 0 -64.5 6t-57.5 15.5t-44 17.5z" />
    <glyph glyph-name="T" unicode="T" horiz-adv-x="543" 
d="M528 680h-518v-44h233v-636h56v636h234z" />
    <glyph glyph-name="U" unicode="U" horiz-adv-x="665" 
d="M143 680h-55v-441q0 -72 29 -129t84 -89.5t131 -32.5q78 0 132.5 32.5t83.5 89.5t29 129v441h-55v-438q0 -58 -22.5 -105t-65 -74.5t-102.5 -27.5q-57 0 -99.5 27.5t-66 74.5t-23.5 105v438z" />
    <glyph glyph-name="V" unicode="V" horiz-adv-x="581" 
d="M65 685l-55 -11l259 -675h55l247 680h-53l-222 -607z" />
    <glyph glyph-name="W" unicode="W" horiz-adv-x="816" 
d="M806 679l-177 -680h-55l-165 588l-149 -588h-55l-195 675l55 11l166 -603l152 597h54l164 -597l152 597h53z" />
    <glyph glyph-name="X" unicode="X" horiz-adv-x="546" 
d="M73 0l201 305l192 -305h64l-215 334l221 346h-60l-191 -302l-199 314l-50 -24l209 -321l-235 -347h63z" />
    <glyph glyph-name="Y" unicode="Y" horiz-adv-x="537" 
d="M290 0v278l237 402h-61l-204 -352l-200 364l-52 -26l225 -394v-272h55z" />
    <glyph glyph-name="Z" unicode="Z" horiz-adv-x="548" 
d="M506 44h-420l435 587l-5 49h-467l10 -44h406l-437 -586l6 -50h477z" />
    <glyph glyph-name="bracketleft" unicode="[" horiz-adv-x="269" 
d="M100 -88h159l-8 41h-98v701h98l8 42h-159v-784z" />
    <glyph glyph-name="backslash" unicode="\" horiz-adv-x="380" 
d="M370 0l-308 710l-52 -4l308 -710z" />
    <glyph glyph-name="bracketright" unicode="]" horiz-adv-x="268" 
d="M168 696h-158l8 -42h98v-701h-98l-8 -41h158v784z" />
    <glyph glyph-name="asciicircum" unicode="^" horiz-adv-x="414" 
d="M205 346l140 -203h54l-169 247h-51l-169 -247h54z" />
    <glyph glyph-name="underscore" unicode="_" horiz-adv-x="434" 
d="M396 44h-366l8 -44h366z" />
    <glyph glyph-name="grave" unicode="`" horiz-adv-x="141" 
d="M95 589l36 12l-55 141h-66z" />
    <glyph glyph-name="a" unicode="a" horiz-adv-x="479" 
d="M108 136q0 44 29 75t89 31h134v-129q-24 -33 -60.5 -56.5t-83.5 -23.5q-36 0 -60 14.5t-36 38.5t-12 50zM105 418q28 13 58 23.5t81 10.5q59 0 87.5 -33t28.5 -83v-55h-135q-76 0 -124.5 -38t-48.5 -107q0 -63 40.5 -106t122.5 -43q45 0 84.5 19.5t63.5 45.5l8 -52h44
v340q0 48 -20.5 83.5t-59 55t-94.5 19.5q-20 0 -49.5 -5.5t-58 -14.5t-47.5 -22z" />
    <glyph glyph-name="b" unicode="b" horiz-adv-x="516" 
d="M112 0l21 63v643l-55 -10v-696h34zM124 381q26 30 58.5 50.5t81.5 20.5q55 0 89.5 -28t51 -76t16.5 -108q0 -56 -18 -103.5t-53.5 -75.5t-89.5 -28q-48 0 -81 20.5t-58 43.5l-20 -36q17 -16 41.5 -33t54 -29t61.5 -12q72 0 121 33t74 91t25 130q0 76 -24 133.5
t-71.5 90.5t-119.5 33q-32 0 -60.5 -9.5t-53.5 -27t-45 -41.5z" />
    <glyph glyph-name="c" unicode="c" horiz-adv-x="450" 
d="M391 67q-26 -13 -53 -23.5t-78 -10.5q-54 0 -91 28.5t-56 77t-19 107.5q1 57 21 103.5t58.5 74.5t91.5 28q49 0 77.5 -11t53.5 -23l20 38q-19 13 -46.5 22t-55 14.5t-47.5 5.5q-71 0 -122.5 -33t-79 -90t-27.5 -130q0 -75 26 -133.5t75.5 -91.5t120.5 -33q21 0 48.5 5
t55 14.5t47.5 21.5z" />
    <glyph glyph-name="d" unicode="d" horiz-adv-x="514" 
d="M381 62l22 -62h33v705l-55 -9v-634zM391 104q-26 -30 -58 -50.5t-81 -20.5q-54 0 -89 28t-52 76.5t-17 107.5q1 57 18.5 104t53.5 75t89 28q49 0 81.5 -20.5t57.5 -43.5l20 36q-15 17 -39.5 33.5t-54.5 28.5t-62 12q-71 0 -120.5 -33t-74.5 -90.5t-25 -130.5
q0 -75 23.5 -133t71.5 -91t119 -33q32 0 61 9.5t53.5 27.5t44.5 41z" />
    <glyph glyph-name="e" unicode="e" horiz-adv-x="486" 
d="M448 241v6q0 72 -23 129t-66 89.5t-106 32.5q-71 0 -119 -33t-72 -90t-24 -130q0 -75 25.5 -133.5t78 -91.5t133.5 -33q28 0 57 5.5t56.5 15t48.5 21.5l-20 41q-31 -16 -65.5 -27t-82.5 -11q-62 0 -100.5 28t-56 75.5t-18.5 105.5h354zM96 280q5 48 22.5 87t49.5 62
t80 23t78 -23t45.5 -62t19.5 -87h-295z" />
    <glyph glyph-name="f" unicode="f" horiz-adv-x="269" 
d="M19 431h73v-431h55v431h109l-21 41h-88v100q0 36 15.5 59t53.5 23q10 0 22.5 -3t18.5 -6l12 44q-6 3 -16.5 6t-23 5t-26.5 2q-36 0 -61 -17t-37.5 -48.5t-12.5 -73.5v-91h-73v-41z" />
    <glyph glyph-name="g" unicode="g" horiz-adv-x="510" 
d="M436 485h-33l-22 -65v-487q0 -60 -42 -88.5t-103 -28.5q-49 1 -81.5 11t-62.5 24l-19 -40q14 -9 36 -16.5t46 -13t46 -8.5t37 -3q64 0 108 22t67 60t23 86v547zM391 104q-26 -30 -58 -50.5t-81 -20.5q-54 0 -89 28t-52 76.5t-17 107.5q1 57 18.5 104t53.5 75t89 28
q49 0 81.5 -20.5t57.5 -43.5l20 36q-15 17 -39.5 33.5t-54.5 28.5t-62 12q-71 0 -120.5 -33t-74.5 -90.5t-25 -130.5q0 -75 23.5 -133t71.5 -91t119 -33q32 0 61 9.5t53.5 27.5t44.5 41z" />
    <glyph glyph-name="h" unicode="h" horiz-adv-x="517" 
d="M133 353q25 29 55 51t60.5 34.5t57.5 12.5q54 0 73.5 -35t19.5 -85v-331h55v337q0 47 -15 83t-47.5 57t-84.5 21q-30 0 -62.5 -12t-62 -32t-50.5 -44zM133 0v706l-55 -10v-696h55z" />
    <glyph glyph-name="i" unicode="i" horiz-adv-x="191" 
d="M123 0v485h-55v-485h55zM95 596q18 0 30.5 12t12.5 30t-13 30t-30 12q-19 0 -30.5 -12t-11.5 -30t11.5 -30t30.5 -12z" />
    <glyph glyph-name="j" unicode="j" horiz-adv-x="210" 
d="M103 596q-12 0 -21.5 5.5t-15 15.5t-5.5 21q0 18 11.5 30t30.5 12q18 0 30.5 -12t12.5 -30t-12.5 -30t-30.5 -12zM132 485v-547q0 -42 -8 -71.5t-31.5 -49.5t-71.5 -36l-21 39q34 13 50 28t21.5 38.5t4.5 62.5v536h56z" />
    <glyph glyph-name="k" unicode="k" horiz-adv-x="453" 
d="M133 0v199l73 74l180 -273h67l-211 309l154 155l-38 34l-225 -233v441l-55 -10v-696h55z" />
    <glyph glyph-name="l" unicode="l" horiz-adv-x="210" 
d="M133 0v706l-55 -10v-696h55z" />
    <glyph glyph-name="m" unicode="m" horiz-adv-x="784" 
d="M123 0v353q25 29 54 51t58.5 34.5t53.5 12.5q34 0 51.5 -16t24 -43t6.5 -61v-331h55v337q0 47 -13 83t-43 57t-80 21q-26 0 -57.5 -12t-60.5 -32t-50 -44l-10 75h-44v-485h55zM417 353q26 29 55 51t58 34.5t53 12.5q34 0 52 -16t24.5 -43t6.5 -61v-331h55v337
q0 47 -13.5 83t-43.5 57t-80 21q-26 0 -57.5 -12t-60.5 -32t-50 -44z" />
    <glyph glyph-name="n" unicode="n" 
d="M123 0v353q25 29 55 51t60.5 34.5t57.5 12.5q54 0 73.5 -35t19.5 -85v-331h55v337q0 47 -15 83t-47.5 57t-84.5 21q-30 0 -62.5 -12t-62 -32t-50.5 -44l-10 75h-44v-485h55z" />
    <glyph glyph-name="o" unicode="o" horiz-adv-x="525" 
d="M259 -13q-72 0 -121 33.5t-74.5 91.5t-25.5 133q0 72 27.5 129t78.5 90.5t122 33.5q72 0 121 -32.5t74.5 -90t25.5 -135.5q0 -72 -27.5 -129t-78.5 -90t-122 -34zM260 33q54 0 92 28t58.5 75t20.5 103q0 60 -19 108t-55.5 76.5t-91.5 28.5q-53 0 -91.5 -28t-58.5 -74.5
t-21 -103.5q0 -59 19 -107.5t56 -77t91 -28.5z" />
    <glyph glyph-name="p" unicode="p" horiz-adv-x="512" 
d="M129 -208v626l-21 67h-34v-704zM120 381q26 30 58.5 50.5t81.5 20.5q55 0 89.5 -28t51 -76t16.5 -108q0 -56 -18 -103.5t-53.5 -75.5t-89.5 -28q-48 0 -81 20.5t-58 43.5l-20 -36q17 -16 41.5 -33t54 -29t61.5 -12q72 0 121 33t74 91t25 130q0 76 -24 133.5t-71.5 90.5
t-119.5 33q-32 0 -60.5 -9.5t-53.5 -27t-45 -41.5z" />
    <glyph glyph-name="q" unicode="q" horiz-adv-x="510" 
d="M403 485l-22 -62v-642l55 11v693h-33zM391 104q-26 -30 -58 -50.5t-81 -20.5q-54 0 -89 28t-52 76.5t-17 107.5q1 57 18.5 104t53.5 75t89 28q49 0 81.5 -20.5t57.5 -43.5l20 36q-15 17 -39.5 33.5t-54.5 28.5t-62 12q-71 0 -120.5 -33t-74.5 -90.5t-25 -130.5
q0 -75 23.5 -133t71.5 -91t119 -33q32 0 61 9.5t53.5 27.5t44.5 41z" />
    <glyph glyph-name="r" unicode="r" horiz-adv-x="306" 
d="M123 0v352q19 21 47.5 41.5t62 34.5t63.5 14l-17 43q-25 0 -55.5 -13t-58 -31t-45.5 -33l-18 77h-34v-485h55z" />
    <glyph glyph-name="s" unicode="s" horiz-adv-x="412" 
d="M42 25q19 -12 45.5 -20.5t54.5 -13t48 -4.5q93 0 138.5 36t45.5 100q0 37 -22 64t-57 47.5t-75 35.5q-50 18 -86.5 41t-36.5 57q0 35 31.5 60t82.5 25q45 0 75.5 -12t50.5 -22l20 39q-16 12 -41.5 21t-52 14t-47.5 5q-82 0 -127 -37t-45 -97q0 -34 21.5 -60.5t55.5 -45
t71 -32.5q36 -13 65.5 -28.5t47 -35t17.5 -43.5q0 -27 -16 -46.5t-45 -30t-69 -10.5q-25 0 -48.5 5.5t-44.5 14t-39 16.5z" />
    <glyph glyph-name="t" unicode="t" horiz-adv-x="295" 
d="M234 472h-88v151l-55 -22v-129h-72v-41h72v-315q0 -42 13.5 -70.5t38.5 -43.5t58 -15q13 0 25.5 2t23 5l17.5 5l-12 44q-5 -2 -17.5 -5.5t-23.5 -3.5q-37 0 -52.5 26.5t-15.5 62.5v308h109z" />
    <glyph glyph-name="u" unicode="u" 
d="M385 485v-353q-26 -28 -56 -50.5t-60.5 -35t-57.5 -12.5q-54 0 -73 35t-19 85v331h-55v-337q0 -46 14.5 -82.5t47 -57.5t84.5 -21q30 0 63 12t63 32.5t50 44.5l10 -76h44v485h-55z" />
    <glyph glyph-name="v" unicode="v" horiz-adv-x="434" 
d="M245 0l179 485h-55l-152 -418l-158 428l-49 -22l179 -473h56z" />
    <glyph glyph-name="w" unicode="w" horiz-adv-x="642" 
d="M492 0l140 485h-55l-113 -412l-121 412h-50l-117 -412l-117 421l-49 -22l139 -472h56l110 402l120 -402h57z" />
    <glyph glyph-name="x" unicode="x" horiz-adv-x="416" 
d="M72 0l129 203l131 -203h61l-150 232l163 253h-60l-132 -212l-137 221l-49 -22l144 -228l-162 -244h62z" />
    <glyph glyph-name="y" unicode="y" horiz-adv-x="434" 
d="M161 -98q-8 -22 -21 -37t-32 -25t-44 -20l10 -39q32 7 58.5 21.5t45.5 36.5t29 49l217 597h-55l-152 -417l-160 426l-47 -22l183 -475z" />
    <glyph glyph-name="z" unicode="z" horiz-adv-x="432" 
d="M403 485h-348l16 -43h270l-315 -411l8 -31h366l-10 42h-302l318 411z" />
    <glyph glyph-name="braceleft" unicode="{" horiz-adv-x="265" 
d="M131 309q29 11 46.5 38.5t17.5 71.5q0 13 -4.5 30.5t-14.5 39.5t-14.5 40t-4.5 31q0 21 17.5 39t54.5 18h19l7 42h-26q-63 0 -93.5 -28.5t-30.5 -76.5q0 -16 4.5 -34t13.5 -38t13.5 -38t4.5 -34q0 -37 -24 -60t-54 -23h-33v-39h33q30 0 54 -22.5t24 -60.5
q0 -16 -4.5 -33.5t-13.5 -37.5t-13.5 -38t-4.5 -34q0 -48 30.5 -77t93.5 -29h26l-7 42h-19q-37 0 -54.5 18t-17.5 40q0 13 4.5 30.5t14.5 39.5t14.5 39.5t4.5 31.5q0 42 -18 70.5t-46 41.5z" />
    <glyph glyph-name="bar" unicode="|" horiz-adv-x="250" 
d="M98 710v-710l55 -4v710z" />
    <glyph glyph-name="braceright" unicode="}" horiz-adv-x="265" 
d="M135 307q-30 -12 -47.5 -39.5t-17.5 -70.5q0 -14 4.5 -31.5t14.5 -39.5t14.5 -39.5t4.5 -30.5q0 -22 -17.5 -40t-54.5 -18h-19l-7 -42h26q63 0 93.5 29t30.5 77q0 16 -4.5 34t-13.5 38t-13.5 38t-4.5 33q0 38 24 61t54 23h33v38h-33q-30 0 -54 23t-24 60q0 16 4.5 34
t13.5 38t13.5 38t4.5 34q0 48 -30.5 76.5t-93.5 28.5h-26l7 -42h19q37 0 54.5 -18t17.5 -39q0 -13 -4.5 -31t-14.5 -40t-14.5 -39.5t-4.5 -30.5q0 -43 18 -71.5t47 -40.5z" />
    <glyph glyph-name="asciitilde" unicode="~" horiz-adv-x="378" 
d="M30 210h42q1 21 15 31.5t33 10.5q15 0 32 -6t36 -18q18 -12 35.5 -18t34.5 -6q26 0 46 9.5t32 28.5t12 47h-44q0 -20 -14 -31t-33 -11q-13 0 -28 6t-32 18t-36.5 18t-40.5 6q-26 0 -46.5 -9.5t-32 -28t-11.5 -47.5z" />
    <glyph glyph-name="uni00A0" unicode="&#xa0;" horiz-adv-x="238" 
 />
    <glyph glyph-name="exclamdown" unicode="&#xa1;" horiz-adv-x="146" 
d="M74 616q18 0 30 13t12 30q0 18 -12 30.5t-30 12.5t-30.5 -12.5t-12.5 -30.5q0 -17 12.5 -30t30.5 -13zM91 502l-43 21l-12 -523h63z" />
    <glyph glyph-name="cent" unicode="&#xa2;" horiz-adv-x="450" 
d="M290 473v132l-47 -10v-121zM290 4l-47 -1v-114h47v115zM391 67q-26 -13 -53 -23.5t-78 -10.5q-54 0 -91 28.5t-56 77t-19 107.5q1 57 21 103.5t58.5 74.5t91.5 28q49 0 77.5 -11t53.5 -23l20 38q-19 13 -46.5 22t-55 14.5t-47.5 5.5q-71 0 -122.5 -33t-79 -90t-27.5 -130
q0 -75 26 -133.5t75.5 -91.5t120.5 -33q21 0 48.5 5t55 14.5t47.5 21.5z" />
    <glyph glyph-name="sterling" unicode="&#xa3;" horiz-adv-x="428" 
d="M68 0h350l-6 44h-260q19 19 26.5 44.5t7.5 59.5v184h160l-22 41h-138v181q0 36 15.5 59.5t53.5 23.5q10 0 22.5 -3.5t18.5 -6.5l12 44q-6 3 -16.5 6t-23 5t-26.5 2q-36 0 -61 -17t-37.5 -48.5t-12.5 -73.5v-172h-73l2 -41h71v-205q0 -36 -15 -59t-52 -24z" />
    <glyph glyph-name="currency" unicode="&#xa4;" horiz-adv-x="662" 
d="M61 -56l105 104q31 -29 71 -45t88 -16q50 0 93.5 16.5t74.5 46.5l108 -106l31 36l-106 107q23 31 35.5 70t13.5 82q0 45 -12 86t-35 73l104 105l-31 37l-104 -104q-31 28 -71.5 45t-90.5 17t-92.5 -17t-74.5 -47l-107 106l-31 -37l106 -105q-23 -32 -35.5 -70.5
t-12.5 -81.5q0 -47 12 -88t34 -74l-104 -104zM518 239q0 -58 -25 -104.5t-68 -73.5t-99 -27q-54 0 -94.5 27.5t-64 75.5t-23.5 109q1 57 25.5 103.5t67.5 74t99 27.5q58 0 98.5 -29t62 -77t21.5 -106z" />
    <glyph glyph-name="yen" unicode="&#xa5;" horiz-adv-x="537" 
d="M58 303l7 -44h414l-7 44h-414zM58 128l7 -44h414l-7 44h-414zM290 0v278l237 402h-61l-204 -352l-200 364l-52 -26l225 -394v-272h55z" />
    <glyph glyph-name="brokenbar" unicode="&#xa6;" horiz-adv-x="250" 
d="M98 710v-300l55 -4v300zM98 292v-292l55 -4v292z" />
    <glyph glyph-name="section" unicode="&#xa7;" horiz-adv-x="566" 
d="M435 99q31 15 52 36.5t31.5 49t10.5 58.5q0 35 -11.5 63t-34.5 51.5t-57 44t-79 40.5q-60 27 -101 51.5t-62 53.5t-21 67q0 52 42 86t114 34q35 0 60.5 -5t46 -13t37.5 -16l22 41q-30 15 -74 27t-94 12q-64 0 -110.5 -21t-72.5 -58t-26 -84q0 -34 12 -63.5t35 -54.5
t57.5 -46t78.5 -40q61 -25 101.5 -49.5t61 -53t20.5 -66.5q0 -29 -15 -54.5t-43 -43.5zM55 -77q13 -7 34.5 -14.5t48 -14t52.5 -10t47 -3.5q74 0 125.5 22t78.5 61t27 89q0 35 -11.5 63t-34 51.5t-57 44t-79.5 40.5q-59 27 -100.5 51.5t-62.5 53.5t-21 67q0 32 17 58.5
t47 41.5l-26 41q-30 -13 -50 -34t-31 -47.5t-11 -56.5q0 -34 12 -63.5t35 -54.5t57 -46t79 -40q60 -25 101 -49.5t61 -53t20 -66.5q0 -34 -20.5 -63t-59.5 -46t-97 -17q-33 0 -64.5 6t-57.5 15.5t-44 17.5z" />
    <glyph glyph-name="dieresis" unicode="&#xa8;" horiz-adv-x="258" 
d="M50 618q17 0 28.5 11.5t11.5 28.5t-11.5 28t-28.5 11t-28.5 -11t-11.5 -28t11.5 -28.5t28.5 -11.5zM208 618q17 0 28.5 11.5t11.5 28.5t-11.5 28t-28.5 11q-18 0 -29 -11t-11 -28t11 -28.5t29 -11.5z" />
    <glyph glyph-name="copyright" unicode="&#xa9;" horiz-adv-x="789" 
d="M751 336q0 75 -25 139t-72 112.5t-112.5 75.5t-147.5 27t-147.5 -27t-112 -75.5t-71.5 -112.5t-25 -139q0 -74 24.5 -138t70.5 -112t112 -75t149 -27q82 0 147.5 27t112.5 75t72 112t25 138zM90 337q0 88 37 158t105.5 111t161.5 41q94 0 162 -41t106 -111t38 -158
q0 -87 -38 -157.5t-106 -111.5t-162 -41q-93 0 -161.5 41t-105.5 111.5t-37 157.5zM407 114q20 0 45.5 5t50 14.5t40.5 22.5l-20 36q-22 -13 -49 -23.5t-68 -10.5q-75 0 -114 49t-39 135q0 54 18 94.5t53.5 63.5t83.5 23q28 0 49 -5t37.5 -12.5t30.5 -16.5l20 37
q-15 13 -39.5 22t-50 14.5t-45.5 5.5q-63 0 -111 -28t-74.5 -78.5t-26.5 -120.5q0 -69 26 -120.5t73 -79t110 -27.5z" />
    <glyph glyph-name="ordfeminine" unicode="&#xaa;" horiz-adv-x="332" 
d="M87 465q0 27 22 44t58 17h77v-70q-16 -22 -39.5 -37.5t-51.5 -15.5q-30 0 -48 19.5t-18 42.5zM72 636q18 7 38 14.5t54 7.5q40 0 60 -21t20 -55v-20h-86q-51 0 -85.5 -25.5t-34.5 -71.5q0 -43 31.5 -72.5t83.5 -29.5q28 0 53 13.5t41 31.5l11 -36h36v208q0 32 -15 59.5
t-44 45t-72 17.5q-13 0 -32.5 -3.5t-38.5 -10t-32 -15.5z" />
    <glyph glyph-name="guillemotleft" unicode="&#xab;" horiz-adv-x="363" 
d="M182 226l140 -142l21 36l-118 125l118 125l-21 36l-140 -142v-38zM30 226l140 -142l21 36l-117 125l117 125l-21 36l-140 -142v-38z" />
    <glyph glyph-name="logicalnot" unicode="&#xac;" horiz-adv-x="509" 
d="M471 406h-461l8 -44h408v-245l53 -5v244z" />
    <glyph glyph-name="softhyphen" unicode="&#xad;" horiz-adv-x="120" 
 />
    <glyph glyph-name="registered" unicode="&#xae;" horiz-adv-x="710" 
d="M673 487q0 88 -39.5 159t-110.5 112.5t-167 41.5q-97 0 -168.5 -41.5t-110.5 -112.5t-39 -159q0 -87 39.5 -157.5t111 -112t167.5 -41.5t167 41.5t110.5 112t39.5 157.5zM88 488q0 78 32.5 139t93 96t142.5 35t141 -35t91.5 -96t32.5 -139q0 -76 -32.5 -137t-91.5 -96.5
t-141 -36.5q-82 1 -142.5 36.5t-93 96.5t-32.5 137zM331 644q29 0 51.5 -4.5t35.5 -20t13 -48.5q0 -30 -14.5 -46t-38.5 -22t-52 -6h-31v147h36zM508 304l-99 168q28 12 48.5 37t20.5 63q0 40 -17.5 63.5t-48 34t-70.5 10.5h-92v-376h45v158h42q7 0 14 0.5t15 0.5l90 -159
h52z" />
    <glyph glyph-name="macron" unicode="&#xaf;" horiz-adv-x="261" 
d="M10 640h241l-6 43h-235v-43z" />
    <glyph glyph-name="degree" unicode="&#xb0;" horiz-adv-x="238" 
d="M116 702q-29 0 -53.5 -14t-38.5 -37t-14 -52q0 -30 14 -52.5t38.5 -35.5t53.5 -13q31 0 55 13t38 35.5t14 52.5q0 29 -14 52t-38 37t-55 14zM118 533q-29 0 -47 21t-18 46t17 45t46 20q28 0 46.5 -20t18.5 -45t-17 -46t-46 -21z" />
    <glyph glyph-name="plusminus" unicode="&#xb1;" horiz-adv-x="492" 
d="M450 347h-181v184l-52 3v-187h-187l8 -42h179v-192l52 -5v197h189zM454 42h-424l8 -42h424z" />
    <glyph glyph-name="twosuperior" unicode="&#xb2;" horiz-adv-x="347" 
d="M172 771q-25 0 -51 -5.5t-50.5 -14t-41.5 -18.5l19 -37q14 8 35 16t44 13.5t43 5.5q34 0 54.5 -13t29.5 -32.5t9 -38.5q0 -22 -16 -54.5t-66 -77.5l-156 -139v-40h302l-6 38h-239l125 109q55 49 80.5 87t25.5 80q0 28 -14.5 56t-45.5 46.5t-81 18.5z" />
    <glyph glyph-name="threesuperior" unicode="&#xb3;" horiz-adv-x="354" 
d="M155 771q-46 0 -81 -12.5t-65 -31.5l22 -34q19 12 49.5 25t73.5 13q46 0 72 -23.5t26 -57.5q0 -28 -13.5 -49.5t-41 -33t-69.5 -11.5h-32l7 -38h20q78 0 108.5 -27t30.5 -76q0 -30 -16 -51.5t-42.5 -32.5t-56.5 -11q-43 0 -70 8.5t-53 24.5l-24 -35q26 -15 63.5 -27.5
t79.5 -12.5q53 0 90.5 18.5t57.5 50t20 69.5q0 32 -11 57t-31 42t-49 23q23 8 41.5 24t29.5 39t11 50q0 49 -36 84.5t-111 35.5z" />
    <glyph glyph-name="acute" unicode="&#xb4;" horiz-adv-x="141" 
d="M46 589l85 153h-66l-55 -141z" />
    <glyph glyph-name="mu" unicode="&#xb5;" horiz-adv-x="517" 
d="M129 -208v577l-55 -10v-578zM395 485v-353q-26 -28 -56 -50.5t-60.5 -35t-57.5 -12.5q-54 0 -73 35t-19 85v331h-55v-337q0 -46 14.5 -82.5t47 -57.5t84.5 -21q30 0 63 12t63 32.5t50 44.5l10 -76h44v485h-55z" />
    <glyph glyph-name="paragraph" unicode="&#xb6;" horiz-adv-x="810" 
d="M387 0v636h225v-636h55v636h106v44h-490q-71 0 -126.5 -21.5t-87 -66.5t-31.5 -117q0 -53 20 -93t55 -66t81.5 -39t99.5 -13h38v-264h55z" />
    <glyph glyph-name="periodcentered" unicode="&#xb7;" horiz-adv-x="145" 
d="M73 219q17 0 29.5 13t12.5 30q0 18 -12.5 30t-29.5 12q-19 0 -31 -12t-12 -30q0 -17 12 -30t31 -13z" />
    <glyph glyph-name="cedilla" unicode="&#xb8;" horiz-adv-x="206" 
d="M54 -79q28 -1 49.5 -9.5t33 -21t11.5 -26.5q0 -19 -19 -31.5t-45 -12.5q-16 0 -33 5t-26 9l-15 -36q13 -8 35.5 -13.5t40.5 -5.5q31 0 56 10t39.5 30t14.5 47q0 18 -10 35t-29.5 30t-46.5 17l26 65h-47z" />
    <glyph glyph-name="onesuperior" unicode="&#xb9;" horiz-adv-x="243" 
d="M166 336v429h-30l-126 -65l23 -31l84 42v-375h49z" />
    <glyph glyph-name="ordmasculine" unicode="&#xba;" horiz-adv-x="362" 
d="M180 702q-42 0 -76.5 -21t-55.5 -59t-21 -90q0 -54 20.5 -91.5t55.5 -57.5t77 -20q43 0 78 20.5t56 58.5t21 90q0 54 -21 92t-56 58t-78 20zM180 660q42 0 72 -32.5t30 -95.5q0 -43 -15 -71.5t-38.5 -42t-48.5 -13.5q-38 0 -69.5 32.5t-31.5 94.5q0 44 15 72t38.5 42
t47.5 14z" />
    <glyph glyph-name="guillemotright" unicode="&#xbb;" horiz-adv-x="363" 
d="M182 264l-140 142l-22 -36l118 -125l-118 -125l22 -36l140 142v38zM333 264l-139 142l-22 -36l118 -125l-118 -125l22 -36l139 142v38z" />
    <glyph glyph-name="onequarter" unicode="&#xbc;" horiz-adv-x="716" 
d="M166 336v429h-30l-126 -65l23 -31l84 42v-375h49zM696 -32h-81v352h-32l-253 -352l4 -39h233v-93h48v93h77zM567 229v-261h-185zM536 700l-502 -834h55l496 834h-49z" />
    <glyph glyph-name="onehalf" unicode="&#xbd;" horiz-adv-x="750" 
d="M166 336v429h-30l-126 -65l23 -31l84 42v-375h49zM576 325q-25 0 -51 -5.5t-50.5 -14t-41.5 -18.5l19 -37q14 8 35 16t44 13.5t43 5.5q34 0 54.5 -13t29.5 -32.5t9 -38.5q0 -22 -16 -54.5t-66 -77.5l-156 -139v-40h302l-6 38h-239l125 109q55 49 80.5 87t25.5 80
q0 28 -14.5 56t-45.5 46.5t-81 18.5zM532 700l-502 -834h55l496 834h-49z" />
    <glyph glyph-name="threequarters" unicode="&#xbe;" horiz-adv-x="767" 
d="M155 771q-46 0 -81 -12.5t-65 -31.5l22 -34q19 12 49.5 25t73.5 13q46 0 72 -23.5t26 -57.5q0 -28 -13.5 -49.5t-41 -33t-69.5 -11.5h-32l7 -38h20q78 0 108.5 -27t30.5 -76q0 -30 -16 -51.5t-42.5 -32.5t-56.5 -11q-43 0 -70 8.5t-53 24.5l-24 -35q26 -15 63.5 -27.5
t79.5 -12.5q53 0 90.5 18.5t57.5 50t20 69.5q0 32 -11 57t-31 42t-49 23q23 8 41.5 24t29.5 39t11 50q0 49 -36 84.5t-111 35.5zM616 700l-502 -834h55l496 834h-49zM746 -32h-81v352h-32l-253 -352l4 -39h233v-93h48v93h77zM617 229v-261h-185z" />
    <glyph glyph-name="questiondown" unicode="&#xbf;" horiz-adv-x="398" 
d="M240 536q19 0 31 13t12 30q0 18 -12 30.5t-31 12.5q-17 0 -30 -12.5t-13 -30.5q0 -17 13 -30t30 -13zM212 -80q59 0 101.5 18t74.5 42l-8 48q-39 -28 -75.5 -44.5t-90.5 -16.5q-60 0 -92.5 29t-32.5 89q0 57 47.5 103t125.5 71l-7 205l-39 20l-9 -194q-55 -24 -95 -58
t-61 -72.5t-21 -76.5q0 -47 19 -84t59.5 -58t103.5 -21z" />
    <glyph glyph-name="Agrave" unicode="&#xc0;" horiz-adv-x="581" 
d="M420 253h-265l130 355zM257 680l-247 -680h54l76 209h296l80 -215l55 11l-259 675h-55zM287 739l36 12l-55 141h-66z" />
    <glyph glyph-name="Aacute" unicode="&#xc1;" horiz-adv-x="581" 
d="M420 253h-265l130 355zM257 680l-247 -680h54l76 209h296l80 -215l55 11l-259 675h-55zM289 739l85 153h-66l-55 -141z" />
    <glyph glyph-name="Acircumflex" unicode="&#xc2;" horiz-adv-x="581" 
d="M420 253h-265l130 355zM257 680l-247 -680h54l76 209h296l80 -215l55 11l-259 675h-55zM285 853l79 -113l49 12l-104 141h-49l-103 -143l47 -10z" />
    <glyph glyph-name="Atilde" unicode="&#xc3;" horiz-adv-x="581" 
d="M420 253h-265l130 355zM257 680l-247 -680h54l76 209h296l80 -215l55 11l-259 675h-55zM377 849q-2 -23 -13.5 -35.5t-28.5 -12.5q-13 0 -25 6.5t-23 19.5t-27.5 19.5t-37.5 6.5q-22 0 -41 -9t-30.5 -28.5t-11.5 -53.5h42q2 23 13 36t29 13q13 0 26 -6.5t26 -19.5t28 -20
t32 -7q23 0 42 9t30 29.5t11 52.5h-41z" />
    <glyph glyph-name="Adieresis" unicode="&#xc4;" horiz-adv-x="581" 
d="M420 253h-265l130 355zM257 680l-247 -680h54l76 209h296l80 -215l55 11l-259 675h-55zM203 768q17 0 28.5 11.5t11.5 28.5t-11.5 28t-28.5 11t-28.5 -11t-11.5 -28t11.5 -28.5t28.5 -11.5zM361 768q17 0 28.5 11.5t11.5 28.5t-11.5 28t-28.5 11q-18 0 -29 -11t-11 -28
t11 -28.5t29 -11.5z" />
    <glyph glyph-name="Aring" unicode="&#xc5;" horiz-adv-x="581" 
d="M420 253h-265l130 355zM257 680l-247 -680h54l76 209h296l80 -215l55 11l-259 675h-55zM285 909q-24 0 -44 -11t-32.5 -30t-12.5 -43q0 -35 26.5 -58t62.5 -23q24 0 44 10.5t32 29t12 41.5q0 24 -12 43t-32 30t-44 11zM285 778q-20 0 -33.5 13.5t-13.5 33.5q0 21 13.5 35
t33.5 14t33.5 -14t13.5 -35q0 -20 -13.5 -33.5t-33.5 -13.5z" />
    <glyph glyph-name="AE" unicode="&#xc6;" horiz-adv-x="835" 
d="M434 0h381l-5 44h-321v284h245l-5 41h-240v269h304l-5 42h-362l-416 -675l53 -10l128 214h243v-209zM434 604v-351h-215z" />
    <glyph glyph-name="Ccedilla" unicode="&#xc7;" horiz-adv-x="553" 
d="M526 657q-19 13 -50 21t-62.5 12t-52.5 4q-73 0 -131.5 -27.5t-98.5 -76.5t-61.5 -114t-21.5 -140q0 -69 19 -132t56.5 -112t95.5 -77.5t136 -28.5q29 0 61.5 5t61.5 13.5t48 18.5l-24 42q-27 -12 -61.5 -21t-88.5 -9q-58 0 -103.5 24t-76.5 66t-47.5 96.5t-16.5 115.5
q0 92 33.5 161.5t91 108.5t128.5 39q36 0 60.5 -4t44.5 -10.5t40 -15.5zM301 -79q28 -1 49.5 -9.5t33 -21t11.5 -26.5q0 -19 -19 -31.5t-45 -12.5q-16 0 -33 5t-26 9l-15 -36q13 -8 35.5 -13.5t40.5 -5.5q31 0 56 10t39.5 30t14.5 47q0 18 -10 35t-29.5 30t-46.5 17l26 65
h-47z" />
    <glyph glyph-name="Egrave" unicode="&#xc8;" horiz-adv-x="499" 
d="M479 0l-6 44h-320v284h245l-5 41h-240v269h303l-5 42h-353v-680h381zM279 739l36 12l-55 141h-66z" />
    <glyph glyph-name="Eacute" unicode="&#xc9;" horiz-adv-x="499" 
d="M479 0l-6 44h-320v284h245l-5 41h-240v269h303l-5 42h-353v-680h381zM280 739l85 153h-66l-55 -141z" />
    <glyph glyph-name="Ecircumflex" unicode="&#xca;" horiz-adv-x="499" 
d="M479 0l-6 44h-320v284h245l-5 41h-240v269h303l-5 42h-353v-680h381zM277 853l79 -113l49 12l-104 141h-49l-103 -143l47 -10z" />
    <glyph glyph-name="Edieresis" unicode="&#xcb;" horiz-adv-x="499" 
d="M479 0l-6 44h-320v284h245l-5 41h-240v269h303l-5 42h-353v-680h381zM194 768q17 0 28.5 11.5t11.5 28.5t-11.5 28t-28.5 11t-28.5 -11t-11.5 -28t11.5 -28.5t28.5 -11.5zM352 768q17 0 28.5 11.5t11.5 28.5t-11.5 28t-28.5 11q-18 0 -29 -11t-11 -28t11 -28.5t29 -11.5z
" />
    <glyph glyph-name="Igrave" unicode="&#xcc;" horiz-adv-x="250" 
d="M153 0v680h-55v-680h55zM128 739l36 12l-55 141h-66z" />
    <glyph glyph-name="Iacute" unicode="&#xcd;" horiz-adv-x="250" 
d="M153 0v680h-55v-680h55zM130 739l85 153h-66l-55 -141z" />
    <glyph glyph-name="Icircumflex" unicode="&#xce;" horiz-adv-x="250" 
d="M153 0v680h-55v-680h55zM126 853l79 -113l49 12l-104 141h-49l-103 -143l47 -10z" />
    <glyph glyph-name="Idieresis" unicode="&#xcf;" horiz-adv-x="250" 
d="M153 0v680h-55v-680h55zM44 768q17 0 28.5 11.5t11.5 28.5t-11.5 28t-28.5 11t-28.5 -11t-11.5 -28t11.5 -28.5t28.5 -11.5zM202 768q17 0 28.5 11.5t11.5 28.5t-11.5 28t-28.5 11q-18 0 -29 -11t-11 -28t11 -28.5t29 -11.5z" />
    <glyph glyph-name="Eth" unicode="&#xd0;" horiz-adv-x="663" 
d="M272 312l-9 44h-248l9 -44h248zM320 0q100 0 165 46.5t97.5 125t32.5 172.5q0 93 -29 169t-92.5 121.5t-168.5 45.5h-227v-680h222zM331 635q78 0 128.5 -39.5t75.5 -105.5t25 -147q0 -87 -30 -154.5t-83.5 -105.5t-125.5 -38h-168v590h178z" />
    <glyph glyph-name="Ntilde" unicode="&#xd1;" horiz-adv-x="670" 
d="M153 0v568l14 -29l372 -539h34v680h-56v-561l-34 59l-351 502h-34v-680h55zM427 849q-2 -23 -13.5 -35.5t-28.5 -12.5q-13 0 -25 6.5t-23 19.5t-27.5 19.5t-37.5 6.5q-22 0 -41 -9t-30.5 -28.5t-11.5 -53.5h42q2 23 13 36t29 13q13 0 26 -6.5t26 -19.5t28 -20t32 -7
q23 0 42 9t30 29.5t11 52.5h-41z" />
    <glyph glyph-name="Ograve" unicode="&#xd2;" horiz-adv-x="713" 
d="M354 -14q-89 0 -158 45t-108.5 124.5t-39.5 181.5q0 103 40 184t110.5 127.5t161.5 47.5q88 0 157.5 -45t109 -124.5t39.5 -181.5q0 -103 -40.5 -184t-110.5 -127.5t-161 -47.5zM352 33q74 0 131 40.5t89.5 110.5t32.5 160q0 88 -31.5 156.5t-86.5 108t-126 39.5
q-73 0 -130.5 -40.5t-90 -110t-32.5 -159.5q0 -88 31.5 -157t86.5 -108.5t126 -39.5zM362 739l36 12l-55 141h-66z" />
    <glyph glyph-name="Oacute" unicode="&#xd3;" horiz-adv-x="713" 
d="M354 -14q-89 0 -158 45t-108.5 124.5t-39.5 181.5q0 103 40 184t110.5 127.5t161.5 47.5q88 0 157.5 -45t109 -124.5t39.5 -181.5q0 -103 -40.5 -184t-110.5 -127.5t-161 -47.5zM352 33q74 0 131 40.5t89.5 110.5t32.5 160q0 88 -31.5 156.5t-86.5 108t-126 39.5
q-73 0 -130.5 -40.5t-90 -110t-32.5 -159.5q0 -88 31.5 -157t86.5 -108.5t126 -39.5zM364 739l85 153h-66l-55 -141z" />
    <glyph glyph-name="Ocircumflex" unicode="&#xd4;" horiz-adv-x="713" 
d="M354 -14q-89 0 -158 45t-108.5 124.5t-39.5 181.5q0 103 40 184t110.5 127.5t161.5 47.5q88 0 157.5 -45t109 -124.5t39.5 -181.5q0 -103 -40.5 -184t-110.5 -127.5t-161 -47.5zM352 33q74 0 131 40.5t89.5 110.5t32.5 160q0 88 -31.5 156.5t-86.5 108t-126 39.5
q-73 0 -130.5 -40.5t-90 -110t-32.5 -159.5q0 -88 31.5 -157t86.5 -108.5t126 -39.5zM360 853l79 -113l49 12l-104 141h-49l-103 -143l47 -10z" />
    <glyph glyph-name="Otilde" unicode="&#xd5;" horiz-adv-x="713" 
d="M354 -14q-89 0 -158 45t-108.5 124.5t-39.5 181.5q0 103 40 184t110.5 127.5t161.5 47.5q88 0 157.5 -45t109 -124.5t39.5 -181.5q0 -103 -40.5 -184t-110.5 -127.5t-161 -47.5zM352 33q74 0 131 40.5t89.5 110.5t32.5 160q0 88 -31.5 156.5t-86.5 108t-126 39.5
q-73 0 -130.5 -40.5t-90 -110t-32.5 -159.5q0 -88 31.5 -157t86.5 -108.5t126 -39.5zM452 849q-2 -23 -13.5 -35.5t-28.5 -12.5q-13 0 -25 6.5t-23 19.5t-27.5 19.5t-37.5 6.5q-22 0 -41 -9t-30.5 -28.5t-11.5 -53.5h42q2 23 13 36t29 13q13 0 26 -6.5t26 -19.5t28 -20
t32 -7q23 0 42 9t30 29.5t11 52.5h-41z" />
    <glyph glyph-name="Odieresis" unicode="&#xd6;" horiz-adv-x="713" 
d="M354 -14q-89 0 -158 45t-108.5 124.5t-39.5 181.5q0 103 40 184t110.5 127.5t161.5 47.5q88 0 157.5 -45t109 -124.5t39.5 -181.5q0 -103 -40.5 -184t-110.5 -127.5t-161 -47.5zM352 33q74 0 131 40.5t89.5 110.5t32.5 160q0 88 -31.5 156.5t-86.5 108t-126 39.5
q-73 0 -130.5 -40.5t-90 -110t-32.5 -159.5q0 -88 31.5 -157t86.5 -108.5t126 -39.5zM278 768q17 0 28.5 11.5t11.5 28.5t-11.5 28t-28.5 11t-28.5 -11t-11.5 -28t11.5 -28.5t28.5 -11.5zM436 768q17 0 28.5 11.5t11.5 28.5t-11.5 28t-28.5 11q-18 0 -29 -11t-11 -28
t11 -28.5t29 -11.5z" />
    <glyph glyph-name="multiply" unicode="&#xd7;" horiz-adv-x="478" 
d="M265 245l167 -214h-56l-139 174l-150 -174h-57l183 219l-166 214h55l138 -174l152 174h56z" />
    <glyph glyph-name="Oslash" unicode="&#xd8;" horiz-adv-x="713" 
d="M354 -14q-89 0 -158 45t-108.5 124.5t-39.5 181.5q0 103 40 184t110.5 127.5t161.5 47.5q88 0 157.5 -45t109 -124.5t39.5 -181.5q0 -103 -40.5 -184t-110.5 -127.5t-161 -47.5zM352 33q74 0 131 40.5t89.5 110.5t32.5 160q0 88 -31.5 156.5t-86.5 108t-126 39.5
q-73 0 -130.5 -40.5t-90 -110t-32.5 -159.5q0 -88 31.5 -157t86.5 -108.5t126 -39.5zM255 37l-47 22l248 575l48 -20z" />
    <glyph glyph-name="Ugrave" unicode="&#xd9;" horiz-adv-x="665" 
d="M143 680h-55v-441q0 -72 29 -129t84 -89.5t131 -32.5q78 0 132.5 32.5t83.5 89.5t29 129v441h-55v-438q0 -58 -22.5 -105t-65 -74.5t-102.5 -27.5q-57 0 -99.5 27.5t-66 74.5t-23.5 105v438zM334 739l36 12l-55 141h-66z" />
    <glyph glyph-name="Uacute" unicode="&#xda;" horiz-adv-x="665" 
d="M143 680h-55v-441q0 -72 29 -129t84 -89.5t131 -32.5q78 0 132.5 32.5t83.5 89.5t29 129v441h-55v-438q0 -58 -22.5 -105t-65 -74.5t-102.5 -27.5q-57 0 -99.5 27.5t-66 74.5t-23.5 105v438zM336 739l85 153h-66l-55 -141z" />
    <glyph glyph-name="Ucircumflex" unicode="&#xdb;" horiz-adv-x="665" 
d="M143 680h-55v-441q0 -72 29 -129t84 -89.5t131 -32.5q78 0 132.5 32.5t83.5 89.5t29 129v441h-55v-438q0 -58 -22.5 -105t-65 -74.5t-102.5 -27.5q-57 0 -99.5 27.5t-66 74.5t-23.5 105v438zM332 853l79 -113l49 12l-104 141h-49l-103 -143l47 -10z" />
    <glyph glyph-name="Udieresis" unicode="&#xdc;" horiz-adv-x="665" 
d="M143 680h-55v-441q0 -72 29 -129t84 -89.5t131 -32.5q78 0 132.5 32.5t83.5 89.5t29 129v441h-55v-438q0 -58 -22.5 -105t-65 -74.5t-102.5 -27.5q-57 0 -99.5 27.5t-66 74.5t-23.5 105v438zM250 768q17 0 28.5 11.5t11.5 28.5t-11.5 28t-28.5 11t-28.5 -11t-11.5 -28
t11.5 -28.5t28.5 -11.5zM408 768q17 0 28.5 11.5t11.5 28.5t-11.5 28t-28.5 11q-18 0 -29 -11t-11 -28t11 -28.5t29 -11.5z" />
    <glyph glyph-name="Yacute" unicode="&#xdd;" horiz-adv-x="537" 
d="M290 0v278l237 402h-61l-204 -352l-200 364l-52 -26l225 -394v-272h55zM266 739l85 153h-66l-55 -141z" />
    <glyph glyph-name="Thorn" unicode="&#xde;" horiz-adv-x="549" 
d="M267 600q71 0 126 -20.5t87 -65.5t32 -119q0 -55 -20 -95t-55.5 -65.5t-81.5 -38t-99 -12.5h-103v-184h-55v680h55v-80h114zM263 229q54 0 97.5 17.5t69.5 54.5t26 93q0 59 -23 94t-63.5 50.5t-95.5 15.5h-121v-325h110z" />
    <glyph glyph-name="germandbls" unicode="&#xdf;" horiz-adv-x="550" 
d="M78 0h55v473q0 46 16.5 82t50 57t82.5 21q54 0 94 -32.5t40 -98.5q0 -63 -37.5 -95t-127.5 -32h-27v-45h45q82 0 131.5 -34t49.5 -110q0 -52 -25.5 -83t-68.5 -44.5t-97 -13.5h-51v-45h43q71 0 129 17t92.5 58.5t34.5 112.5q0 44 -16 77t-44.5 56t-64.5 35q29 13 49.5 34
t31 49.5t10.5 63.5q0 59 -26.5 98t-69.5 59t-95 20q-62 0 -108 -24.5t-71 -70.5t-25 -112v-473z" />
    <glyph glyph-name="agrave" unicode="&#xe0;" horiz-adv-x="479" 
d="M108 136q0 44 29 75t89 31h134v-129q-24 -33 -60.5 -56.5t-83.5 -23.5q-36 0 -60 14.5t-36 38.5t-12 50zM105 418q28 13 58 23.5t81 10.5q59 0 87.5 -33t28.5 -83v-55h-135q-76 0 -124.5 -38t-48.5 -107q0 -63 40.5 -106t122.5 -43q45 0 84.5 19.5t63.5 45.5l8 -52h44
v340q0 48 -20.5 83.5t-59 55t-94.5 19.5q-20 0 -49.5 -5.5t-58 -14.5t-47.5 -22zM247 589l36 12l-55 141h-66z" />
    <glyph glyph-name="aacute" unicode="&#xe1;" horiz-adv-x="479" 
d="M108 136q0 44 29 75t89 31h134v-129q-24 -33 -60.5 -56.5t-83.5 -23.5q-36 0 -60 14.5t-36 38.5t-12 50zM105 418q28 13 58 23.5t81 10.5q59 0 87.5 -33t28.5 -83v-55h-135q-76 0 -124.5 -38t-48.5 -107q0 -63 40.5 -106t122.5 -43q45 0 84.5 19.5t63.5 45.5l8 -52h44
v340q0 48 -20.5 83.5t-59 55t-94.5 19.5q-20 0 -49.5 -5.5t-58 -14.5t-47.5 -22zM235 589l85 153h-66l-55 -141z" />
    <glyph glyph-name="acircumflex" unicode="&#xe2;" horiz-adv-x="479" 
d="M108 136q0 44 29 75t89 31h134v-129q-24 -33 -60.5 -56.5t-83.5 -23.5q-36 0 -60 14.5t-36 38.5t-12 50zM105 418q28 13 58 23.5t81 10.5q59 0 87.5 -33t28.5 -83v-55h-135q-76 0 -124.5 -38t-48.5 -107q0 -63 40.5 -106t122.5 -43q45 0 84.5 19.5t63.5 45.5l8 -52h44
v340q0 48 -20.5 83.5t-59 55t-94.5 19.5q-20 0 -49.5 -5.5t-58 -14.5t-47.5 -22zM248 703l79 -114l49 12l-104 141h-49l-103 -143l47 -10z" />
    <glyph glyph-name="atilde" unicode="&#xe3;" horiz-adv-x="479" 
d="M108 136q0 44 29 75t89 31h134v-129q-24 -33 -60.5 -56.5t-83.5 -23.5q-36 0 -60 14.5t-36 38.5t-12 50zM105 418q28 13 58 23.5t81 10.5q59 0 87.5 -33t28.5 -83v-55h-135q-76 0 -124.5 -38t-48.5 -107q0 -63 40.5 -106t122.5 -43q45 0 84.5 19.5t63.5 45.5l8 -52h44
v340q0 48 -20.5 83.5t-59 55t-94.5 19.5q-20 0 -49.5 -5.5t-58 -14.5t-47.5 -22zM336 699q-2 -23 -13.5 -35.5t-28.5 -12.5q-13 0 -25 6.5t-23 19.5t-27.5 19.5t-37.5 6.5q-22 0 -41 -9t-30.5 -28.5t-11.5 -53.5h42q2 23 13 36t29 13q13 0 26 -6.5t26 -19.5t28 -20t32 -7
q23 0 42 9t30 29.5t11 52.5h-41z" />
    <glyph glyph-name="adieresis" unicode="&#xe4;" horiz-adv-x="479" 
d="M108 136q0 44 29 75t89 31h134v-129q-24 -33 -60.5 -56.5t-83.5 -23.5q-36 0 -60 14.5t-36 38.5t-12 50zM105 418q28 13 58 23.5t81 10.5q59 0 87.5 -33t28.5 -83v-55h-135q-76 0 -124.5 -38t-48.5 -107q0 -63 40.5 -106t122.5 -43q45 0 84.5 19.5t63.5 45.5l8 -52h44
v340q0 48 -20.5 83.5t-59 55t-94.5 19.5q-20 0 -49.5 -5.5t-58 -14.5t-47.5 -22zM166 618q17 0 28.5 11.5t11.5 28.5t-11.5 28t-28.5 11t-28.5 -11t-11.5 -28t11.5 -28.5t28.5 -11.5zM324 618q17 0 28.5 11.5t11.5 28.5t-11.5 28t-28.5 11q-18 0 -29 -11t-11 -28t11 -28.5
t29 -11.5z" />
    <glyph glyph-name="aring" unicode="&#xe5;" horiz-adv-x="479" 
d="M108 136q0 44 29 75t89 31h134v-129q-24 -33 -60.5 -56.5t-83.5 -23.5q-36 0 -60 14.5t-36 38.5t-12 50zM105 418q28 13 58 23.5t81 10.5q59 0 87.5 -33t28.5 -83v-55h-135q-76 0 -124.5 -38t-48.5 -107q0 -63 40.5 -106t122.5 -43q45 0 84.5 19.5t63.5 45.5l8 -52h44
v340q0 48 -20.5 83.5t-59 55t-94.5 19.5q-20 0 -49.5 -5.5t-58 -14.5t-47.5 -22zM244 759q-24 0 -44 -11t-32.5 -30t-12.5 -43q0 -35 26.5 -58t62.5 -23q24 0 44 10.5t32 29t12 41.5q0 24 -12 43t-32 30t-44 11zM244 628q-20 0 -33.5 13.5t-13.5 33.5q0 21 13.5 35t33.5 14
t33.5 -14t13.5 -35q0 -20 -13.5 -33.5t-33.5 -13.5z" />
    <glyph glyph-name="ae" unicode="&#xe6;" horiz-adv-x="805" 
d="M767 241h-354q1 -58 18.5 -105t56 -75t101.5 -28q47 0 81.5 11t65.5 26l20 -41q-21 -12 -48.5 -21.5t-56 -15t-57.5 -5.5q-70 0 -118 25t-77 68q-17 -23 -41.5 -44.5t-59 -35t-83.5 -13.5q-82 0 -122.5 43t-40.5 106q0 69 48.5 107t124.5 38h135v55q0 50 -28.5 83
t-87.5 33q-51 0 -81 -10.5t-58 -23.5l-19 38q19 13 47.5 22t58 14.5t49.5 5.5q60 0 100.5 -23t58.5 -64q27 41 70 64t103 23q62 0 105.5 -33t66 -89.5t22.5 -127.5v-7zM415 281h295q-4 48 -19.5 87t-45.5 61.5t-78 22.5t-80 -22.5t-49.5 -61.5t-22.5 -87zM360 242h-134
q-40 2 -66.5 -12.5t-39 -39.5t-12.5 -54q0 -26 12 -50t36 -38.5t60 -14.5q46 0 76 13t50 34t35 44q-9 26 -13 56t-4 62z" />
    <glyph glyph-name="ccedilla" unicode="&#xe7;" horiz-adv-x="450" 
d="M391 67q-26 -13 -53 -23.5t-78 -10.5q-54 0 -91 28.5t-56 77t-19 107.5q1 57 21 103.5t58.5 74.5t91.5 28q49 0 77.5 -11t53.5 -23l20 38q-19 13 -46.5 22t-55 14.5t-47.5 5.5q-71 0 -122.5 -33t-79 -90t-27.5 -130q0 -75 26 -133.5t75.5 -91.5t120.5 -33q21 0 48.5 5
t55 14.5t47.5 21.5zM207 -79q28 -1 49.5 -9.5t33 -21t11.5 -26.5q0 -19 -19 -31.5t-45 -12.5q-16 0 -33 5t-26 9l-15 -36q13 -8 35.5 -13.5t40.5 -5.5q31 0 56 10t39.5 30t14.5 47q0 18 -10 35t-29.5 30t-46.5 17l26 65h-47z" />
    <glyph glyph-name="egrave" unicode="&#xe8;" horiz-adv-x="486" 
d="M448 241v6q0 72 -23 129t-66 89.5t-106 32.5q-71 0 -119 -33t-72 -90t-24 -130q0 -75 25.5 -133.5t78 -91.5t133.5 -33q28 0 57 5.5t56.5 15t48.5 21.5l-20 41q-31 -16 -65.5 -27t-82.5 -11q-62 0 -100.5 28t-56 75.5t-18.5 105.5h354zM96 280q5 48 22.5 87t49.5 62
t80 23t78 -23t45.5 -62t19.5 -87h-295zM255 589l36 12l-55 141h-66z" />
    <glyph glyph-name="eacute" unicode="&#xe9;" horiz-adv-x="486" 
d="M448 241v6q0 72 -23 129t-66 89.5t-106 32.5q-71 0 -119 -33t-72 -90t-24 -130q0 -75 25.5 -133.5t78 -91.5t133.5 -33q28 0 57 5.5t56.5 15t48.5 21.5l-20 41q-31 -16 -65.5 -27t-82.5 -11q-62 0 -100.5 28t-56 75.5t-18.5 105.5h354zM96 280q5 48 22.5 87t49.5 62
t80 23t78 -23t45.5 -62t19.5 -87h-295zM243 589l85 153h-66l-55 -141z" />
    <glyph glyph-name="ecircumflex" unicode="&#xea;" horiz-adv-x="486" 
d="M448 241v6q0 72 -23 129t-66 89.5t-106 32.5q-71 0 -119 -33t-72 -90t-24 -130q0 -75 25.5 -133.5t78 -91.5t133.5 -33q28 0 57 5.5t56.5 15t48.5 21.5l-20 41q-31 -16 -65.5 -27t-82.5 -11q-62 0 -100.5 28t-56 75.5t-18.5 105.5h354zM96 280q5 48 22.5 87t49.5 62
t80 23t78 -23t45.5 -62t19.5 -87h-295zM256 703l79 -114l49 12l-104 141h-49l-103 -143l47 -10z" />
    <glyph glyph-name="edieresis" unicode="&#xeb;" horiz-adv-x="486" 
d="M448 241v6q0 72 -23 129t-66 89.5t-106 32.5q-71 0 -119 -33t-72 -90t-24 -130q0 -75 25.5 -133.5t78 -91.5t133.5 -33q28 0 57 5.5t56.5 15t48.5 21.5l-20 41q-31 -16 -65.5 -27t-82.5 -11q-62 0 -100.5 28t-56 75.5t-18.5 105.5h354zM96 280q5 48 22.5 87t49.5 62
t80 23t78 -23t45.5 -62t19.5 -87h-295zM173 618q17 0 28.5 11.5t11.5 28.5t-11.5 28t-28.5 11t-28.5 -11t-11.5 -28t11.5 -28.5t28.5 -11.5zM331 618q17 0 28.5 11.5t11.5 28.5t-11.5 28t-28.5 11q-18 0 -29 -11t-11 -28t11 -28.5t29 -11.5z" />
    <glyph glyph-name="igrave" unicode="&#xec;" horiz-adv-x="191" 
d="M123 0v485h-55v-485h55zM100 589l36 12l-55 141h-66z" />
    <glyph glyph-name="iacute" unicode="&#xed;" horiz-adv-x="191" 
d="M123 0v485h-55v-485h55zM88 589l85 153h-66l-55 -141z" />
    <glyph glyph-name="icircumflex" unicode="&#xee;" horiz-adv-x="191" 
d="M123 0v485h-55v-485h55zM101 703l79 -114l49 12l-104 141h-49l-103 -143l47 -10z" />
    <glyph glyph-name="idieresis" unicode="&#xef;" horiz-adv-x="191" 
d="M123 0v485h-55v-485h55zM18 618q17 0 28.5 11.5t11.5 28.5t-11.5 28t-28.5 11t-28.5 -11t-11.5 -28t11.5 -28.5t28.5 -11.5zM176 618q17 0 28.5 11.5t11.5 28.5t-11.5 28t-28.5 11q-18 0 -29 -11t-11 -28t11 -28.5t29 -11.5z" />
    <glyph glyph-name="eth" unicode="&#xf0;" horiz-adv-x="525" 
d="M487 240q0 84 -21 160t-65 141.5t-115 118t-172 90.5l-16 -37q101 -42 165.5 -95t101 -114.5t51.5 -128.5t15 -136q0 -56 -20.5 -103t-58.5 -75t-92 -28t-91 28.5t-56 77t-19 107.5q1 57 21 103.5t58.5 74.5t91.5 28q31 0 59.5 -9t53.5 -26t45 -41l27 20q-24 31 -50 53.5
t-58.5 35.5t-75.5 13q-71 0 -122 -33.5t-78.5 -90.5t-27.5 -129q0 -75 25.5 -133t74.5 -91.5t121 -33.5q71 1 122 34t78.5 90t27.5 129zM112 571l267 135l-21 36l-268 -132z" />
    <glyph glyph-name="ntilde" unicode="&#xf1;" 
d="M123 0v353q25 29 55 51t60.5 34.5t57.5 12.5q54 0 73.5 -35t19.5 -85v-331h55v337q0 47 -15 83t-47.5 57t-84.5 21q-30 0 -62.5 -12t-62 -32t-50.5 -44l-10 75h-44v-485h55zM356 699q-2 -23 -13.5 -35.5t-28.5 -12.5q-13 0 -25 6.5t-23 19.5t-27.5 19.5t-37.5 6.5
q-22 0 -41 -9t-30.5 -28.5t-11.5 -53.5h42q2 23 13 36t29 13q13 0 26 -6.5t26 -19.5t28 -20t32 -7q23 0 42 9t30 29.5t11 52.5h-41z" />
    <glyph glyph-name="ograve" unicode="&#xf2;" horiz-adv-x="525" 
d="M259 -13q-72 0 -121 33.5t-74.5 91.5t-25.5 133q0 72 27.5 129t78.5 90.5t122 33.5q72 0 121 -32.5t74.5 -90t25.5 -135.5q0 -72 -27.5 -129t-78.5 -90t-122 -34zM260 33q54 0 92 28t58.5 75t20.5 103q0 60 -19 108t-55.5 76.5t-91.5 28.5q-53 0 -91.5 -28t-58.5 -74.5
t-21 -103.5q0 -59 19 -107.5t56 -77t91 -28.5zM268 589l36 12l-55 141h-66z" />
    <glyph glyph-name="oacute" unicode="&#xf3;" horiz-adv-x="525" 
d="M259 -13q-72 0 -121 33.5t-74.5 91.5t-25.5 133q0 72 27.5 129t78.5 90.5t122 33.5q72 0 121 -32.5t74.5 -90t25.5 -135.5q0 -72 -27.5 -129t-78.5 -90t-122 -34zM260 33q54 0 92 28t58.5 75t20.5 103q0 60 -19 108t-55.5 76.5t-91.5 28.5q-53 0 -91.5 -28t-58.5 -74.5
t-21 -103.5q0 -59 19 -107.5t56 -77t91 -28.5zM256 589l85 153h-66l-55 -141z" />
    <glyph glyph-name="ocircumflex" unicode="&#xf4;" horiz-adv-x="525" 
d="M259 -13q-72 0 -121 33.5t-74.5 91.5t-25.5 133q0 72 27.5 129t78.5 90.5t122 33.5q72 0 121 -32.5t74.5 -90t25.5 -135.5q0 -72 -27.5 -129t-78.5 -90t-122 -34zM260 33q54 0 92 28t58.5 75t20.5 103q0 60 -19 108t-55.5 76.5t-91.5 28.5q-53 0 -91.5 -28t-58.5 -74.5
t-21 -103.5q0 -59 19 -107.5t56 -77t91 -28.5zM269 703l79 -114l49 12l-104 141h-49l-103 -143l47 -10z" />
    <glyph glyph-name="otilde" unicode="&#xf5;" horiz-adv-x="525" 
d="M259 -13q-72 0 -121 33.5t-74.5 91.5t-25.5 133q0 72 27.5 129t78.5 90.5t122 33.5q72 0 121 -32.5t74.5 -90t25.5 -135.5q0 -72 -27.5 -129t-78.5 -90t-122 -34zM260 33q54 0 92 28t58.5 75t20.5 103q0 60 -19 108t-55.5 76.5t-91.5 28.5q-53 0 -91.5 -28t-58.5 -74.5
t-21 -103.5q0 -59 19 -107.5t56 -77t91 -28.5zM357 699q-2 -23 -13.5 -35.5t-28.5 -12.5q-13 0 -25 6.5t-23 19.5t-27.5 19.5t-37.5 6.5q-22 0 -41 -9t-30.5 -28.5t-11.5 -53.5h42q2 23 13 36t29 13q13 0 26 -6.5t26 -19.5t28 -20t32 -7q23 0 42 9t30 29.5t11 52.5h-41z" />
    <glyph glyph-name="odieresis" unicode="&#xf6;" horiz-adv-x="525" 
d="M259 -13q-72 0 -121 33.5t-74.5 91.5t-25.5 133q0 72 27.5 129t78.5 90.5t122 33.5q72 0 121 -32.5t74.5 -90t25.5 -135.5q0 -72 -27.5 -129t-78.5 -90t-122 -34zM260 33q54 0 92 28t58.5 75t20.5 103q0 60 -19 108t-55.5 76.5t-91.5 28.5q-53 0 -91.5 -28t-58.5 -74.5
t-21 -103.5q0 -59 19 -107.5t56 -77t91 -28.5zM186 618q17 0 28.5 11.5t11.5 28.5t-11.5 28t-28.5 11t-28.5 -11t-11.5 -28t11.5 -28.5t28.5 -11.5zM344 618q17 0 28.5 11.5t11.5 28.5t-11.5 28t-28.5 11q-18 0 -29 -11t-11 -28t11 -28.5t29 -11.5z" />
    <glyph glyph-name="divide" unicode="&#xf7;" horiz-adv-x="497" 
d="M248 369q19 0 32.5 14t13.5 32q0 20 -13.5 33.5t-32.5 13.5q-21 0 -34 -13.5t-13 -33.5q0 -18 13 -32t34 -14zM458 295h-428l8 -43h429zM251 66q19 0 32.5 14t13.5 33t-13.5 32.5t-32.5 13.5q-21 0 -34 -13.5t-13 -32.5t13 -33t34 -14z" />
    <glyph glyph-name="oslash" unicode="&#xf8;" horiz-adv-x="525" 
d="M259 -13q-72 0 -121 33.5t-74.5 91.5t-25.5 133q0 72 27.5 129t78.5 90.5t122 33.5q72 0 121 -32.5t74.5 -90t25.5 -135.5q0 -72 -27.5 -129t-78.5 -90t-122 -34zM260 33q54 0 92 28t58.5 75t20.5 103q0 60 -19 108t-55.5 76.5t-91.5 28.5q-53 0 -91.5 -28t-58.5 -74.5
t-21 -103.5q0 -59 19 -107.5t56 -77t91 -28.5zM186 27l-44 22l206 398l40 -29z" />
    <glyph glyph-name="ugrave" unicode="&#xf9;" 
d="M385 485v-353q-26 -28 -56 -50.5t-60.5 -35t-57.5 -12.5q-54 0 -73 35t-19 85v331h-55v-337q0 -46 14.5 -82.5t47 -57.5t84.5 -21q30 0 63 12t63 32.5t50 44.5l10 -76h44v485h-55zM252 589l36 12l-55 141h-66z" />
    <glyph glyph-name="uacute" unicode="&#xfa;" 
d="M385 485v-353q-26 -28 -56 -50.5t-60.5 -35t-57.5 -12.5q-54 0 -73 35t-19 85v331h-55v-337q0 -46 14.5 -82.5t47 -57.5t84.5 -21q30 0 63 12t63 32.5t50 44.5l10 -76h44v485h-55zM240 589l85 153h-66l-55 -141z" />
    <glyph glyph-name="ucircumflex" unicode="&#xfb;" 
d="M385 485v-353q-26 -28 -56 -50.5t-60.5 -35t-57.5 -12.5q-54 0 -73 35t-19 85v331h-55v-337q0 -46 14.5 -82.5t47 -57.5t84.5 -21q30 0 63 12t63 32.5t50 44.5l10 -76h44v485h-55zM253 703l79 -114l49 12l-104 141h-49l-103 -143l47 -10z" />
    <glyph glyph-name="udieresis" unicode="&#xfc;" 
d="M385 485v-353q-26 -28 -56 -50.5t-60.5 -35t-57.5 -12.5q-54 0 -73 35t-19 85v331h-55v-337q0 -46 14.5 -82.5t47 -57.5t84.5 -21q30 0 63 12t63 32.5t50 44.5l10 -76h44v485h-55zM170 618q17 0 28.5 11.5t11.5 28.5t-11.5 28t-28.5 11t-28.5 -11t-11.5 -28t11.5 -28.5
t28.5 -11.5zM328 618q17 0 28.5 11.5t11.5 28.5t-11.5 28t-28.5 11q-18 0 -29 -11t-11 -28t11 -28.5t29 -11.5z" />
    <glyph glyph-name="yacute" unicode="&#xfd;" horiz-adv-x="434" 
d="M161 -98q-8 -22 -21 -37t-32 -25t-44 -20l10 -39q32 7 58.5 21.5t45.5 36.5t29 49l217 597h-55l-152 -417l-160 426l-47 -22l183 -475zM205 589l85 153h-66l-55 -141z" />
    <glyph glyph-name="thorn" unicode="&#xfe;" horiz-adv-x="512" 
d="M259 498q72 0 119.5 -33t71.5 -90.5t24 -133.5q0 -72 -25 -130t-74 -91t-121 -33q-36 0 -68 14.5t-57 32.5v-242l-55 -11v915l55 10v-257q27 22 60 35.5t70 13.5zM256 33q54 0 89.5 28t53.5 75.5t18 103.5q0 60 -16.5 108t-51 76t-89.5 28q-46 0 -76.5 -17.5t-54.5 -43.5
v-304q23 -21 53.5 -37.5t73.5 -16.5z" />
    <glyph glyph-name="ydieresis" unicode="&#xff;" horiz-adv-x="434" 
d="M161 -98q-8 -22 -21 -37t-32 -25t-44 -20l10 -39q32 7 58.5 21.5t45.5 36.5t29 49l217 597h-55l-152 -417l-160 426l-47 -22l183 -475zM135 618q17 0 28.5 11.5t11.5 28.5t-11.5 28t-28.5 11t-28.5 -11t-11.5 -28t11.5 -28.5t28.5 -11.5zM293 618q17 0 28.5 11.5
t11.5 28.5t-11.5 28t-28.5 11q-18 0 -29 -11t-11 -28t11 -28.5t29 -11.5z" />
    <glyph glyph-name="Amacron" unicode="&#x100;" horiz-adv-x="581" 
d="M420 253h-265l130 355zM257 680l-247 -680h54l76 209h296l80 -215l55 11l-259 675h-55zM163 790h241l-5 43h-236v-43z" />
    <glyph glyph-name="amacron" unicode="&#x101;" horiz-adv-x="479" 
d="M108 136q0 44 29 75t89 31h134v-129q-24 -33 -60.5 -56.5t-83.5 -23.5q-36 0 -60 14.5t-36 38.5t-12 50zM105 418q28 13 58 23.5t81 10.5q59 0 87.5 -33t28.5 -83v-55h-135q-76 0 -124.5 -38t-48.5 -107q0 -63 40.5 -106t122.5 -43q45 0 84.5 19.5t63.5 45.5l8 -52h44
v340q0 48 -20.5 83.5t-59 55t-94.5 19.5q-20 0 -49.5 -5.5t-58 -14.5t-47.5 -22zM119 640h241l-6 43h-235v-43z" />
    <glyph glyph-name="Abreve" unicode="&#x102;" horiz-adv-x="581" 
d="M420 253h-265l130 355zM257 680l-247 -680h54l76 209h296l80 -215l55 11l-259 675h-55zM371 881q0 -33 -22.5 -60t-63.5 -27q-42 0 -64.5 27.5t-22.5 59.5h-43q0 -33 14.5 -63t43 -48.5t72.5 -18.5q45 0 73.5 18.5t42.5 48.5t14 63h-44z" />
    <glyph glyph-name="abreve" unicode="&#x103;" horiz-adv-x="479" 
d="M108 136q0 44 29 75t89 31h134v-129q-24 -33 -60.5 -56.5t-83.5 -23.5q-36 0 -60 14.5t-36 38.5t-12 50zM105 418q28 13 58 23.5t81 10.5q59 0 87.5 -33t28.5 -83v-55h-135q-76 0 -124.5 -38t-48.5 -107q0 -63 40.5 -106t122.5 -43q45 0 84.5 19.5t63.5 45.5l8 -52h44
v340q0 48 -20.5 83.5t-59 55t-94.5 19.5q-20 0 -49.5 -5.5t-58 -14.5t-47.5 -22zM326 731q0 -33 -22.5 -60t-63.5 -27q-42 0 -64.5 27.5t-22.5 59.5h-43q0 -33 14.5 -63t43 -48.5t72.5 -18.5q45 0 73.5 18.5t42.5 48.5t14 63h-44z" />
    <glyph glyph-name="Aogonek" unicode="&#x104;" horiz-adv-x="581" 
d="M527 9q-18 -14 -33 -34t-23 -41t-8 -40q0 -28 13.5 -50t37 -34t53.5 -12q17 0 32 4t27.5 11t20.5 15l-22 32q-12 -10 -25.5 -15.5t-29.5 -5.5q-19 0 -38 13t-19 43q0 21 7 40.5t20.5 37.5t30.5 32zM420 253h-265l130 355zM257 680l-247 -680h54l76 209h296l80 -215l55 11
l-259 675h-55z" />
    <glyph glyph-name="aogonek" unicode="&#x105;" horiz-adv-x="479" 
d="M372 4q-18 -15 -32.5 -34.5t-23 -40.5t-8.5 -40q0 -28 14 -50t37.5 -34t53.5 -12q25 0 46 8.5t34 21.5l-22 32q-12 -10 -25.5 -15.5t-29.5 -5.5q-19 0 -38.5 13t-19.5 43q0 21 7 40.5t19.5 37.5t30.5 32zM108 136q0 44 29 75t89 31h134v-129q-24 -33 -60.5 -56.5
t-83.5 -23.5q-36 0 -60 14.5t-36 38.5t-12 50zM105 418q28 13 58 23.5t81 10.5q59 0 87.5 -33t28.5 -83v-55h-135q-76 0 -124.5 -38t-48.5 -107q0 -63 40.5 -106t122.5 -43q45 0 84.5 19.5t63.5 45.5l8 -52h44v340q0 48 -20.5 83.5t-59 55t-94.5 19.5q-20 0 -49.5 -5.5
t-58 -14.5t-47.5 -22z" />
    <glyph glyph-name="Cacute" unicode="&#x106;" horiz-adv-x="553" 
d="M526 657q-19 13 -50 21t-62.5 12t-52.5 4q-73 0 -131.5 -27.5t-98.5 -76.5t-61.5 -114t-21.5 -140q0 -69 19 -132t56.5 -112t95.5 -77.5t136 -28.5q29 0 61.5 5t61.5 13.5t48 18.5l-24 42q-27 -12 -61.5 -21t-88.5 -9q-58 0 -103.5 24t-76.5 66t-47.5 96.5t-16.5 115.5
q0 92 33.5 161.5t91 108.5t128.5 39q36 0 60.5 -4t44.5 -10.5t40 -15.5zM365 739l85 153h-66l-55 -141z" />
    <glyph glyph-name="cacute" unicode="&#x107;" horiz-adv-x="450" 
d="M391 67q-26 -13 -53 -23.5t-78 -10.5q-54 0 -91 28.5t-56 77t-19 107.5q1 57 21 103.5t58.5 74.5t91.5 28q49 0 77.5 -11t53.5 -23l20 38q-19 13 -46.5 22t-55 14.5t-47.5 5.5q-71 0 -122.5 -33t-79 -90t-27.5 -130q0 -75 26 -133.5t75.5 -91.5t120.5 -33q21 0 48.5 5
t55 14.5t47.5 21.5zM246 589l85 153h-66l-55 -141z" />
    <glyph glyph-name="Ccaron" unicode="&#x10c;" horiz-adv-x="553" 
d="M526 657q-19 13 -50 21t-62.5 12t-52.5 4q-73 0 -131.5 -27.5t-98.5 -76.5t-61.5 -114t-21.5 -140q0 -69 19 -132t56.5 -112t95.5 -77.5t136 -28.5q29 0 61.5 5t61.5 13.5t48 18.5l-24 42q-27 -12 -61.5 -21t-88.5 -9q-58 0 -103.5 24t-76.5 66t-47.5 96.5t-16.5 115.5
q0 92 33.5 161.5t91 108.5t128.5 39q36 0 60.5 -4t44.5 -10.5t40 -15.5zM363 778l-80 114l-49 -10l104 -143h49l103 141l-47 12z" />
    <glyph glyph-name="ccaron" unicode="&#x10d;" horiz-adv-x="450" 
d="M391 67q-26 -13 -53 -23.5t-78 -10.5q-54 0 -91 28.5t-56 77t-19 107.5q1 57 21 103.5t58.5 74.5t91.5 28q49 0 77.5 -11t53.5 -23l20 38q-19 13 -46.5 22t-55 14.5t-47.5 5.5q-71 0 -122.5 -33t-79 -90t-27.5 -130q0 -75 26 -133.5t75.5 -91.5t120.5 -33q21 0 48.5 5
t55 14.5t47.5 21.5zM254 628l-80 114l-49 -10l104 -143h49l103 141l-47 12z" />
    <glyph glyph-name="Dcaron" unicode="&#x10e;" horiz-adv-x="663" 
d="M320 0q100 0 165 46.5t97.5 125t32.5 172.5q0 93 -29 169t-92.5 121.5t-168.5 45.5h-227v-680h222zM331 635q78 0 128.5 -39.5t75.5 -105.5t25 -147q0 -87 -30 -154.5t-83.5 -105.5t-125.5 -38h-168v590h178zM313 778l-80 114l-49 -10l104 -143h49l103 141l-47 12z" />
    <glyph glyph-name="dcaron" unicode="&#x10f;" horiz-adv-x="641" 
d="M568 702q-13 0 -22.5 -6t-15 -16t-5.5 -21q0 -9 5 -18.5t13.5 -16.5t20.5 -8q-1 -26 -17.5 -45.5t-41.5 -34.5l17 -27q27 13 46.5 35.5t31 50.5t11.5 58q0 20 -12 34.5t-31 14.5zM381 62l22 -62h33v705l-55 -9v-634zM391 104q-26 -30 -58 -50.5t-81 -20.5q-54 0 -89 28
t-52 76.5t-17 107.5q1 57 18.5 104t53.5 75t89 28q49 0 81.5 -20.5t57.5 -43.5l20 36q-15 17 -39.5 33.5t-54.5 28.5t-62 12q-71 0 -120.5 -33t-74.5 -90.5t-25 -130.5q0 -75 23.5 -133t71.5 -91t119 -33q32 0 61 9.5t53.5 27.5t44.5 41z" />
    <glyph glyph-name="Dcroat" unicode="&#x110;" horiz-adv-x="663" 
d="M272 312l-9 44h-248l9 -44h248zM320 0q100 0 165 46.5t97.5 125t32.5 172.5q0 93 -29 169t-92.5 121.5t-168.5 45.5h-227v-680h222zM331 635q78 0 128.5 -39.5t75.5 -105.5t25 -147q0 -87 -30 -154.5t-83.5 -105.5t-125.5 -38h-168v590h178z" />
    <glyph glyph-name="dcroat" unicode="&#x111;" horiz-adv-x="514" 
d="M391 104l20 -39q-20 -23 -44.5 -41t-53.5 -27.5t-61 -9.5q-71 0 -119 33t-71.5 91t-23.5 133q0 73 25 130.5t74.5 90.5t120.5 33q32 0 62 -12t54.5 -28.5t39.5 -33.5l-20 -36q-25 23 -57.5 43.5t-81.5 20.5q-53 0 -89 -28t-53.5 -75t-18.5 -104q0 -59 17 -107.5t52 -76.5
t89 -28q49 0 81 20.5t58 50.5zM436 574v-574h-33l-22 62v512h-119l-8 39h127v83l55 9v-92h66l8 -39h-74z" />
    <glyph glyph-name="Emacron" unicode="&#x112;" horiz-adv-x="499" 
d="M479 0l-6 44h-320v284h245l-5 41h-240v269h303l-5 42h-353v-680h381zM154 790h241l-5 43h-236v-43z" />
    <glyph glyph-name="emacron" unicode="&#x113;" horiz-adv-x="486" 
d="M448 241v6q0 72 -23 129t-66 89.5t-106 32.5q-71 0 -119 -33t-72 -90t-24 -130q0 -75 25.5 -133.5t78 -91.5t133.5 -33q28 0 57 5.5t56.5 15t48.5 21.5l-20 41q-31 -16 -65.5 -27t-82.5 -11q-62 0 -100.5 28t-56 75.5t-18.5 105.5h354zM96 280q5 48 22.5 87t49.5 62
t80 23t78 -23t45.5 -62t19.5 -87h-295zM127 640h241l-6 43h-235v-43z" />
    <glyph glyph-name="Edotaccent" unicode="&#x116;" horiz-adv-x="499" 
d="M479 0l-6 44h-320v284h245l-5 41h-240v269h303l-5 42h-353v-680h381zM275 768q17 0 29.5 12.5t12.5 30.5q0 17 -12.5 29.5t-29.5 12.5q-19 0 -31 -12.5t-12 -30.5q0 -17 12 -29.5t31 -12.5z" />
    <glyph glyph-name="edotaccent" unicode="&#x117;" horiz-adv-x="486" 
d="M448 241v6q0 72 -23 129t-66 89.5t-106 32.5q-71 0 -119 -33t-72 -90t-24 -130q0 -75 25.5 -133.5t78 -91.5t133.5 -33q28 0 57 5.5t56.5 15t48.5 21.5l-20 41q-31 -16 -65.5 -27t-82.5 -11q-62 0 -100.5 28t-56 75.5t-18.5 105.5h354zM96 280q5 48 22.5 87t49.5 62
t80 23t78 -23t45.5 -62t19.5 -87h-295zM251 618q17 0 29.5 12.5t12.5 30.5q0 17 -12.5 29.5t-29.5 12.5q-19 0 -31 -12.5t-12 -30.5q0 -17 12 -29.5t31 -12.5z" />
    <glyph glyph-name="Eogonek" unicode="&#x118;" horiz-adv-x="499" 
d="M479 0l-6 44h-320v284h245l-5 41h-240v269h303l-5 42h-353v-680h381zM365 4q-18 -15 -33 -34.5t-23 -40.5t-8 -40q0 -28 14 -50t37.5 -34t53.5 -12q25 0 46 8.5t34 21.5l-22 32q-12 -10 -25.5 -15.5t-29.5 -5.5q-19 0 -38.5 13t-19.5 43q0 21 7 40.5t19.5 37.5t30.5 32z
" />
    <glyph glyph-name="eogonek" unicode="&#x119;" horiz-adv-x="486" 
d="M448 241v6q0 72 -23 129t-66 89.5t-106 32.5q-71 0 -119 -33t-72 -90t-24 -130q0 -75 25.5 -133.5t78 -91.5t133.5 -33q28 0 57 5.5t56.5 15t48.5 21.5l-20 41q-31 -16 -65.5 -27t-82.5 -11q-62 0 -100.5 28t-56 75.5t-18.5 105.5h354zM96 280q5 48 22.5 87t49.5 62
t80 23t78 -23t45.5 -62t19.5 -87h-295zM311 4q-18 -15 -33 -34.5t-23 -40.5t-8 -40q0 -28 14 -50t37.5 -34t53.5 -12q25 0 46 8.5t34 21.5l-22 32q-12 -10 -25.5 -15.5t-29.5 -5.5q-19 0 -38.5 13t-19.5 43q0 21 7 40.5t19.5 37.5t30.5 32z" />
    <glyph glyph-name="Ecaron" unicode="&#x11a;" horiz-adv-x="499" 
d="M479 0l-6 44h-320v284h245l-5 41h-240v269h303l-5 42h-353v-680h381zM278 778l-80 114l-49 -10l104 -143h49l103 141l-47 12z" />
    <glyph glyph-name="ecaron" unicode="&#x11b;" horiz-adv-x="486" 
d="M448 241v6q0 72 -23 129t-66 89.5t-106 32.5q-71 0 -119 -33t-72 -90t-24 -130q0 -75 25.5 -133.5t78 -91.5t133.5 -33q28 0 57 5.5t56.5 15t48.5 21.5l-20 41q-31 -16 -65.5 -27t-82.5 -11q-62 0 -100.5 28t-56 75.5t-18.5 105.5h354zM96 280q5 48 22.5 87t49.5 62
t80 23t78 -23t45.5 -62t19.5 -87h-295zM251 628l-80 114l-49 -10l104 -143h49l103 141l-47 12z" />
    <glyph glyph-name="Gbreve" unicode="&#x11e;" horiz-adv-x="620" 
d="M353 300h153v-242q-25 -9 -55.5 -16t-66.5 -7q-79 0 -141.5 37.5t-98.5 106t-36 157.5q0 71 22.5 128t62 98t90.5 63t110 22q36 0 60.5 -3.5t44.5 -10t40 -15.5l19 39q-18 13 -49.5 21t-63.5 12t-53 4q-73 0 -136 -26t-109 -74t-72 -113.5t-26 -144.5q0 -99 41 -178.5
t117 -125.5t179 -46q30 0 63 6t63.5 16.5t49.5 22.5v311h-202zM467 881q0 -33 -22.5 -60t-63.5 -27q-42 0 -64.5 27.5t-22.5 59.5h-43q0 -33 14.5 -63t43 -48.5t72.5 -18.5q45 0 73.5 18.5t42.5 48.5t14 63h-44z" />
    <glyph glyph-name="gbreve" unicode="&#x11f;" horiz-adv-x="510" 
d="M436 485h-33l-22 -65v-487q0 -60 -42 -88.5t-103 -28.5q-49 1 -81.5 11t-62.5 24l-19 -40q14 -9 36 -16.5t46 -13t46 -8.5t37 -3q64 0 108 22t67 60t23 86v547zM391 104q-26 -30 -58 -50.5t-81 -20.5q-54 0 -89 28t-52 76.5t-17 107.5q1 57 18.5 104t53.5 75t89 28
q49 0 81.5 -20.5t57.5 -43.5l20 36q-15 17 -39.5 33.5t-54.5 28.5t-62 12q-71 0 -120.5 -33t-74.5 -90.5t-25 -130.5q0 -75 23.5 -133t71.5 -91t119 -33q32 0 61 9.5t53.5 27.5t44.5 41zM336 731q0 -33 -22.5 -60t-63.5 -27q-42 0 -64.5 27.5t-22.5 59.5h-43q0 -33 14.5 -63
t43 -48.5t72.5 -18.5q45 0 73.5 18.5t42.5 48.5t14 63h-44z" />
    <glyph glyph-name="Gcommaaccent" unicode="&#x122;" horiz-adv-x="620" 
d="M353 300h153v-242q-25 -9 -55.5 -16t-66.5 -7q-79 0 -141.5 37.5t-98.5 106t-36 157.5q0 71 22.5 128t62 98t90.5 63t110 22q36 0 60.5 -3.5t44.5 -10t40 -15.5l19 39q-18 13 -49.5 21t-63.5 12t-53 4q-73 0 -136 -26t-109 -74t-72 -113.5t-26 -144.5q0 -99 41 -178.5
t117 -125.5t179 -46q30 0 63 6t63.5 16.5t49.5 22.5v311h-202zM386 -23q-12 0 -22 -6t-15.5 -15.5t-5.5 -21.5q0 -13 10.5 -27t28.5 -15q-1 -27 -17.5 -46.5t-41.5 -34.5l17 -27q27 13 46.5 35.5t31 51t11.5 58.5q0 20 -12.5 34t-30.5 14z" />
    <glyph glyph-name="gcommaaccent" unicode="&#x123;" horiz-adv-x="510" 
d="M258 571q13 0 22.5 6t14.5 16t5 21q0 10 -4.5 19t-13 16t-21.5 8q2 26 18.5 45.5t41.5 34.5l-18 28q-26 -13 -46 -35.5t-31 -51t-11 -58.5q0 -20 12 -34.5t31 -14.5zM436 485h-33l-22 -65v-487q0 -60 -42 -88.5t-103 -28.5q-49 1 -81.5 11t-62.5 24l-19 -40
q14 -9 36 -16.5t46 -13t46 -8.5t37 -3q64 0 108 22t67 60t23 86v547zM391 104q-26 -30 -58 -50.5t-81 -20.5q-54 0 -89 28t-52 76.5t-17 107.5q1 57 18.5 104t53.5 75t89 28q49 0 81.5 -20.5t57.5 -43.5l20 36q-15 17 -39.5 33.5t-54.5 28.5t-62 12q-71 0 -120.5 -33
t-74.5 -90.5t-25 -130.5q0 -75 23.5 -133t71.5 -91t119 -33q32 0 61 9.5t53.5 27.5t44.5 41z" />
    <glyph glyph-name="Imacron" unicode="&#x12a;" horiz-adv-x="250" 
d="M153 0v680h-55v-680h55zM4 790h241l-5 43h-236v-43z" />
    <glyph glyph-name="imacron" unicode="&#x12b;" horiz-adv-x="191" 
d="M123 0v485h-55v-485h55zM-28 640h241l-6 43h-235v-43z" />
    <glyph glyph-name="Iogonek" unicode="&#x12e;" horiz-adv-x="250" 
d="M100 4q-23 -22 -38.5 -52.5t-15.5 -62.5q0 -28 13.5 -50t37 -34t53.5 -12q25 0 46 8.5t34 21.5l-22 32q-12 -10 -25.5 -15.5t-29.5 -5.5q-19 0 -38 13t-19 43q0 21 7 40.5t19.5 37.5t30.5 32zM153 0v680h-55v-680h55z" />
    <glyph glyph-name="iogonek" unicode="&#x12f;" horiz-adv-x="191" 
d="M71 4q-24 -22 -39.5 -52.5t-15.5 -62.5q0 -28 14 -50t37.5 -34t53.5 -12q25 0 46 8.5t34 21.5l-22 32q-12 -10 -25.5 -15.5t-29.5 -5.5q-19 0 -38.5 13t-19.5 43q0 21 7 40.5t20 37.5t30 32zM123 0v485h-55v-485h55zM96 618q17 0 30 12.5t13 30.5q0 17 -13 29.5t-30 12.5
q-19 0 -31 -12.5t-12 -30.5q0 -17 12 -29.5t31 -12.5z" />
    <glyph glyph-name="Idotaccent" unicode="&#x130;" horiz-adv-x="250" 
d="M153 0v680h-55v-680h55zM125 768q17 0 29.5 12.5t12.5 30.5q0 17 -12.5 29.5t-29.5 12.5q-19 0 -31 -12.5t-12 -30.5q0 -17 12 -29.5t31 -12.5z" />
    <glyph glyph-name="dotlessi" unicode="&#x131;" horiz-adv-x="191" 
d="M123 0v485h-55v-485h55z" />
    <glyph glyph-name="Kcommaaccent" unicode="&#x136;" horiz-adv-x="586" 
d="M508 0l-271 352l-84 -89v-263h-55v680h55v-350l340 365l37 -35l-256 -269l302 -391h-68zM330 -21q-12 0 -22 -6t-15.5 -15.5t-5.5 -21.5q0 -13 10.5 -27t28.5 -15q-1 -27 -17.5 -46.5t-41.5 -34.5l17 -27q27 13 46.5 35.5t31 51t11.5 58.5q0 20 -12.5 34t-30.5 14z" />
    <glyph glyph-name="kcommaaccent" unicode="&#x137;" horiz-adv-x="453" 
d="M133 0v199l73 74l180 -273h67l-211 309l154 155l-38 34l-225 -233v441l-55 -10v-696h55zM257 -21q-12 0 -22 -6t-15.5 -15.5t-5.5 -21.5q0 -13 10.5 -27t28.5 -15q-1 -27 -17.5 -46.5t-41.5 -34.5l17 -27q27 13 46.5 35.5t31 51t11.5 58.5q0 20 -12.5 34t-30.5 14z" />
    <glyph glyph-name="Lacute" unicode="&#x139;" horiz-adv-x="494" 
d="M479 44h-326v636h-55v-680h386zM157 739l85 153h-66l-55 -141z" />
    <glyph glyph-name="lacute" unicode="&#x13a;" horiz-adv-x="210" 
d="M133 0v684l-55 -10v-674h55zM119 739l85 153h-65l-55 -141z" />
    <glyph glyph-name="Lcommaaccent" unicode="&#x13b;" horiz-adv-x="494" 
d="M479 44h-326v636h-55v-680h386zM309 -21q-12 0 -22 -6t-15.5 -15.5t-5.5 -21.5q0 -13 10.5 -27t28.5 -15q-1 -27 -17.5 -46.5t-41.5 -34.5l17 -27q27 13 46.5 35.5t31 51t11.5 58.5q0 20 -12.5 34t-30.5 14z" />
    <glyph glyph-name="lcommaaccent" unicode="&#x13c;" horiz-adv-x="210" 
d="M133 0v706l-55 -10v-696h55zM107 -21q-12 0 -22 -6t-15.5 -15.5t-5.5 -21.5q0 -13 10.5 -27t28.5 -15q-1 -27 -17.5 -46.5t-41.5 -34.5l17 -27q27 13 46.5 35.5t31 51t11.5 58.5q0 20 -12.5 34t-30.5 14z" />
    <glyph glyph-name="Lcaron" unicode="&#x13d;" horiz-adv-x="494" 
d="M479 44h-326v636h-55v-680h386zM373 702q-13 0 -22.5 -6t-15 -16t-5.5 -21q0 -9 4.5 -18.5t13.5 -16.5t21 -8q-2 -26 -18 -45.5t-41 -34.5l17 -27q27 13 46.5 35.5t31 50.5t11.5 58q0 20 -12.5 34.5t-30.5 14.5z" />
    <glyph glyph-name="lcaron" unicode="&#x13e;" horiz-adv-x="338" 
d="M265 702q-13 0 -22.5 -6t-15 -16t-5.5 -21q0 -9 4.5 -18.5t13.5 -16.5t21 -8q-2 -26 -18 -45.5t-41 -34.5l17 -27q26 13 46 35.5t31.5 50.5t11.5 58q0 20 -12.5 34.5t-30.5 14.5zM133 0v706l-55 -10v-696h55z" />
    <glyph glyph-name="Lslash" unicode="&#x141;" horiz-adv-x="489" 
d="M93 0v266l-55 -48l-26 37l81 70v355h55v-307l113 99l26 -35l-139 -122v-271h326l5 -44h-386z" />
    <glyph glyph-name="lslash" unicode="&#x142;" horiz-adv-x="274" 
d="M249 482l-84 -74v298l-55 -10v-336l-110 -95l26 -38l84 74v-301h55v349l109 97z" />
    <glyph glyph-name="Nacute" unicode="&#x143;" horiz-adv-x="670" 
d="M153 0v568l14 -29l372 -539h34v680h-56v-561l-34 59l-351 502h-34v-680h55zM339 739l85 153h-66l-55 -141z" />
    <glyph glyph-name="nacute" unicode="&#x144;" 
d="M123 0v353q25 29 55 51t60.5 34.5t57.5 12.5q54 0 73.5 -35t19.5 -85v-331h55v337q0 47 -15 83t-47.5 57t-84.5 21q-30 0 -62.5 -12t-62 -32t-50.5 -44l-10 75h-44v-485h55zM255 589l85 153h-66l-55 -141z" />
    <glyph glyph-name="Ncommaaccent" unicode="&#x145;" horiz-adv-x="670" 
d="M153 0v568l14 -29l372 -539h34v680h-56v-561l-34 59l-351 502h-34v-680h55zM352 -21q-12 0 -22 -6t-15.5 -15.5t-5.5 -21.5q0 -13 10.5 -27t28.5 -15q-1 -27 -17.5 -46.5t-41.5 -34.5l17 -27q27 13 46.5 35.5t31 51t11.5 58.5q0 20 -12.5 34t-30.5 14z" />
    <glyph glyph-name="ncommaaccent" unicode="&#x146;" 
d="M123 0v353q25 29 55 51t60.5 34.5t57.5 12.5q54 0 73.5 -35t19.5 -85v-331h55v337q0 47 -15 83t-47.5 57t-84.5 21q-30 0 -62.5 -12t-62 -32t-50.5 -44l-10 75h-44v-485h55zM260 -21q-12 0 -22 -6t-15.5 -15.5t-5.5 -21.5q0 -13 10.5 -27t28.5 -15q-1 -27 -17.5 -46.5
t-41.5 -34.5l17 -27q27 13 46.5 35.5t31 51t11.5 58.5q0 20 -12.5 34t-30.5 14z" />
    <glyph glyph-name="Ncaron" unicode="&#x147;" horiz-adv-x="670" 
d="M153 0v568l14 -29l372 -539h34v680h-56v-561l-34 59l-351 502h-34v-680h55zM336 778l-80 114l-49 -10l104 -143h49l103 141l-47 12z" />
    <glyph glyph-name="ncaron" unicode="&#x148;" 
d="M123 0v353q25 29 55 51t60.5 34.5t57.5 12.5q54 0 73.5 -35t19.5 -85v-331h55v337q0 47 -15 83t-47.5 57t-84.5 21q-30 0 -62.5 -12t-62 -32t-50.5 -44l-10 75h-44v-485h55zM264 628l-80 114l-49 -10l104 -143h49l103 141l-47 12z" />
    <glyph glyph-name="Omacron" unicode="&#x14c;" horiz-adv-x="713" 
d="M354 -14q-89 0 -158 45t-108.5 124.5t-39.5 181.5q0 103 40 184t110.5 127.5t161.5 47.5q88 0 157.5 -45t109 -124.5t39.5 -181.5q0 -103 -40.5 -184t-110.5 -127.5t-161 -47.5zM352 33q74 0 131 40.5t89.5 110.5t32.5 160q0 88 -31.5 156.5t-86.5 108t-126 39.5
q-73 0 -130.5 -40.5t-90 -110t-32.5 -159.5q0 -88 31.5 -157t86.5 -108.5t126 -39.5zM238 790h241l-5 43h-236v-43z" />
    <glyph glyph-name="omacron" unicode="&#x14d;" horiz-adv-x="525" 
d="M259 -13q-72 0 -121 33.5t-74.5 91.5t-25.5 133q0 72 27.5 129t78.5 90.5t122 33.5q72 0 121 -32.5t74.5 -90t25.5 -135.5q0 -72 -27.5 -129t-78.5 -90t-122 -34zM260 33q54 0 92 28t58.5 75t20.5 103q0 60 -19 108t-55.5 76.5t-91.5 28.5q-53 0 -91.5 -28t-58.5 -74.5
t-21 -103.5q0 -59 19 -107.5t56 -77t91 -28.5zM140 640h241l-6 43h-235v-43z" />
    <glyph glyph-name="Ohungarumlaut" unicode="&#x150;" horiz-adv-x="713" 
d="M354 -14q-89 0 -158 45t-108.5 124.5t-39.5 181.5q0 103 40 184t110.5 127.5t161.5 47.5q88 0 157.5 -45t109 -124.5t39.5 -181.5q0 -103 -40.5 -184t-110.5 -127.5t-161 -47.5zM352 33q74 0 131 40.5t89.5 110.5t32.5 160q0 88 -31.5 156.5t-86.5 108t-126 39.5
q-73 0 -130.5 -40.5t-90 -110t-32.5 -159.5q0 -88 31.5 -157t86.5 -108.5t126 -39.5zM298 739l85 153h-66l-55 -141zM431 739l85 153h-65l-55 -141z" />
    <glyph glyph-name="ohungarumlaut" unicode="&#x151;" horiz-adv-x="525" 
d="M259 -13q-72 0 -121 33.5t-74.5 91.5t-25.5 133q0 72 27.5 129t78.5 90.5t122 33.5q72 0 121 -32.5t74.5 -90t25.5 -135.5q0 -72 -27.5 -129t-78.5 -90t-122 -34zM260 33q54 0 92 28t58.5 75t20.5 103q0 60 -19 108t-55.5 76.5t-91.5 28.5q-53 0 -91.5 -28t-58.5 -74.5
t-21 -103.5q0 -59 19 -107.5t56 -77t91 -28.5zM204 589l85 153h-66l-55 -141zM337 589l85 153h-65l-55 -141z" />
    <glyph glyph-name="OE" unicode="&#x152;" horiz-adv-x="901" 
d="M526 657q-19 13 -50 21t-62.5 12t-52.5 4q-73 0 -131.5 -27.5t-98.5 -76.5t-61.5 -114t-21.5 -140q0 -69 19 -132t56.5 -112t95.5 -77.5t136 -28.5q29 0 61.5 5t61.5 13.5t48 18.5l-24 42q-27 -12 -61.5 -21t-88.5 -9q-58 0 -103.5 24t-76.5 66t-47.5 96.5t-16.5 115.5
q0 92 33.5 161.5t91 108.5t128.5 39q36 0 60.5 -4t44.5 -10.5t40 -15.5zM881 0l-6 44h-320v284h245l-5 41h-240v269h303l-5 42h-353v-680h381z" />
    <glyph glyph-name="oe" unicode="&#x153;" horiz-adv-x="766" 
d="M729 241h-354q1 -58 18.5 -105.5t55.5 -75.5t101 -28q48 0 82 11t65 27l20 -41q-21 -12 -48 -21.5t-56 -15t-58 -5.5q-45 0 -81 10.5t-64 29.5q-20 -12 -44.5 -21t-51.5 -14t-54 -5q-71 0 -120.5 33t-75.5 91.5t-26 133.5q0 73 27.5 130t79 90t122.5 33q24 0 49 -4.5
t49 -13t44 -19.5q24 17 55.5 27t69.5 10q62 0 105.5 -33.5t66.5 -90.5t23 -129v-4zM377 280h295q-4 48 -19.5 87t-45.5 62t-78 23t-80 -23t-49.5 -62t-22.5 -87zM94 246q0 -59 19 -107.5t56 -77t91 -28.5q43 0 68.5 8t47.5 18q-29 35 -43.5 82t-14.5 104q0 56 14.5 103
t42.5 81q-21 9 -46.5 16t-63.5 7q-53 0 -91.5 -28t-58.5 -74.5t-21 -103.5z" />
    <glyph glyph-name="Racute" unicode="&#x154;" horiz-adv-x="576" 
d="M269 634q52 0 94 -13.5t67.5 -46t25.5 -90.5q0 -56 -29 -90t-73.5 -48.5t-95.5 -14.5h-105v303h116zM98 680v-680h55v286h103q21 0 43 2t42 6l163 -294h62l-177 309q54 21 88 64t35 113q0 72 -32 114.5t-87 61t-126 18.5h-169zM271 739l85 153h-66l-55 -141z" />
    <glyph glyph-name="racute" unicode="&#x155;" horiz-adv-x="306" 
d="M123 0v352q19 21 47.5 41.5t62 34.5t63.5 14l-17 43q-25 0 -55.5 -13t-58 -31t-45.5 -33l-18 77h-34v-485h55zM146 589l85 153h-66l-55 -141z" />
    <glyph glyph-name="Rcommaaccent" unicode="&#x156;" horiz-adv-x="576" 
d="M269 634q52 0 94 -13.5t67.5 -46t25.5 -90.5q0 -56 -29 -90t-73.5 -48.5t-95.5 -14.5h-105v303h116zM98 680v-680h55v286h103q21 0 43 2t42 6l163 -294h62l-177 309q54 21 88 64t35 113q0 72 -32 114.5t-87 61t-126 18.5h-169zM327 -21q-12 0 -22 -6t-15.5 -15.5
t-5.5 -21.5q0 -13 10.5 -27t28.5 -15q-1 -27 -17.5 -46.5t-41.5 -34.5l17 -27q27 13 46.5 35.5t31 51t11.5 58.5q0 20 -12.5 34t-30.5 14z" />
    <glyph glyph-name="rcommaaccent" unicode="&#x157;" horiz-adv-x="306" 
d="M123 0v352q19 21 47.5 41.5t62 34.5t63.5 14l-17 43q-25 0 -55.5 -13t-58 -31t-45.5 -33l-18 77h-34v-485h55zM97 -21q-12 0 -22 -6t-15.5 -15.5t-5.5 -21.5q0 -13 10.5 -27t28.5 -15q-1 -27 -17.5 -46.5t-41.5 -34.5l17 -27q27 13 46.5 35.5t31 51t11.5 58.5
q0 20 -12.5 34t-30.5 14z" />
    <glyph glyph-name="Rcaron" unicode="&#x158;" horiz-adv-x="576" 
d="M269 634q52 0 94 -13.5t67.5 -46t25.5 -90.5q0 -56 -29 -90t-73.5 -48.5t-95.5 -14.5h-105v303h116zM98 680v-680h55v286h103q21 0 43 2t42 6l163 -294h62l-177 309q54 21 88 64t35 113q0 72 -32 114.5t-87 61t-126 18.5h-169zM268 778l-80 114l-49 -10l104 -143h49
l103 141l-47 12z" />
    <glyph glyph-name="rcaron" unicode="&#x159;" horiz-adv-x="306" 
d="M123 0v352q19 21 47.5 41.5t62 34.5t63.5 14l-17 43q-25 0 -55.5 -13t-58 -31t-45.5 -33l-18 77h-34v-485h55zM155 628l-80 114l-49 -10l104 -143h49l103 141l-47 12z" />
    <glyph glyph-name="Sacute" unicode="&#x15a;" horiz-adv-x="506" 
d="M55 29q13 -8 34.5 -15.5t48 -13.5t52.5 -9.5t47 -3.5q74 0 125.5 22t78.5 60.5t27 88.5q0 36 -11.5 64t-34 51t-57 43.5t-79.5 40.5q-59 27 -100.5 52t-62.5 54t-21 67q0 52 42 86t114 34q35 0 60.5 -5t46 -13t37.5 -16l22 41q-30 15 -74 27t-94 12q-64 0 -110.5 -21.5
t-72 -58.5t-25.5 -83q0 -34 12 -63.5t35 -54.5t57 -46.5t79 -39.5q60 -25 101 -49.5t61 -53t20 -66.5q0 -34 -20.5 -63t-59.5 -46.5t-97 -17.5q-33 0 -64.5 6t-57.5 15.5t-44 17.5zM260 739l85 153h-66l-55 -141z" />
    <glyph glyph-name="sacute" unicode="&#x15b;" horiz-adv-x="412" 
d="M42 25q19 -12 45.5 -20.5t54.5 -13t48 -4.5q93 0 138.5 36t45.5 100q0 37 -22 64t-57 47.5t-75 35.5q-50 18 -86.5 41t-36.5 57q0 35 31.5 60t82.5 25q45 0 75.5 -12t50.5 -22l20 39q-16 12 -41.5 21t-52 14t-47.5 5q-82 0 -127 -37t-45 -97q0 -34 21.5 -60.5t55.5 -45
t71 -32.5q36 -13 65.5 -28.5t47 -35t17.5 -43.5q0 -27 -16 -46.5t-45 -30t-69 -10.5q-25 0 -48.5 5.5t-44.5 14t-39 16.5zM207 589l85 153h-66l-55 -141z" />
    <glyph glyph-name="Scedilla" unicode="&#x15e;" horiz-adv-x="506" 
d="M55 29q13 -8 34.5 -15.5t48 -13.5t52.5 -9.5t47 -3.5q74 0 125.5 22t78.5 60.5t27 88.5q0 36 -11.5 64t-34 51t-57 43.5t-79.5 40.5q-59 27 -100.5 52t-62.5 54t-21 67q0 52 42 86t114 34q35 0 60.5 -5t46 -13t37.5 -16l22 41q-30 15 -74 27t-94 12q-64 0 -110.5 -21.5
t-72 -58.5t-25.5 -83q0 -34 12 -63.5t35 -54.5t57 -46.5t79 -39.5q60 -25 101 -49.5t61 -53t20 -66.5q0 -34 -20.5 -63t-59.5 -46.5t-97 -17.5q-33 0 -64.5 6t-57.5 15.5t-44 17.5zM184 -79q28 -1 49.5 -9.5t33 -21t11.5 -26.5q0 -19 -19 -31.5t-45 -12.5q-16 0 -33 5t-26 9
l-15 -36q13 -8 35.5 -13.5t40.5 -5.5q31 0 56 10t39.5 30t14.5 47q0 18 -10 35t-29.5 30t-46.5 17l26 65h-47z" />
    <glyph glyph-name="scedilla" unicode="&#x15f;" horiz-adv-x="412" 
d="M42 25q19 -12 45.5 -20.5t54.5 -13t48 -4.5q93 0 138.5 36t45.5 100q0 37 -22 64t-57 47.5t-75 35.5q-50 18 -86.5 41t-36.5 57q0 35 31.5 60t82.5 25q45 0 75.5 -12t50.5 -22l20 39q-16 12 -41.5 21t-52 14t-47.5 5q-82 0 -127 -37t-45 -97q0 -34 21.5 -60.5t55.5 -45
t71 -32.5q36 -13 65.5 -28.5t47 -35t17.5 -43.5q0 -27 -16 -46.5t-45 -30t-69 -10.5q-25 0 -48.5 5.5t-44.5 14t-39 16.5zM139 -79q28 -1 49.5 -9.5t33 -21t11.5 -26.5q0 -19 -19 -31.5t-45 -12.5q-16 0 -33 5t-26 9l-15 -36q13 -8 35.5 -13.5t40.5 -5.5q31 0 56 10t39.5 30
t14.5 47q0 18 -10 35t-29.5 30t-46.5 17l26 65h-47z" />
    <glyph glyph-name="Scaron" unicode="&#x160;" horiz-adv-x="506" 
d="M55 29q13 -8 34.5 -15.5t48 -13.5t52.5 -9.5t47 -3.5q74 0 125.5 22t78.5 60.5t27 88.5q0 36 -11.5 64t-34 51t-57 43.5t-79.5 40.5q-59 27 -100.5 52t-62.5 54t-21 67q0 52 42 86t114 34q35 0 60.5 -5t46 -13t37.5 -16l22 41q-30 15 -74 27t-94 12q-64 0 -110.5 -21.5
t-72 -58.5t-25.5 -83q0 -34 12 -63.5t35 -54.5t57 -46.5t79 -39.5q60 -25 101 -49.5t61 -53t20 -66.5q0 -34 -20.5 -63t-59.5 -46.5t-97 -17.5q-33 0 -64.5 6t-57.5 15.5t-44 17.5zM258 778l-80 114l-49 -10l104 -143h49l103 141l-47 12z" />
    <glyph glyph-name="scaron" unicode="&#x161;" horiz-adv-x="412" 
d="M42 25q19 -12 45.5 -20.5t54.5 -13t48 -4.5q93 0 138.5 36t45.5 100q0 37 -22 64t-57 47.5t-75 35.5q-50 18 -86.5 41t-36.5 57q0 35 31.5 60t82.5 25q45 0 75.5 -12t50.5 -22l20 39q-16 12 -41.5 21t-52 14t-47.5 5q-82 0 -127 -37t-45 -97q0 -34 21.5 -60.5t55.5 -45
t71 -32.5q36 -13 65.5 -28.5t47 -35t17.5 -43.5q0 -27 -16 -46.5t-45 -30t-69 -10.5q-25 0 -48.5 5.5t-44.5 14t-39 16.5zM215 628l-80 114l-49 -10l104 -143h49l103 141l-47 12z" />
    <glyph glyph-name="Tcedilla" unicode="&#x162;" horiz-adv-x="543" 
d="M528 680h-518v-44h233v-636h56v636h234zM219 -79q28 -1 49.5 -9.5t33 -21t11.5 -26.5q0 -19 -19 -31.5t-45 -12.5q-16 0 -33 5t-26 9l-15 -36q13 -8 35.5 -13.5t40.5 -5.5q31 0 56 10t39.5 30t14.5 47q0 18 -10 35t-29.5 30t-46.5 17l26 65h-47z" />
    <glyph glyph-name="tcedilla" unicode="&#x163;" horiz-adv-x="295" 
d="M234 472h-88v151l-55 -22v-129h-72v-41h72v-315q0 -42 13.5 -70.5t38.5 -43.5t58 -15q13 0 25.5 2t23 5l17.5 5l-12 44q-5 -2 -17.5 -5.5t-23.5 -3.5q-37 0 -52.5 26.5t-15.5 62.5v308h109zM128 -79q28 -1 49.5 -9.5t33 -21t11.5 -26.5q0 -19 -19 -31.5t-45 -12.5
q-16 0 -33 5t-26 9l-15 -36q13 -8 35.5 -13.5t40.5 -5.5q31 0 56 10t39.5 30t14.5 47q0 18 -10 35t-29.5 30t-46.5 17l26 65h-47z" />
    <glyph glyph-name="Tcaron" unicode="&#x164;" horiz-adv-x="543" 
d="M528 680h-518v-44h233v-636h56v636h234zM273 778l-80 114l-49 -10l104 -143h49l103 141l-47 12z" />
    <glyph glyph-name="tcaron" unicode="&#x165;" horiz-adv-x="409" 
d="M337 702q-13 0 -23 -6t-15.5 -16t-5.5 -21q0 -9 5 -18.5t13.5 -16.5t20.5 -8q-1 -26 -17.5 -45.5t-40.5 -34.5l16 -27q27 13 46.5 35.5t31 50.5t11.5 58q0 20 -12 34.5t-30 14.5zM234 472h-88v151l-55 -22v-129h-72v-41h72v-315q0 -42 13.5 -70.5t38.5 -43.5t58 -15
q13 0 25.5 2t23 5l17.5 5l-12 44q-5 -2 -17.5 -5.5t-23.5 -3.5q-37 0 -52.5 26.5t-15.5 62.5v308h109z" />
    <glyph glyph-name="Umacron" unicode="&#x16a;" horiz-adv-x="665" 
d="M143 680h-55v-441q0 -72 29 -129t84 -89.5t131 -32.5q78 0 132.5 32.5t83.5 89.5t29 129v441h-55v-438q0 -58 -22.5 -105t-65 -74.5t-102.5 -27.5q-57 0 -99.5 27.5t-66 74.5t-23.5 105v438zM210 790h241l-5 43h-236v-43z" />
    <glyph glyph-name="umacron" unicode="&#x16b;" 
d="M385 485v-353q-26 -28 -56 -50.5t-60.5 -35t-57.5 -12.5q-54 0 -73 35t-19 85v331h-55v-337q0 -46 14.5 -82.5t47 -57.5t84.5 -21q30 0 63 12t63 32.5t50 44.5l10 -76h44v485h-55zM124 640h241l-6 43h-235v-43z" />
    <glyph glyph-name="Uring" unicode="&#x16e;" horiz-adv-x="665" 
d="M143 680h-55v-441q0 -72 29 -129t84 -89.5t131 -32.5q78 0 132.5 32.5t83.5 89.5t29 129v441h-55v-438q0 -58 -22.5 -105t-65 -74.5t-102.5 -27.5q-57 0 -99.5 27.5t-66 74.5t-23.5 105v438zM332 909q-24 0 -44 -11t-32.5 -30t-12.5 -43q0 -35 26.5 -58t62.5 -23
q24 0 44 10.5t32 29t12 41.5q0 24 -12 43t-32 30t-44 11zM332 778q-20 0 -33.5 13.5t-13.5 33.5q0 21 13.5 35t33.5 14t33.5 -14t13.5 -35q0 -20 -13.5 -33.5t-33.5 -13.5z" />
    <glyph glyph-name="uring" unicode="&#x16f;" 
d="M385 485v-353q-26 -28 -56 -50.5t-60.5 -35t-57.5 -12.5q-54 0 -73 35t-19 85v331h-55v-337q0 -46 14.5 -82.5t47 -57.5t84.5 -21q30 0 63 12t63 32.5t50 44.5l10 -76h44v485h-55zM248 759q-24 0 -44 -11t-32.5 -30t-12.5 -43q0 -35 26.5 -58t62.5 -23q24 0 44 10.5
t32 29t12 41.5q0 24 -12 43t-32 30t-44 11zM248 628q-20 0 -33.5 13.5t-13.5 33.5q0 21 13.5 35t33.5 14t33.5 -14t13.5 -35q0 -20 -13.5 -33.5t-33.5 -13.5z" />
    <glyph glyph-name="Uhungarumlaut" unicode="&#x170;" horiz-adv-x="665" 
d="M143 680h-55v-441q0 -72 29 -129t84 -89.5t131 -32.5q78 0 132.5 32.5t83.5 89.5t29 129v441h-55v-438q0 -58 -22.5 -105t-65 -74.5t-102.5 -27.5q-57 0 -99.5 27.5t-66 74.5t-23.5 105v438zM270 739l85 153h-66l-55 -141zM403 739l85 153h-65l-55 -141z" />
    <glyph glyph-name="uhungarumlaut" unicode="&#x171;" 
d="M385 485v-353q-26 -28 -56 -50.5t-60.5 -35t-57.5 -12.5q-54 0 -73 35t-19 85v331h-55v-337q0 -46 14.5 -82.5t47 -57.5t84.5 -21q30 0 63 12t63 32.5t50 44.5l10 -76h44v485h-55zM187 589l85 153h-66l-55 -141zM320 589l85 153h-65l-55 -141z" />
    <glyph glyph-name="Uogonek" unicode="&#x172;" horiz-adv-x="665" 
d="M143 680h-55v-441q0 -72 29 -129t84 -89.5t131 -32.5q78 0 132.5 32.5t83.5 89.5t29 129v441h-55v-438q0 -58 -22.5 -105t-65 -74.5t-102.5 -27.5q-57 0 -99.5 27.5t-66 74.5t-23.5 105v438zM311 4q-18 -15 -33 -34.5t-23 -40.5t-8 -40q0 -28 14 -50t37.5 -34t53.5 -12
q25 0 46 8.5t34 21.5l-22 32q-12 -10 -25.5 -15.5t-29.5 -5.5q-19 0 -38.5 13t-19.5 43q0 21 7 40.5t19.5 37.5t30.5 32z" />
    <glyph glyph-name="uogonek" unicode="&#x173;" 
d="M397 4q-18 -15 -33 -34.5t-23 -40.5t-8 -40q0 -28 13.5 -50t37 -34t53.5 -12q25 0 46 8.5t34 21.5l-22 32q-12 -10 -25.5 -15.5t-29.5 -5.5q-19 0 -38 13t-19 43q0 21 7 40.5t19.5 37.5t30.5 32zM385 485v-353q-26 -28 -56 -50.5t-60.5 -35t-57.5 -12.5q-54 0 -73 35
t-19 85v331h-55v-337q0 -46 14.5 -82.5t47 -57.5t84.5 -21q30 0 63 12t63 32.5t50 44.5l10 -76h44v485h-55z" />
    <glyph glyph-name="Ydieresis" unicode="&#x178;" horiz-adv-x="537" 
d="M290 0v278l237 402h-61l-204 -352l-200 364l-52 -26l225 -394v-272h55zM180 768q17 0 28.5 11.5t11.5 28.5t-11.5 28t-28.5 11t-28.5 -11t-11.5 -28t11.5 -28.5t28.5 -11.5zM338 768q17 0 28.5 11.5t11.5 28.5t-11.5 28t-28.5 11q-18 0 -29 -11t-11 -28t11 -28.5
t29 -11.5z" />
    <glyph glyph-name="Zacute" unicode="&#x179;" horiz-adv-x="548" 
d="M506 44h-420l435 587l-5 49h-467l10 -44h406l-437 -586l6 -50h477zM280 739l85 153h-66l-55 -141z" />
    <glyph glyph-name="zacute" unicode="&#x17a;" horiz-adv-x="432" 
d="M403 485h-348l16 -43h270l-315 -411l8 -31h366l-10 42h-302l318 411zM218 589l85 153h-66l-55 -141z" />
    <glyph glyph-name="Zdotaccent" unicode="&#x17b;" horiz-adv-x="548" 
d="M506 44h-420l435 587l-5 49h-467l10 -44h406l-437 -586l6 -50h477zM275 768q17 0 29.5 12.5t12.5 30.5q0 17 -12.5 29.5t-29.5 12.5q-19 0 -31 -12.5t-12 -30.5q0 -17 12 -29.5t31 -12.5z" />
    <glyph glyph-name="zdotaccent" unicode="&#x17c;" horiz-adv-x="432" 
d="M403 485h-348l16 -43h270l-315 -411l8 -31h366l-10 42h-302l318 411zM226 618q17 0 29.5 12.5t12.5 30.5q0 17 -12.5 29.5t-29.5 12.5q-19 0 -31 -12.5t-12 -30.5q0 -17 12 -29.5t31 -12.5z" />
    <glyph glyph-name="Zcaron" unicode="&#x17d;" horiz-adv-x="548" 
d="M506 44h-420l435 587l-5 49h-467l10 -44h406l-437 -586l6 -50h477zM278 778l-80 114l-49 -10l104 -143h49l103 141l-47 12z" />
    <glyph glyph-name="zcaron" unicode="&#x17e;" horiz-adv-x="432" 
d="M403 485h-348l16 -43h270l-315 -411l8 -31h366l-10 42h-302l318 411zM226 628l-80 114l-49 -10l104 -143h49l103 141l-47 12z" />
    <glyph glyph-name="florin" unicode="&#x192;" horiz-adv-x="299" 
d="M49 472v-41h73v-367q0 -36 -16 -59t-54 -23q-9 0 -21.5 3t-18.5 6l-12 -44q7 -2 17 -5.5t23 -5.5t26 -2q36 0 61 17.5t37.5 48.5t12.5 73v358h109l-21 41h-88v100q0 36 15.5 59t53.5 23q10 0 22.5 -3t18.5 -6l12 44q-6 3 -16.5 6t-23 5t-26.5 2q-36 0 -61 -17
t-37.5 -48.5t-12.5 -73.5v-91h-73z" />
    <glyph glyph-name="Scommaaccent" unicode="&#x218;" horiz-adv-x="506" 
d="M55 29q13 -8 34.5 -15.5t48 -13.5t52.5 -9.5t47 -3.5q74 0 125.5 22t78.5 60.5t27 88.5q0 36 -11.5 64t-34 51t-57 43.5t-79.5 40.5q-59 27 -100.5 52t-62.5 54t-21 67q0 52 42 86t114 34q35 0 60.5 -5t46 -13t37.5 -16l22 41q-30 15 -74 27t-94 12q-64 0 -110.5 -21.5
t-72 -58.5t-25.5 -83q0 -34 12 -63.5t35 -54.5t57 -46.5t79 -39.5q60 -25 101 -49.5t61 -53t20 -66.5q0 -34 -20.5 -63t-59.5 -46.5t-97 -17.5q-33 0 -64.5 6t-57.5 15.5t-44 17.5zM239 -24q-12 0 -22 -6t-15.5 -15.5t-5.5 -21.5q0 -13 10.5 -27t28.5 -15
q-1 -27 -17.5 -46.5t-41.5 -34.5l17 -27q27 13 46.5 35.5t31 51t11.5 58.5q0 20 -12.5 34t-30.5 14z" />
    <glyph glyph-name="scommaaccent" unicode="&#x219;" horiz-adv-x="412" 
d="M42 25q19 -12 45.5 -20.5t54.5 -13t48 -4.5q93 0 138.5 36t45.5 100q0 37 -22 64t-57 47.5t-75 35.5q-50 18 -86.5 41t-36.5 57q0 35 31.5 60t82.5 25q45 0 75.5 -12t50.5 -22l20 39q-16 12 -41.5 21t-52 14t-47.5 5q-82 0 -127 -37t-45 -97q0 -34 21.5 -60.5t55.5 -45
t71 -32.5q36 -13 65.5 -28.5t47 -35t17.5 -43.5q0 -27 -16 -46.5t-45 -30t-69 -10.5q-25 0 -48.5 5.5t-44.5 14t-39 16.5zM194 -25q-12 0 -22 -6t-15.5 -15.5t-5.5 -21.5q0 -13 10.5 -27t28.5 -15q-1 -27 -17.5 -46.5t-41.5 -34.5l17 -27q27 13 46.5 35.5t31 51t11.5 58.5
q0 20 -12.5 34t-30.5 14z" />
    <glyph glyph-name="Tcommaaccent" unicode="&#x21a;" horiz-adv-x="543" 
d="M528 680h-518v-44h233v-636h56v636h234zM274 -21q-12 0 -22 -6t-15.5 -15.5t-5.5 -21.5q0 -13 10.5 -27t28.5 -15q-1 -27 -17.5 -46.5t-41.5 -34.5l17 -27q27 13 46.5 35.5t31 51t11.5 58.5q0 20 -12.5 34t-30.5 14z" />
    <glyph glyph-name="tcommaaccent" unicode="&#x21b;" horiz-adv-x="295" 
d="M234 472h-88v151l-55 -22v-129h-72v-41h72v-315q0 -42 13.5 -70.5t38.5 -43.5t58 -15q13 0 25.5 2t23 5l17.5 5l-12 44q-5 -2 -17.5 -5.5t-23.5 -3.5q-37 0 -52.5 26.5t-15.5 62.5v308h109zM182 -25q-12 0 -22 -6t-15.5 -15.5t-5.5 -21.5q0 -13 10.5 -27t28.5 -15
q-1 -27 -17.5 -46.5t-41.5 -34.5l17 -27q27 13 46.5 35.5t31 51t11.5 58.5q0 20 -12.5 34t-30.5 14z" />
    <glyph glyph-name="circumflex" unicode="&#x2c6;" horiz-adv-x="276" 
d="M138 703l79 -114l49 12l-104 141h-49l-103 -143l47 -10z" />
    <glyph glyph-name="caron" unicode="&#x2c7;" horiz-adv-x="276" 
d="M139 628l-80 114l-49 -10l104 -143h49l103 141l-47 12z" />
    <glyph glyph-name="uni02C9" unicode="&#x2c9;" horiz-adv-x="261" 
d="M10 645h241l-6 44h-235v-44z" />
    <glyph glyph-name="breve" unicode="&#x2d8;" horiz-adv-x="280" 
d="M226 731q0 -33 -22.5 -60t-63.5 -27q-42 0 -64.5 27.5t-22.5 59.5h-43q0 -33 14.5 -63t43 -48.5t72.5 -18.5q45 0 73.5 18.5t42.5 48.5t14 63h-44z" />
    <glyph glyph-name="dotaccent" unicode="&#x2d9;" horiz-adv-x="105" 
d="M53 618q17 0 29.5 12.5t12.5 30.5q0 17 -12.5 29.5t-29.5 12.5q-19 0 -31 -12.5t-12 -30.5q0 -17 12 -29.5t31 -12.5z" />
    <glyph glyph-name="ring" unicode="&#x2da;" horiz-adv-x="197" 
d="M99 759q-24 0 -44 -11t-32.5 -30t-12.5 -43q0 -35 26.5 -58t62.5 -23q24 0 44 10.5t32 29t12 41.5q0 24 -12 43t-32 30t-44 11zM99 628q-20 0 -33.5 13.5t-13.5 33.5q0 21 13.5 35t33.5 14t33.5 -14t13.5 -35q0 -20 -13.5 -33.5t-33.5 -13.5z" />
    <glyph glyph-name="ogonek" unicode="&#x2db;" horiz-adv-x="205" 
d="M74 4q-18 -15 -33 -34.5t-23 -40.5t-8 -40q0 -28 14 -50t37.5 -34t53.5 -12q25 0 46 8.5t34 21.5l-22 32q-12 -10 -25.5 -15.5t-29.5 -5.5q-19 0 -38.5 13t-19.5 43q0 21 7 40.5t19.5 37.5t30.5 32z" />
    <glyph glyph-name="tilde" unicode="&#x2dc;" horiz-adv-x="302" 
d="M248 699q-2 -23 -13.5 -35.5t-28.5 -12.5q-13 0 -25 6.5t-23 19.5t-27.5 19.5t-37.5 6.5q-22 0 -41 -9t-30.5 -28.5t-11.5 -53.5h42q2 23 13 36t29 13q13 0 26 -6.5t26 -19.5t28 -20t32 -7q23 0 42 9t30 29.5t11 52.5h-41z" />
    <glyph glyph-name="hungarumlaut" unicode="&#x2dd;" horiz-adv-x="274" 
d="M46 589l85 153h-66l-55 -141zM179 589l85 153h-65l-55 -141z" />
    <glyph glyph-name="pi" unicode="&#x3c0;" horiz-adv-x="554" 
d="M164 0v441h224v-441h56v441h100v44h-534v-44h99v-441h55z" />
    <glyph glyph-name="tm_Anusvara" unicode="&#xb82;" horiz-adv-x="0" 
d="M0 635q31 0 55 13.5t38 36.5t14 52q0 31 -14.5 54t-38.5 36t-54 13q-28 0 -52.5 -13t-39.5 -36t-15 -54q0 -29 15 -52t39 -36.5t53 -13.5zM0 677q-26 0 -43.5 17t-17.5 43q0 27 17.5 44t43.5 17t43.5 -17t17.5 -44q0 -26 -17.5 -43t-43.5 -17z" />
    <glyph glyph-name="tm_Visarga" unicode="&#xb83;" horiz-adv-x="672" 
d="M335 322q30 0 54.5 13t39 36t14.5 53t-15 53.5t-39 36.5t-53 13q-28 0 -52.5 -13t-39.5 -36.5t-15 -53.5t14.5 -53t39 -36t52.5 -13zM336 364q-26 0 -43.5 17t-17.5 43t17.5 43.5t43.5 17.5t43.5 -17.5t17.5 -43.5t-17 -43t-44 -17zM164 -14q30 0 54 13.5t38.5 36.5
t14.5 53t-14.5 53t-39 36t-53.5 13q-28 0 -52 -13t-39 -36t-15 -53t14.5 -53t38.5 -36.5t53 -13.5zM507 -14q30 0 54 13.5t38.5 36.5t14.5 53t-14.5 53t-39 36t-53.5 13q-28 0 -52 -13t-39.5 -36t-15.5 -53t15 -53t39 -36.5t53 -13.5zM164 28q-26 0 -43 17.5t-17 43.5
t17 43.5t44 17.5q26 0 43.5 -17.5t17.5 -43.5t-17.5 -43.5t-44.5 -17.5zM508 28q-27 0 -44 17.5t-17 43.5t17 43t44 17q26 0 43 -17t17 -43t-17 -43.5t-43 -17.5z" />
    <glyph glyph-name="tm_A" unicode="&#xb85;" horiz-adv-x="1056" 
d="M958 -126v639h-49v-639h49zM469 531q-67 0 -120.5 -26t-85 -71t-31.5 -103q0 -51 35 -84t88 -34q55 -1 91 32t37 84q1 49 -34.5 82t-89.5 33q-32 0 -57.5 -15t-40 -41t-14.5 -59h31q0 33 22.5 54t55.5 21q34 0 56 -21t22 -54q0 -34 -22 -55t-57 -20q-33 1 -55 22t-22 53
q0 49 24.5 84t68 54t98.5 19q71 0 121.5 -33t77.5 -91t27 -132q0 -96 -46.5 -170t-128.5 -116.5t-191 -42.5q-71 0 -125 17.5t-83.5 46.5t-29.5 64q0 26 13.5 41t46.5 15h758v40h-761q-54 0 -82 -26.5t-28 -69.5q0 -48 37 -87.5t102.5 -62.5t151.5 -23q93 0 170 27.5t133 78
t86.5 119t30.5 149.5q0 87 -34.5 155t-97 107t-148.5 39z" />
    <glyph glyph-name="tm_Aa" unicode="&#xb86;" horiz-adv-x="1256" 
d="M933 85h-782q-33 0 -46.5 -15t-13.5 -41q0 -35 29.5 -64t83.5 -46.5t125 -17.5q109 0 191 42.5t128.5 116.5t46.5 170q0 74 -27 132t-77.5 91t-121.5 33q-55 0 -98.5 -19t-68 -54t-24.5 -84q0 -32 22 -53t55 -22q35 -1 57 20t22 55q0 33 -22 54t-56 21q-33 0 -55.5 -21
t-22.5 -54h-31q0 33 14.5 59t40 41t57.5 15q54 0 89.5 -33t34.5 -82q-1 -51 -37 -84t-91 -32q-53 1 -88 34t-35 84q0 58 31.5 103t85 71t120.5 26q86 0 148.5 -39t97 -107t34.5 -155q0 -81 -30.5 -149.5t-86.5 -119t-133 -78t-170 -27.5q-86 0 -151.5 23t-102.5 62.5
t-37 87.5q0 43 28 69.5t82 26.5h785v-40zM1084 88q50 0 86.5 -22.5t56 -61.5t19.5 -88q0 -64 -27 -118t-76 -93t-114.5 -60.5t-144.5 -21.5q-62 0 -111.5 17t-77.5 47.5t-28 69.5q0 47 34.5 78.5t89.5 31.5h21v-40h-21q-33 0 -52 -20t-19 -50q0 -40 46 -64.5t118 -24.5
q90 0 160 31.5t109.5 88t39.5 129.5q0 53 -29.5 89t-82.5 36t-88 -38.5t-35 -97.5v-32h-49v639h49v-485q22 28 54 44t72 16z" />
    <glyph glyph-name="tm_I" unicode="&#xb87;" horiz-adv-x="1033" 
d="M488 531q-65 0 -114 -26t-77 -71t-28 -103q0 -51 35 -84t88 -34q55 -1 91 32t37 84q1 49 -34.5 82t-89.5 33q-32 0 -57.5 -15t-40 -41t-14.5 -59h31q0 33 22.5 54t55.5 21q34 0 56 -21t22 -54q0 -34 -22 -55t-57 -20q-33 1 -55 22t-22 53q0 73 46.5 115t126.5 42
q82 0 123.5 -46.5t41.5 -119.5q0 -57 -28.5 -121.5t-77 -126.5t-109.5 -113t-127.5 -81.5t-129.5 -30.5q-47 0 -68.5 15t-21.5 43q0 44 28.5 81t77.5 64t112 42t133 15q59 0 113.5 -15t98 -42t68.5 -64t25 -81q0 -28 -22 -43t-68 -15q-75 0 -145.5 26t-131.5 72.5
t-107.5 109t-72.5 137.5t-26 157q0 103 46.5 173.5t129.5 107t190 36.5q100 0 178 -37.5t123 -107t45 -165.5v-504h49v506q0 80 -29.5 145t-83.5 111.5t-126 71.5t-156 25q-91 0 -167.5 -24.5t-132.5 -71t-87 -113.5t-31 -153q0 -87 28.5 -168t79 -150t118 -120.5t146 -80
t163.5 -28.5q68 0 105.5 28t37.5 75q0 54 -29.5 99t-80 78.5t-114.5 51.5t-134 18q-81 0 -153.5 -18t-129 -51.5t-89 -78.5t-32.5 -99q0 -47 37.5 -75t105.5 -28q59 0 120.5 23.5t120.5 64t110 92.5t90.5 110.5t61.5 117t22 110.5q0 61 -25 108.5t-74 75t-119 27.5z" />
    <glyph glyph-name="tm_Ii" unicode="&#xb88;" horiz-adv-x="741" 
d="M98 0v513h628l5 -40h-252v-473h-49v473h-283v-473h-49zM288 193q16 0 27.5 11t11.5 27t-11.5 27t-27.5 11q-17 0 -27.5 -11t-10.5 -27t10.5 -27t27.5 -11zM620 193q16 0 27.5 11t11.5 27t-12 27t-27 11q-17 0 -27.5 -11t-10.5 -27t10.5 -27t27.5 -11z" />
    <glyph glyph-name="tm_U" unicode="&#xb89;" horiz-adv-x="972" 
d="M962 0h-885v40h885v-40zM51 274q0 38 19.5 69.5t53 50t76.5 18.5q44 0 78.5 -18t54.5 -50t20 -73q0 -42 -20 -75t-55.5 -51.5t-80.5 -18.5q-46 0 -82 19t-56.5 53t-20.5 77q0 74 35 132t98 91t146 33q81 0 143.5 -33.5t98 -91.5t35.5 -133q0 -78 -33 -139t-95.5 -95
t-151.5 -34v35q66 0 117 30t80 82.5t29 120.5q0 62 -28 110t-78 75.5t-117 27.5q-68 0 -119.5 -26.5t-80 -74t-28.5 -111.5q0 -45 30 -74t78 -29q45 0 74.5 28t29.5 72q0 43 -29 71t-72 28q-49 0 -80 -27t-31 -69h-38z" />
    <glyph glyph-name="tm_Uu" unicode="&#xb8a;" horiz-adv-x="1657" 
d="M77 40h237q66 0 117 30t80 82.5t29 120.5q0 62 -28 110t-78 75.5t-117 27.5q-68 0 -119.5 -26.5t-80 -74t-28.5 -111.5q0 -45 30 -74t78 -29q45 0 74.5 28t29.5 72q0 43 -29 71t-72 28q-49 0 -80 -27t-31 -69h-38q0 38 19.5 69.5t53 50t76.5 18.5q44 0 78.5 -18t54.5 -50
t20 -73q0 -42 -20 -75t-55.5 -51.5t-80.5 -18.5q-46 0 -82 19t-56.5 53t-20.5 77q0 74 35 132t98 91t146 33q81 0 143.5 -33.5t98 -91.5t35.5 -133q0 -79 -33 -139.5t-96 -93.5h1182v-40h-1570v40zM735 291q0 -47 21 -86t61.5 -62t99.5 -23q40 0 65.5 26t25.5 67
q0 40 -25.5 66t-65.5 26q-41 0 -66.5 -26t-25.5 -65q0 -41 25.5 -67.5t66.5 -26.5v-27q-59 0 -97.5 34t-38.5 87q0 58 38 94.5t97 36.5q61 0 100 -37.5t39 -94.5q0 -38 -18 -68t-49.5 -47t-72.5 -17q-72 0 -124.5 28.5t-80 76t-27.5 105.5q0 69 32 122.5t89.5 85t133.5 31.5
q68 0 121 -28.5t84 -76.5v88h451l5 -40h-142v-375h-50v375h-214v-375h-50v189q0 57 -26.5 101t-73 70.5t-105.5 26.5q-60 0 -106 -25.5t-71.5 -69t-25.5 -99.5z" />
    <glyph glyph-name="tm_E" unicode="&#xb8e;" horiz-adv-x="847" 
d="M639 473v-473h-49v473h-136v40h378l5 -40h-198zM111 237q0 -63 26 -111.5t75.5 -76t120.5 -27.5q52 0 85 33t33 84t-33 84.5t-85 33.5q-50 0 -83.5 -33t-33.5 -84t33.5 -84.5t83.5 -33.5v-29q-47 0 -84 19t-58 52t-21 76q0 46 21 81.5t58 56t84 20.5q49 0 86.5 -20.5
t59.5 -56t22 -82.5q0 -46 -22 -81.5t-59.5 -55.5t-86.5 -20q-86 0 -148 33t-94.5 90.5t-32.5 131.5q0 82 35.5 144t107.5 97t179 35h180v-40h-171q-94 0 -156 -30t-92 -83t-30 -123z" />
    <glyph glyph-name="tm_Ee" unicode="&#xb8f;" horiz-adv-x="847" 
d="M111 237q0 -56 20.5 -101t61.5 -74q-11 16 -17 36t-6 42q0 46 21 81.5t58 56t84 20.5q49 0 86.5 -20.5t59.5 -56t22 -82.5q0 -46 -22 -81.5t-59.5 -55.5t-86.5 -20q-86 0 -148 33t-94.5 90.5t-32.5 131.5q0 82 35.5 144t107.5 97t179 35h452l5 -40h-198v-447
q0 -39 -4 -65.5t-18.5 -44.5t-45.5 -31l-322 -135l-23 37l306 130q24 10 36.5 23.5t17 33.5t4.5 52v447h-201q-94 0 -156 -30t-92 -83t-30 -123zM216 140q0 -51 33.5 -84.5t83.5 -33.5q52 0 85 33t33 84t-33 84.5t-85 33.5q-50 0 -83.5 -33t-33.5 -84z" />
    <glyph glyph-name="tm_Ai" unicode="&#xb90;" horiz-adv-x="836" 
d="M711 -50q0 32 -9.5 71.5t-25.5 73.5l50 6q18 -38 28 -72t10 -79t-21.5 -80t-61 -55t-92.5 -20q-48 0 -82.5 15.5t-58 42.5t-39.5 61v54l30 2v-56q-15 -34 -40.5 -61t-63 -42.5t-88.5 -15.5q-55 0 -98 22.5t-67 61.5t-24 89q0 56 29.5 97t89 68.5t151.5 39.5l180 24
q70 9 118 30t73.5 54.5t25.5 76.5q0 56 -34 92t-88 36q-40 0 -71.5 -18.5t-50 -50.5t-18.5 -74v-69h-50v69q0 62 -40.5 102.5t-104.5 40.5q-50 0 -85.5 -19t-53 -51.5t-17.5 -76.5q0 -23 16.5 -38.5t40.5 -15.5t40 15t17 38q0 26 -15.5 42.5t-39.5 16.5q-26 0 -43 -16.5
t-16 -41.5l-38 -1q-1 44 27 71.5t70 27.5q46 0 74.5 -27.5t27.5 -71.5q-1 -40 -30.5 -67t-75.5 -26q-44 1 -73 28t-29 69q0 55 26 97.5t72 67t105 24.5q45 0 80 -15.5t60.5 -42.5t43.5 -61v-44h-28v44q26 51 69.5 85t109.5 34q51 0 90.5 -22.5t62 -61.5t22.5 -89
q0 -56 -29 -97.5t-88.5 -68t-152.5 -39.5l-180 -24q-69 -9 -117.5 -30.5t-73.5 -54t-26 -76.5q0 -56 37.5 -92t98.5 -36q44 0 78.5 18.5t54 51t19.5 73.5v69h50v-69q0 -41 17.5 -73.5t49 -51t73.5 -18.5q57 0 89.5 30.5t32.5 79.5z" />
    <glyph glyph-name="tm_O" unicode="&#xb92;" horiz-adv-x="814" 
d="M407 534q76 0 139.5 -18.5t110.5 -52.5t73 -80t26 -101q0 -45 -15.5 -80.5t-44.5 -55.5t-72 -20q-36 0 -64.5 18.5t-44.5 51t-16 73.5h40q1 -43 24.5 -70.5t60.5 -27.5q42 0 60.5 31t18.5 80q0 60 -38.5 106.5t-105.5 73t-152 26.5q-87 0 -154.5 -28t-106.5 -77.5
t-39 -113.5q0 -37 15 -65.5t40 -44.5t56 -16q33 0 54 21t22 53q0 33 -21 54t-53 21q-34 0 -55.5 -21t-21.5 -54q0 -32 21.5 -53t53.5 -21v-37q-48 0 -80.5 32t-32.5 80q0 51 32.5 83.5t83.5 32.5q53 0 87.5 -33t34.5 -84q0 -50 -35 -82.5t-90 -32.5q-45 0 -81 21.5
t-57.5 59.5t-21.5 86q0 58 26 106.5t73 84t110.5 55t139.5 19.5zM722 -35h-61q-86 0 -128 44.5t-42 123.5v136h45v-136q0 -62 30.5 -95t94.5 -33h61v-40zM411 -175q59 0 97.5 35.5t38.5 89.5v69l49 -19v-50q0 -49 -24 -87t-65.5 -60t-95.5 -22q-53 0 -95 22t-65.5 60
t-23.5 87v50h49v-50q0 -54 38.5 -89.5t96.5 -35.5z" />
    <glyph glyph-name="tm_Oo" unicode="&#xb93;" horiz-adv-x="814" 
d="M722 5v-40h-61q-18 0 -34.5 2t-30.5 6v-23q0 -49 -26.5 -87t-72 -60t-104.5 -22q-56 0 -99.5 17t-68 47.5t-24.5 68.5q0 48 35 80t88 32h21v-40h-21q-32 0 -52 -20t-20 -52q0 -39 39.5 -64t101.5 -25q44 0 79 16t55 44.5t20 64.5v47q-28 21 -42 55.5t-14 80.5v136h48
q1 -43 24.5 -70.5t60.5 -27.5q42 0 60.5 31t18.5 80q0 60 -38.5 106.5t-105.5 73t-152 26.5q-92 0 -161 -31t-106 -84.5t-31 -121.5q9 33 37.5 58t74.5 25q53 0 87.5 -33t34.5 -84q0 -50 -35 -82.5t-90 -32.5q-45 0 -81 21.5t-57.5 59.5t-21.5 86q0 58 26 106.5t73 84
t110.5 55t139.5 19.5t139.5 -18.5t110.5 -52.5t73 -80t26 -101q0 -45 -15.5 -80.5t-44.5 -55.5t-72 -20q-26 0 -48.5 10t-39.5 29v-32q0 -62 30.5 -95t94.5 -33h61zM143 217q0 -31 20.5 -52.5t54.5 -21.5q32 0 53.5 21t22.5 53q0 33 -21 54t-53 21q-34 0 -55.5 -21
t-21.5 -54z" />
    <glyph glyph-name="tm_Au" unicode="&#xb94;" horiz-adv-x="2015" 
d="M407 534q76 0 139.5 -18.5t110.5 -52.5t73 -80t26 -101q0 -45 -15.5 -80.5t-44.5 -55.5t-72 -20q-36 0 -64.5 18.5t-44.5 51t-16 73.5h40q1 -43 24.5 -70.5t60.5 -27.5q42 0 60.5 31t18.5 80q0 60 -38.5 106.5t-105.5 73t-152 26.5q-87 0 -154.5 -28t-106.5 -77.5
t-39 -113.5q0 -37 15 -65.5t40 -44.5t56 -16q33 0 54 21t22 53q0 33 -21 54t-53 21q-34 0 -55.5 -21t-21.5 -54q0 -32 21.5 -53t53.5 -21v-37q-48 0 -80.5 32t-32.5 80q0 51 32.5 83.5t83.5 32.5q53 0 87.5 -33t34.5 -84q0 -50 -35 -82.5t-90 -32.5q-45 0 -81 21.5
t-57.5 59.5t-21.5 86q0 58 26 106.5t73 84t110.5 55t139.5 19.5zM722 -35h-61q-86 0 -128 44.5t-42 123.5v136h45v-136q0 -62 30.5 -95t94.5 -33h61v-40zM411 -175q59 0 97.5 35.5t38.5 89.5v69l49 -19v-50q0 -49 -24 -87t-65.5 -60t-95.5 -22q-53 0 -95 22t-65.5 60
t-23.5 87v50h49v-50q0 -54 38.5 -89.5t96.5 -35.5zM925 237q0 -63 26 -111.5t75.5 -76t120.5 -27.5q52 0 85 33t33 84t-33 84.5t-85 33.5q-50 0 -83.5 -33t-33.5 -84t33.5 -84.5t83.5 -33.5v-29q-47 0 -84 19t-58 52t-21 76q0 46 21 81.5t58 56t84 20.5q49 0 86.5 -20.5
t59.5 -56t22 -82.5q0 -46 -22 -81.5t-59.5 -55.5t-86.5 -20q-86 0 -148 33t-94.5 90.5t-32.5 131.5q0 86 38 152t108 104t168 38q83 0 150.5 -38.5t105.5 -104.5v125h558l5 -40h-197v-473h-50v473h-267v-473h-49v228q0 75 -33.5 133t-91.5 91.5t-131 33.5
q-82 0 -140.5 -32.5t-89.5 -88.5t-31 -128z" />
    <glyph glyph-name="tm_Ka" unicode="&#xb95;" horiz-adv-x="729" 
d="M458 205q0 -71 -27.5 -121t-77.5 -76t-117 -26q-56 0 -98.5 20t-66 55t-23.5 79q0 66 47.5 110t133.5 44h276q59 0 100.5 -19.5t63.5 -53t22 -77.5q0 -45 -23.5 -81t-68 -56.5t-106.5 -20.5v40q71 0 108 33t37 85q0 48 -33.5 79t-98.5 31h-275q-63 0 -96.5 -32.5
t-33.5 -82.5q0 -47 36.5 -77.5t98.5 -30.5q52 0 90.5 20.5t60 60.5t21.5 97v268h-192v-210h-50v250h461l5 -40h-174v-268z" />
    <glyph glyph-name="tm_Nga" unicode="&#xb99;" horiz-adv-x="951" 
d="M391 473v-327h-49v327h-195v-473h-49v513h486l4 -40h-197zM853 513v-513h-511v40h462v473h49zM626 196q0 53 -28 88.5t-82 35.5q-55 0 -90 -39t-35 -98h-40q0 53 21.5 94t59.5 64.5t87 23.5q51 0 86.5 -22.5t54.5 -60.5t19 -87q0 -57 -26 -100t-74 -66.5t-114 -23.5v35
q49 0 85 20t56 56t20 80z" />
    <glyph glyph-name="tm_Ca" unicode="&#xb9a;" horiz-adv-x="669" 
d="M458 205q0 -71 -27.5 -121t-77.5 -76t-117 -26q-56 0 -98.5 20t-66 55t-23.5 79q0 66 47.5 110t133.5 44h398l5 -40h-401q-63 0 -96.5 -32.5t-33.5 -82.5q0 -47 36.5 -77.5t98.5 -30.5q52 0 90.5 20.5t60 60.5t21.5 97v268h-192v-210h-50v250h461l5 -40h-174v-268z" />
    <glyph glyph-name="tm_Ja" unicode="&#xb9c;" horiz-adv-x="836" 
d="M463 274h-50v69q0 62 -40.5 102.5t-104.5 40.5q-50 0 -85.5 -19t-53 -51.5t-17.5 -76.5q0 -23 16.5 -38.5t40.5 -15.5t40 15t17 38q0 26 -15.5 42.5t-39.5 16.5q-26 0 -43 -16.5t-16 -41.5l-38 -1q-1 44 27 71.5t70 27.5q46 0 74.5 -27.5t27.5 -71.5q-1 -40 -30.5 -67
t-75.5 -26q-44 1 -73 28t-29 69q0 55 26 97.5t72 67t105 24.5q45 0 80 -15.5t60.5 -42.5t43.5 -61v-44h-28v44q26 51 69.5 85t109.5 34q51 0 90.5 -22.5t62 -61.5t22.5 -89q0 -56 -29 -97.5t-88.5 -68t-152.5 -39.5l-180 -24q-69 -9 -117.5 -30.5t-73.5 -54t-26 -76.5
q0 -56 32.5 -92t89.5 -36q40 0 78.5 23t76.5 57t77.5 68.5t81 58t86.5 23.5t77 -17t50 -47.5t18 -69.5q0 -40 -21.5 -71t-60 -49t-89.5 -18h-122v40h122q55 0 86.5 28t31.5 70q0 39 -23 64t-69 25q-32 0 -63 -16.5t-61.5 -42.5t-62.5 -55.5t-65.5 -55.5t-70 -43t-77.5 -17
q-53 0 -92.5 22.5t-61 61.5t-21.5 89q0 56 29.5 97t89 68.5t151.5 39.5l180 24q70 9 118 30t73.5 54.5t25.5 76.5q0 56 -34 92t-88 36q-40 0 -71.5 -18.5t-50 -50.5t-18.5 -74v-69z" />
    <glyph glyph-name="tm_Nya" unicode="&#xb9e;" horiz-adv-x="1198" 
d="M343 237q0 -63 26 -111.5t75.5 -76t121.5 -27.5q52 0 84.5 33t32.5 84t-32.5 84.5t-84.5 33.5q-51 0 -84.5 -33t-33.5 -84t33.5 -84.5t84.5 -33.5v-29q-48 0 -84.5 19t-57.5 52t-21 76q0 46 21 81.5t57.5 56t84.5 20.5q49 0 86.5 -20.5t59.5 -56t22 -82.5
q0 -46 -22 -81.5t-59.5 -55.5t-86.5 -20q-86 0 -148 33t-95 90.5t-33 131.5q0 82 36 144t107 97t179 35h91v-40h-82q-94 0 -156 -30t-92 -83t-30 -123zM975 349q54 0 91 -28t55.5 -76t18.5 -108q0 -91 -35.5 -162.5t-102 -122t-159.5 -77t-207 -26.5q-127 0 -230 29.5
t-176.5 86t-112.5 136t-39 180.5q0 59 18.5 123.5t50.5 122.5t73 96l51 -10q-40 -32 -72 -87.5t-50 -120t-18 -126.5q0 -90 35.5 -161.5t101.5 -121t159.5 -75.5t208.5 -26q137 0 238 41t157 117.5t56 185.5q0 45 -12.5 82.5t-37.5 60t-64 22.5q-54 0 -89 -38.5t-35 -98.5
v-167h-49v473h-97l-1 40h340l5 -40h-198v-184q22 28 54 44t72 16z" />
    <glyph glyph-name="tm_Tta" unicode="&#xb9f;" horiz-adv-x="715" 
d="M701 40h-554v478l-49 -5v-513h607z" />
    <glyph glyph-name="tm_Nna" unicode="&#xba3;" horiz-adv-x="1672" 
d="M1414 0v473h-101q-69 0 -127 -22.5t-100.5 -63.5t-65.5 -96.5t-23 -119.5q0 -62 26 -103t74 -41t75.5 41t27.5 103q0 66 -21.5 123t-60.5 100t-93 67.5t-118 24.5q-92 0 -158 -42.5t-101 -114t-35 -158.5q0 -62 27.5 -103t75.5 -41t74 41t26 103q0 68 -27 125.5
t-76.5 100t-117 66t-148.5 23.5q-104 0 -179 -33t-116 -91.5t-41 -133.5q0 -59 27 -106t77 -73.5t118 -26.5q52 0 85 33t33 84t-33 84.5t-85 33.5q-51 0 -84 -33t-33 -84t33 -84.5t84 -33.5v-29q-47 0 -84 19t-58 52t-21 76q0 46 21 81.5t58 56t84 20.5q49 0 86.5 -20.5
t59.5 -56t22 -82.5q0 -46 -22 -81.5t-59.5 -55.5t-86.5 -20q-84 0 -145.5 32t-95.5 88t-34 126q0 88 48 156t135.5 107.5t205.5 39.5q90 0 167 -27.5t134.5 -76.5t89.5 -114.5t32 -141.5q0 -55 -18.5 -97.5t-53 -67t-82.5 -24.5q-47 0 -82.5 24.5t-54.5 67t-19 97.5
q0 73 24.5 138t70.5 115t109.5 78.5t142.5 28.5q76 0 139.5 -27.5t109.5 -77t71.5 -115t25.5 -140.5q0 -55 -19.5 -97.5t-54 -67t-82.5 -24.5q-47 0 -81.5 24.5t-53 67t-18.5 97.5q0 73 28 135t78 108.5t117 72.5t146 26h344l5 -40h-198v-473h-50z" />
    <glyph glyph-name="tm_Ta" unicode="&#xba4;" horiz-adv-x="739" 
d="M485 250h-254q-63 0 -96.5 -32.5t-33.5 -82.5q0 -47 36.5 -77.5t98.5 -30.5q52 0 90.5 20.5t60 60.5t21.5 97v268h-192v-210h-50v250h461l5 -40h-174v-268q0 -71 -27.5 -121t-77.5 -76t-117 -26q-56 0 -98.5 20t-66 55t-23.5 79q0 66 47.5 110t133.5 44h255
q63 0 109.5 -28t72 -76t25.5 -111q0 -69 -35.5 -123t-101 -85t-154.5 -31h-147q-59 0 -101.5 -22t-64.5 -57l-39 22q24 41 76 69t122 28h154q74 0 127.5 25.5t82 71t28.5 102.5q0 51 -18.5 90.5t-53 62t-81.5 22.5z" />
    <glyph glyph-name="tm_Na" unicode="&#xba8;" horiz-adv-x="740" 
d="M517 349q56 0 92 -28.5t54.5 -78.5t18.5 -115q0 -82 -31.5 -148t-93 -104.5t-152.5 -38.5h-102q-59 0 -101.5 -22t-64.5 -57l-39 22q24 41 76 69t122 28h109q75 0 125 33.5t74.5 90.5t24.5 128q0 77 -27 126.5t-88 49.5q-53 0 -88 -38.5t-35 -98.5v-167h-49v473h-195
v-473h-49v513h486l4 -40h-197v-184q22 28 54 44t72 16z" />
    <glyph glyph-name="tm_Nnna" unicode="&#xba9;" horiz-adv-x="1288" 
d="M1031 0v473h-102q-69 0 -126.5 -22.5t-100.5 -63.5t-66 -96.5t-23 -119.5q0 -62 27 -103t75 -41t74.5 41t26.5 103q0 68 -27 125.5t-76.5 100t-117 66t-148.5 23.5q-104 0 -179 -33t-116 -91.5t-41 -133.5q0 -59 27 -106t77 -73.5t118 -26.5q52 0 85 33t33 84t-33 84.5
t-85 33.5q-51 0 -84 -33t-33 -84t33 -84.5t84 -33.5v-29q-47 0 -84 19t-58 52t-21 76q0 46 21 81.5t58 56t84 20.5q49 0 86.5 -20.5t59.5 -56t22 -82.5q0 -46 -22 -81.5t-59.5 -55.5t-86.5 -20q-84 0 -145.5 32t-95.5 88t-34 126q0 88 48 156t135.5 107.5t205.5 39.5
q90 0 167 -27.5t134.5 -76.5t89.5 -114.5t32 -141.5q0 -55 -19 -97.5t-53.5 -67t-82.5 -24.5q-47 0 -82 24.5t-54 67t-19 97.5q0 73 28 135t78 108.5t117 72.5t146 26h345l4 -40h-198v-473h-49z" />
    <glyph glyph-name="tm_Pa" unicode="&#xbaa;" horiz-adv-x="706" 
d="M609 513v-513h-511v513l49 5v-478h412v473h50z" />
    <glyph glyph-name="tm_Ma" unicode="&#xbae;" horiz-adv-x="796" 
d="M147 40v478l-49 -5v-513h446q67 0 110 30t63.5 82t20.5 119q0 87 -24 155t-70 106.5t-112 38.5q-45 0 -81.5 -19.5t-57 -59t-20.5 -100.5v-342l50 9v335q0 70 32 101t80 31t81.5 -33t51 -90.5t17.5 -131.5q0 -55 -13.5 -98.5t-44.5 -68t-83 -24.5h-397z" />
    <glyph glyph-name="tm_Ya" unicode="&#xbaf;" horiz-adv-x="897" 
d="M799 513v-513h-417v513h50v-473h317v473h50zM88 513l49 5v-338q0 -85 32.5 -119t84.5 -34q64 0 96 48t32 121h37q0 -61 -19.5 -109.5t-56 -76.5t-89.5 -28q-49 0 -86 20.5t-58.5 64t-21.5 113.5v333z" />
    <glyph glyph-name="tm_Ra" unicode="&#xbb0;" horiz-adv-x="670" 
d="M660 473h-197v-447q0 -39 -4.5 -63.5t-19 -42t-44.5 -35.5l-232 -135l-23 39l224 131q21 13 31.5 27t14.5 34t4 52v440h-267v-473h-49v513h558z" />
    <glyph glyph-name="tm_Rra" unicode="&#xbb1;" horiz-adv-x="787" 
d="M529 531q69 0 113.5 -38.5t66 -106.5t21.5 -155q0 -115 -35.5 -204t-107.5 -140t-183 -51h-111q-59 0 -101.5 -22t-64.5 -57l-39 22q24 41 76 69t122 28h118q96 0 156 46t88.5 126.5t28.5 182.5q0 74 -15 131.5t-47 90.5t-83 33q-31 0 -58 -15.5t-43.5 -47t-16.5 -79.5
v-344h-49v317q0 50 -13.5 87.5t-40 59.5t-66.5 22q-52 0 -80 -36t-28 -117v-333h-49v333q0 67 19 110.5t54 65.5t82 22q50 0 86.5 -26.5t55.5 -71.5q21 47 59.5 72.5t84.5 25.5z" />
    <glyph glyph-name="tm_La" unicode="&#xbb2;" horiz-adv-x="1005" 
d="M813 513l49 14q30 -49 48.5 -101.5t27.5 -102t9 -88.5q0 -77 -19.5 -134t-59.5 -88t-100 -31q-55 0 -94 25t-60 76t-21 127v47q0 71 -28.5 122.5t-80.5 79t-122 27.5q-78 0 -134.5 -32t-86.5 -88t-30 -128q0 -62 26 -111t75.5 -77t120.5 -28q52 0 85 33t33 84t-33 84.5
t-85 33.5q-51 0 -84 -33t-33 -84t33 -84.5t84 -33.5v-29q-47 0 -84 19t-58 52t-21 76q0 46 21 81.5t58 56t84 20.5q49 0 86.5 -20.5t59.5 -56t22 -82.5q0 -46 -22 -81.5t-59.5 -55.5t-86.5 -20q-86 0 -148 33.5t-94.5 91.5t-32.5 131q0 86 37 152t105 103.5t162 37.5
q84 0 147 -33.5t98.5 -94.5t35.5 -146v-47q0 -94 32.5 -138.5t92.5 -44.5q65 0 96 56t31 150q0 38 -8.5 88t-26.5 101t-47 91z" />
    <glyph glyph-name="tm_Lla" unicode="&#xbb3;" horiz-adv-x="1201" 
d="M111 237q0 -63 26 -111.5t75.5 -76t120.5 -27.5q52 0 85 33t33 84t-33 84.5t-85 33.5q-50 0 -83.5 -33t-33.5 -84t33.5 -84.5t83.5 -33.5v-29q-47 0 -84 19t-58 52t-21 76q0 46 21 81.5t58 56t84 20.5q49 0 86.5 -20.5t59.5 -56t22 -82.5q0 -46 -22 -81.5t-59.5 -55.5
t-86.5 -20q-86 0 -148 33t-94.5 90.5t-32.5 131.5q0 86 38 152t108 104t168 38q83 0 150.5 -38.5t105.5 -104.5v125h558l5 -40h-197v-473h-50v473h-267v-473h-49v228q0 75 -33.5 133t-91.5 91.5t-131 33.5q-82 0 -140.5 -32.5t-89.5 -88.5t-31 -128z" />
    <glyph glyph-name="tm_Llla" unicode="&#xbb4;" horiz-adv-x="796" 
d="M423 16l-50 -9v-50q0 -40 9.5 -71.5t49.5 -48.5q-20 -50 -57.5 -71.5t-79.5 -21.5q-60 0 -89.5 29.5t-29.5 75.5h-49q0 -44 19.5 -78t57 -53.5t90.5 -19.5q41 0 78.5 16t65.5 45.5t40 69.5h180l-4 40h-173q-31 0 -44.5 20t-13.5 61v66zM147 40v478l-49 -5v-513h446
q67 0 110 30t63.5 82t20.5 119q0 87 -24 155t-70 106.5t-112 38.5q-45 0 -81.5 -19.5t-57 -59t-20.5 -100.5v-336l50 4v334q0 70 32 101t80 31t81.5 -33t51 -90.5t17.5 -131.5q0 -55 -13.5 -98.5t-44.5 -68t-83 -24.5h-397z" />
    <glyph glyph-name="tm_Va" unicode="&#xbb5;" horiz-adv-x="1019" 
d="M628 255q0 67 -31 119t-87 82t-133 30q-83 0 -143 -32.5t-91.5 -88.5t-31.5 -128q0 -63 26 -111.5t75.5 -76t120.5 -27.5q52 0 85 33t33 84t-33 84.5t-85 33.5q-51 0 -84 -33t-33 -84t33 -84.5t84 -33.5v-29q-47 0 -84 19t-58 52t-21 76q0 46 21 81.5t58 56t84 20.5
q49 0 86.5 -20.5t59.5 -56t22 -82.5q0 -46 -22 -81.5t-59.5 -55.5t-86.5 -20q-86 0 -148 33t-94.5 90.5t-32.5 131.5q0 86 38.5 152t110 104t170.5 38q90 0 158.5 -35.5t107 -98t38.5 -142.5q0 -63 -19.5 -118.5t-52.5 -96.5h263v473h49v-513h-376v40q36 38 59.5 92.5
t23.5 122.5z" />
    <glyph glyph-name="tm_Sha" unicode="&#xbb6;" horiz-adv-x="1006" 
d="M754 513q67 0 110 -30t63.5 -82t20.5 -119q0 -87 -24 -154.5t-70.5 -106.5t-111.5 -39q-46 0 -82 19.5t-56.5 59.5t-20.5 100v312h-163v-293q0 -68 -21 -111.5t-58.5 -65t-86.5 -21.5t-86 21.5t-58.5 65t-21.5 111.5v333l49 5v-338q0 -80 32.5 -116.5t84.5 -36.5
t84.5 36.5t32.5 116.5v333h383zM746 27q48 0 81 33t50.5 90.5t17.5 131.5q0 56 -13.5 99t-44.5 67.5t-83 24.5h-121v-314q0 -70 32 -101t81 -31z" />
    <glyph glyph-name="tm_Ssa" unicode="&#xbb7;" horiz-adv-x="1338" 
d="M1245 473v-473h-700v40h650v433h50zM885 531q49 0 83 -20.5t52.5 -57t18.5 -84.5v-612h-50v607q0 56 -26.5 89t-77.5 33q-50 0 -79 -31.5t-29 -80.5q0 -53 39 -89t108 -36q58 0 109.5 30.5t92.5 81.5t69 112l41 -13q-27 -70 -73.5 -128.5t-107.5 -93t-131 -34.5
q-61 0 -106 22.5t-69 61t-25 86.5q0 46 20 81.5t56 55.5t85 20zM377 531q90 0 158.5 -35.5t107 -98t38.5 -142.5q0 -67 -23 -127.5t-60 -101.5l-53 14q36 38 59.5 92.5t23.5 122.5q0 67 -31.5 119t-88 82t-131.5 30q-83 0 -143 -32.5t-91.5 -88.5t-31.5 -128
q0 -63 26 -111.5t75.5 -76t120.5 -27.5q52 0 85 33t33 84t-33 84.5t-85 33.5q-51 0 -84 -33t-33 -84t33 -84.5t84 -33.5v-29q-47 0 -84 19t-58 52t-21 76q0 46 21 81.5t58 56t84 20.5q49 0 86.5 -20.5t59.5 -56t22 -82.5q0 -46 -22 -81.5t-59.5 -55.5t-86.5 -20
q-86 0 -148 33t-94.5 90.5t-32.5 131.5q0 86 38.5 152t110 104t170.5 38z" />
    <glyph glyph-name="tm_Sa" unicode="&#xbb8;" horiz-adv-x="1283" 
d="M593 0v257q0 71 -28.5 122.5t-80.5 79t-122 27.5q-78 0 -134.5 -32t-86.5 -88t-30 -128q0 -62 26 -111t75.5 -77t120.5 -28q52 0 85 33t33 84t-33 84.5t-85 33.5q-51 0 -84 -33t-33 -84t33 -84.5t84 -33.5v-29q-47 0 -84 19t-58 52t-21 76q0 46 21 81.5t58 56t84 20.5
q49 0 86.5 -20.5t59.5 -56t22 -82.5q0 -46 -22 -81.5t-59.5 -55.5t-86.5 -20q-86 0 -148 33.5t-94.5 91.5t-32.5 131q0 86 37 152t105 103.5t162 37.5q88 0 153 -36.5t99 -103.5q18 64 55.5 102t98.5 38q47 0 81 -22t53 -65.5t19 -106.5v-127q0 -94 32.5 -138.5t92.5 -44.5
q65 0 96 56t31 150q0 38 -8.5 88t-26.5 101t-47 91l49 14q30 -49 48.5 -101.5t27.5 -102t9 -88.5q0 -77 -19.5 -134t-59.5 -88t-100 -31q-55 0 -94 25t-60 76t-21 127v128q0 75 -27 111t-76 36q-43 0 -71 -29.5t-41 -81t-13 -117.5v-257h-50z" />
    <glyph glyph-name="tm_Ha" unicode="&#xbb9;" horiz-adv-x="1536" 
d="M545 0v40q36 38 59.5 92.5t23.5 122.5q0 67 -31.5 119t-88 82t-131.5 30q-83 0 -143 -32.5t-91.5 -88.5t-31.5 -128q0 -63 26 -111.5t75.5 -76t120.5 -27.5q52 0 85 33t33 84t-33 84.5t-85 33.5q-51 0 -84 -33t-33 -84t33 -84.5t84 -33.5v-29q-47 0 -84 19t-58 52t-21 76
q0 46 21 81.5t58 56t84 20.5q49 0 86.5 -20.5t59.5 -56t22 -82.5q0 -46 -22 -81.5t-59.5 -55.5t-86.5 -20q-86 0 -148 33t-94.5 90.5t-32.5 131.5q0 86 38.5 152t110 104t170.5 38q90 0 158.5 -35.5t107 -98t38.5 -142.5q0 -62 -19.5 -118t-52.5 -97h227v293q0 67 19 110.5
t54.5 65.5t81.5 22q49 0 84.5 -25t55.5 -68q20 46 58 69.5t84 23.5q68 0 114 -38.5t68.5 -106.5t22.5 -155q0 -115 -35 -204t-107 -140t-183 -51h-891q-58 0 -100.5 -22t-64.5 -57l-39 22q24 41 76 69t122 28h897q95 0 155 46t88.5 126.5t28.5 182.5q0 74 -16 131.5
t-48.5 90t-83.5 32.5t-83 -34.5t-32 -106.5v-344h-49v317q0 49 -14 87t-40 60t-65 22q-52 0 -80.5 -36t-28.5 -117v-333h-340z" />
    <glyph glyph-name="tm_VowelAa" unicode="&#xbbe;" horiz-adv-x="650" 
d="M443 473v-473h-49v473h-247v-473h-49v513h538l4 -40h-197z" />
    <glyph glyph-name="tm_VowelI" unicode="&#xbbf;" horiz-adv-x="244" 
d="M-139 797q87 0 151 -38t99.5 -104t35.5 -152v-503h-49v503q0 73 -29 129t-82 88t-126 32q-83 0 -129 -34.5t-46 -90.5q0 -51 34 -82.5t105 -31.5h40v-40h-40q-62 0 -104.5 20t-64.5 55t-23 79q0 50 27.5 88t79 60t121.5 22z" />
    <glyph glyph-name="tm_VowelIi" unicode="&#xbc0;" horiz-adv-x="0" 
d="M-162 878q62 0 107.5 -26t71.5 -69t26 -92q0 -45 -27.5 -74t-69.5 -29q-43 0 -71 25.5t-30 63.5q-1 41 26.5 68t71.5 27q42 0 69 -26t27 -67l-40 1q0 22 -15 37t-38 15q-24 0 -39 -15t-15 -37q0 -23 15 -38t39 -15q23 0 38 15t15 38q0 44 -18.5 78t-54.5 54t-88 20
q-49 0 -85 -20.5t-55.5 -56.5t-19.5 -83q0 -46 17.5 -82t47.5 -56.5t68 -20.5v-39q-53 0 -95.5 25.5t-66.5 70.5t-24 102q0 60 26.5 106.5t74 73t112.5 26.5z" />
    <glyph glyph-name="tm_VowelU" unicode="&#xbc1;" horiz-adv-x="464" 
d="M258 473h-405v40h405q49 0 86.5 -20t59.5 -55.5t22 -81.5t-22 -82t-59.5 -56.5t-86.5 -20.5t-87 20.5t-59.5 56.5t-21.5 81t21 80.5t59 55.5t88 20v-38q-52 0 -85.5 -33.5t-33.5 -84.5t33.5 -84t85.5 -33q50 0 82.5 33.5t32.5 84.5q0 52 -32.5 84.5t-82.5 32.5z" />
    <glyph glyph-name="tm_VowelUu" unicode="&#xbc2;" horiz-adv-x="653" 
d="M362 612q73 0 130 -32.5t90 -90.5t33 -132q0 -77 -38.5 -137.5t-105 -95t-152.5 -34.5h-57v40h57q72 0 126.5 29.5t85 80.5t30.5 117q0 62 -25.5 109t-70 74t-103.5 27q-50 0 -90 -14t-69 -40h50q51 0 89.5 -20t60 -55.5t21.5 -81.5t-21 -82t-58 -56.5t-85 -20.5
q-49 0 -87.5 21.5t-60.5 59.5t-22 86q0 31 6.5 58t18.5 51h-262v40h287q36 46 93.5 72.5t128.5 26.5zM373 356q0 52 -33 84.5t-87 32.5h-84q-15 -22 -22.5 -50t-7.5 -59q0 -54 34.5 -90t86.5 -36q49 0 81 33.5t32 84.5z" />
    <glyph glyph-name="tm_VowelE" unicode="&#xbc6;" horiz-adv-x="777" 
d="M679 345v-345h-50v345q0 92 -29.5 155.5t-86 96.5t-136.5 33q-83 0 -142.5 -39.5t-91.5 -109t-32 -158.5q0 -88 28.5 -156t79 -106.5t114.5 -38.5q52 0 85 33t33 84t-33 84.5t-85 33.5q-50 0 -83.5 -33t-33.5 -84t33.5 -84.5t83.5 -33.5v-29q-47 0 -84 19t-58 52t-21 76
q0 46 21 81.5t58 56t84 20.5q49 0 86.5 -20.5t59.5 -56t22 -82.5q0 -46 -22 -81.5t-59.5 -55.5t-86.5 -20q-80 0 -142 44t-97.5 121t-35.5 176q0 102 39 181.5t110.5 125t169.5 45.5q94 0 161.5 -39t104 -112.5t36.5 -178.5z" />
    <glyph glyph-name="tm_VowelEe" unicode="&#xbc7;" horiz-adv-x="664" 
d="M111 329q0 -84 34.5 -152t96.5 -109t145 -43q57 -2 91.5 4.5t51.5 21t22 35t5 47.5q0 39 -25 65t-64 26q-38 0 -63.5 -26t-25.5 -65t25.5 -65.5t64.5 -26.5q38 0 63 26.5t25 65.5l37 -14l-36 -72l-74 -45h-14q-60 0 -100 37t-40 94q0 39 18 69t49 47.5t70 17.5
q40 0 71.5 -17.5t49.5 -47.5t18 -69q0 -44 -26 -78t-72.5 -53.5t-109.5 -19.5q-80 0 -143 26.5t-107 74t-67 110.5t-23 136t23 135.5t67 110t107 74t143 26.5q63 0 109.5 -19.5t72.5 -53t26 -78.5q0 -38 -18 -68.5t-49.5 -48t-71.5 -17.5q-39 0 -70.5 17.5t-49 48
t-17.5 69.5q0 37 18 66.5t50 46.5t72 17h14l74 -45l36 -72l-37 -14q0 40 -25 66t-63 26q-39 0 -64.5 -26t-25.5 -65t25.5 -65.5t63.5 -26.5q39 0 64 26t25 65q0 27 -5 48t-22 35t-51.5 20.5t-91.5 5.5q-83 -2 -145 -43.5t-96.5 -109t-34.5 -151.5z" />
    <glyph glyph-name="tm_VowelAi" unicode="&#xbc8;" horiz-adv-x="1196" 
d="M889 486q-60 0 -110.5 -24t-87.5 -67t-57.5 -100t-20.5 -124q0 -62 27.5 -103t75.5 -41t74 41t26 103q0 68 -27 125.5t-76.5 100t-117 66t-148.5 23.5q-104 0 -179 -33t-116 -91.5t-41 -133.5q0 -59 27 -106t77 -73.5t118 -26.5q52 0 85 33t33 84t-33 84.5t-85 33.5
q-51 0 -84 -33t-33 -84t33 -84.5t84 -33.5v-29q-47 0 -84 19t-58 52t-21 76q0 46 21 81.5t58 56t84 20.5q49 0 86.5 -20.5t59.5 -56t22 -82.5q0 -46 -22 -81.5t-59.5 -55.5t-86.5 -20q-84 0 -145.5 32t-95.5 88t-34 126q0 88 48 156t135.5 107.5t205.5 39.5q90 0 167 -27.5
t134.5 -76.5t89.5 -114.5t32 -141.5q0 -55 -18.5 -97.5t-53 -67t-82.5 -24.5q-47 0 -82.5 24.5t-54.5 67t-19 97.5q0 74 25 139t69.5 115t104.5 78t130 28q81 0 136.5 -34t84 -93t28.5 -135q0 -58 -20 -133.5t-65 -149.5l-49 14q29 41 47 89.5t26.5 96t8.5 85.5
q0 63 -22 111.5t-65.5 76t-109.5 27.5z" />
    <glyph glyph-name="tm_VowelO" unicode="&#xbca;" horiz-adv-x="1905" 
d="M679 345v-345h-50v345q0 92 -29.5 155.5t-86 96.5t-136.5 33q-83 0 -142.5 -39.5t-91.5 -109t-32 -158.5q0 -88 28.5 -156t79 -106.5t114.5 -38.5q52 0 85 33t33 84t-33 84.5t-85 33.5q-50 0 -83.5 -33t-33.5 -84t33.5 -84.5t83.5 -33.5v-29q-47 0 -84 19t-58 52t-21 76
q0 46 21 81.5t58 56t84 20.5q49 0 86.5 -20.5t59.5 -56t22 -82.5q0 -46 -22 -81.5t-59.5 -55.5t-86.5 -20q-80 0 -142 44t-97.5 121t-35.5 176q0 102 39 181.5t110.5 125t169.5 45.5q94 0 161.5 -39t104 -112.5t36.5 -178.5zM1682 473v-473h-49v473h-247v-473h-49v513h538
l4 -40h-197zM1012 459q13 0 21 8t8 21t-8 21.5t-21 8.5t-21 -8.5t-8 -21.5t8 -21t21 -8zM1102 444q13 0 21 8t8 21t-8 21t-21 8t-21 -8t-8 -21q0 -29 29 -29zM923 502q-13 0 -21 -8t-8 -21t8 -21t21 -8t21 8t8 21t-8 21t-21 8zM1178 393q13 0 21.5 8t8.5 21t-8.5 21.5
t-21.5 8.5t-21 -8.5t-8 -21.5t8 -21t21 -8zM847 452q-13 0 -21.5 -8.5t-8.5 -21.5t8.5 -21t21.5 -8t21 8t8 21t-8 21.5t-21 8.5zM1226 314q13 0 21 8t8 21t-8 21.5t-21 8.5t-21 -8.5t-8 -21.5t8 -21t21 -8zM799 373q-13 0 -21.5 -8.5t-8.5 -21.5t8.5 -21t21.5 -8t21 8t8 21
t-8 21.5t-21 8.5zM1240 229q13 0 21.5 7.5t8.5 20.5q0 14 -8.5 22t-21.5 8t-21 -8t-8 -22q0 -13 8 -20.5t21 -7.5zM785 287q-13 0 -21.5 -8t-8.5 -22q0 -13 8.5 -20.5t21.5 -7.5t21 7.5t8 20.5q0 14 -8 22t-21 8zM1226 145q13 0 21 8t8 21t-8 21t-21 8t-21 -8t-8 -21t8 -21
t21 -8zM799 203q-13 0 -21.5 -8t-8.5 -21t8.5 -21t21.5 -8t21 8t8 21t-8 21t-21 8zM1179 65q13 0 21.5 8t8.5 21t-8.5 21t-21.5 8t-21 -8t-8 -21t8 -21t21 -8zM846 123q-13 0 -21.5 -8t-8.5 -21t8.5 -21t21.5 -8t21 8t8 21t-8 21t-21 8zM923 74q-13 0 -21 -8.5t-8 -21.5
t8 -21t21 -8t21 8t8 21t-8 21.5t-21 8.5zM1102 15q13 0 21 8t8 21t-8 21.5t-21 8.5t-21 -8.5t-8 -21.5t8 -21t21 -8zM1012 0q13 0 21 8t8 21t-8 21.5t-21 8.5t-21 -8.5t-8 -21.5t8 -21t21 -8z" />
    <glyph glyph-name="tm_VowelOo" unicode="&#xbcb;" horiz-adv-x="1806" 
d="M111 329q0 -84 34.5 -152t96.5 -109t145 -43q57 -2 91.5 4.5t51.5 21t22 35t5 47.5q0 39 -25 65t-64 26q-38 0 -63.5 -26t-25.5 -65t25.5 -65.5t64.5 -26.5q38 0 63 26.5t25 65.5l37 -14l-36 -72l-74 -45h-14q-60 0 -100 37t-40 94q0 39 18 69t49 47.5t70 17.5
q40 0 71.5 -17.5t49.5 -47.5t18 -69q0 -44 -26 -78t-72.5 -53.5t-109.5 -19.5q-80 0 -143 26.5t-107 74t-67 110.5t-23 136t23 135.5t67 110t107 74t143 26.5q63 0 109.5 -19.5t72.5 -53t26 -78.5q0 -38 -18 -68.5t-49.5 -48t-71.5 -17.5q-39 0 -70.5 17.5t-49 48
t-17.5 69.5q0 37 18 66.5t50 46.5t72 17h14l74 -45l36 -72l-37 -14q0 40 -25 66t-63 26q-39 0 -64.5 -26t-25.5 -65t25.5 -65.5t63.5 -26.5q39 0 64 26t25 65q0 27 -5 48t-22 35t-51.5 20.5t-91.5 5.5q-83 -2 -145 -43.5t-96.5 -109t-34.5 -151.5zM1582 473v-473h-49v473
h-247v-473h-49v513h538l4 -40h-197zM916 459q13 0 21 8t8 21t-8 21.5t-21 8.5t-21 -8.5t-8 -21.5t8 -21t21 -8zM1006 444q13 0 21 8t8 21t-8 21t-21 8t-21 -8t-8 -21q0 -29 29 -29zM827 502q-13 0 -21 -8t-8 -21t8 -21t21 -8t21 8t8 21t-8 21t-21 8zM1082 393q13 0 21.5 8
t8.5 21t-8.5 21.5t-21.5 8.5t-21 -8.5t-8 -21.5t8 -21t21 -8zM751 452q-13 0 -21.5 -8.5t-8.5 -21.5t8.5 -21t21.5 -8t21 8t8 21t-8 21.5t-21 8.5zM1130 314q13 0 21 8t8 21t-8 21.5t-21 8.5t-21 -8.5t-8 -21.5t8 -21t21 -8zM703 373q-13 0 -21.5 -8.5t-8.5 -21.5t8.5 -21
t21.5 -8t21 8t8 21t-8 21.5t-21 8.5zM1144 229q13 0 21.5 7.5t8.5 20.5q0 14 -8.5 22t-21.5 8t-21 -8t-8 -22q0 -13 8 -20.5t21 -7.5zM689 287q-13 0 -21.5 -8t-8.5 -22q0 -13 8.5 -20.5t21.5 -7.5t21 7.5t8 20.5q0 14 -8 22t-21 8zM1130 145q13 0 21 8t8 21t-8 21t-21 8
t-21 -8t-8 -21t8 -21t21 -8zM703 203q-13 0 -21.5 -8t-8.5 -21t8.5 -21t21.5 -8t21 8t8 21t-8 21t-21 8zM1083 65q13 0 21.5 8t8.5 21t-8.5 21t-21.5 8t-21 -8t-8 -21t8 -21t21 -8zM750 123q-13 0 -21.5 -8t-8.5 -21t8.5 -21t21.5 -8t21 8t8 21t-8 21t-21 8zM827 74
q-13 0 -21 -8.5t-8 -21.5t8 -21t21 -8t21 8t8 21t-8 21.5t-21 8.5zM1006 15q13 0 21 8t8 21t-8 21.5t-21 8.5t-21 -8.5t-8 -21.5t8 -21t21 -8zM916 0q13 0 21 8t8 21t-8 21.5t-21 8.5t-21 -8.5t-8 -21.5t8 -21t21 -8z" />
    <glyph glyph-name="tm_VowelAu" unicode="&#xbcc;" horiz-adv-x="2503" 
d="M681 345v-345h-50v345q0 92 -29.5 155.5t-86 96.5t-136.5 33q-83 0 -142.5 -39.5t-91.5 -109t-32 -158.5q0 -88 28.5 -156t79 -106.5t114.5 -38.5q52 0 85 33t33 84t-33 84.5t-85 33.5q-50 0 -83.5 -33t-33.5 -84t33.5 -84.5t83.5 -33.5v-29q-47 0 -84 19t-58 52t-21 76
q0 46 21 81.5t58 56t84 20.5q49 0 86.5 -20.5t59.5 -56t22 -82.5q0 -46 -22 -81.5t-59.5 -55.5t-86.5 -20q-80 0 -142 44t-97.5 121t-35.5 176q0 102 39 181.5t110.5 125t169.5 45.5q94 0 161.5 -39t104 -112.5t36.5 -178.5zM1413 237q0 -63 26 -111.5t75.5 -76t120.5 -27.5
q52 0 85 33t33 84t-33 84.5t-85 33.5q-50 0 -83.5 -33t-33.5 -84t33.5 -84.5t83.5 -33.5v-29q-47 0 -84 19t-58 52t-21 76q0 46 21 81.5t58 56t84 20.5q49 0 86.5 -20.5t59.5 -56t22 -82.5q0 -46 -22 -81.5t-59.5 -55.5t-86.5 -20q-86 0 -148 33t-94.5 90.5t-32.5 131.5
q0 86 38 152t108 104t168 38q83 0 150.5 -38.5t105.5 -104.5v125h558l5 -40h-197v-473h-50v473h-267v-473h-49v228q0 75 -33.5 133t-91.5 91.5t-131 33.5q-82 0 -140.5 -32.5t-89.5 -88.5t-31 -128zM1033 459q13 0 21 8t8 21t-8 21.5t-21 8.5t-21 -8.5t-8 -21.5t8 -21t21 -8
zM1123 444q13 0 21 8t8 21t-8 21t-21 8t-21 -8t-8 -21q0 -29 29 -29zM944 502q-13 0 -21 -8t-8 -21t8 -21t21 -8t21 8t8 21t-8 21t-21 8zM1199 393q13 0 21.5 8t8.5 21t-8.5 21.5t-21.5 8.5t-21 -8.5t-8 -21.5t8 -21t21 -8zM868 452q-13 0 -21.5 -8.5t-8.5 -21.5t8.5 -21
t21.5 -8t21 8t8 21t-8 21.5t-21 8.5zM1247 314q13 0 21 8t8 21t-8 21.5t-21 8.5t-21 -8.5t-8 -21.5t8 -21t21 -8zM820 373q-13 0 -21.5 -8.5t-8.5 -21.5t8.5 -21t21.5 -8t21 8t8 21t-8 21.5t-21 8.5zM1261 229q13 0 21.5 7.5t8.5 20.5q0 14 -8.5 22t-21.5 8t-21 -8t-8 -22
q0 -13 8 -20.5t21 -7.5zM806 287q-13 0 -21.5 -8t-8.5 -22q0 -13 8.5 -20.5t21.5 -7.5t21 7.5t8 20.5q0 14 -8 22t-21 8zM1247 145q13 0 21 8t8 21t-8 21t-21 8t-21 -8t-8 -21t8 -21t21 -8zM820 203q-13 0 -21.5 -8t-8.5 -21t8.5 -21t21.5 -8t21 8t8 21t-8 21t-21 8z
M1200 65q13 0 21.5 8t8.5 21t-8.5 21t-21.5 8t-21 -8t-8 -21t8 -21t21 -8zM867 123q-13 0 -21.5 -8t-8.5 -21t8.5 -21t21.5 -8t21 8t8 21t-8 21t-21 8zM944 74q-13 0 -21 -8.5t-8 -21.5t8 -21t21 -8t21 8t8 21t-8 21.5t-21 8.5zM1123 15q13 0 21 8t8 21t-8 21.5t-21 8.5
t-21 -8.5t-8 -21.5t8 -21t21 -8zM1033 0q13 0 21 8t8 21t-8 21.5t-21 8.5t-21 -8.5t-8 -21.5t8 -21t21 -8z" />
    <glyph glyph-name="tm_Virama" unicode="&#xbcd;" horiz-adv-x="0" 
d="M0 635q16 0 27.5 11t11.5 27t-11.5 27.5t-27.5 11.5q-17 0 -27.5 -11.5t-10.5 -27.5t10.5 -27t27.5 -11z" />
    <glyph glyph-name="tm_Om" unicode="&#xbd0;" horiz-adv-x="814" 
d="M410 32q7 0 11.5 4.5t4.5 11.5q0 8 -4.5 12.5t-11.5 4.5q-16 0 -16 -17q0 -16 16 -16zM366 -72v84l-25 -1v-106h96q25 0 38.5 15t13.5 39q0 25 -13 40.5t-37 15.5q-20 0 -30.5 -13t-10.5 -33v-63l25 3v59q0 10 3.5 17.5t15.5 7.5q11 0 16.5 -10t5.5 -24q0 -13 -7 -22
t-18 -9h-73zM407 534q76 0 139.5 -18.5t110.5 -52.5t73 -80t26 -101q0 -45 -15.5 -80.5t-44.5 -55.5t-72 -20q-36 0 -64.5 18.5t-44.5 51t-16 73.5h40q1 -43 24.5 -70.5t60.5 -27.5q42 0 60.5 31t18.5 80q0 60 -38.5 106.5t-105.5 73t-152 26.5q-87 0 -154.5 -28
t-106.5 -77.5t-39 -113.5q0 -37 15 -65.5t40 -44.5t56 -16q33 0 54 21t22 53q0 33 -21 54t-53 21q-34 0 -55.5 -21t-21.5 -54q0 -32 21.5 -53t53.5 -21v-37q-48 0 -80.5 32t-32.5 80q0 51 32.5 83.5t83.5 32.5q53 0 87.5 -33t34.5 -84q0 -50 -35 -82.5t-90 -32.5
q-45 0 -81 21.5t-57.5 59.5t-21.5 86q0 58 26 106.5t73 84t110.5 55t139.5 19.5zM722 -35h-61q-86 0 -128 44.5t-42 123.5v136h45v-136q0 -62 30.5 -95t94.5 -33h61v-40zM411 -175q59 0 97.5 35.5t38.5 89.5v69l49 -19v-50q0 -49 -24 -87t-65.5 -60t-95.5 -22q-53 0 -95 22
t-65.5 60t-23.5 87v50h49v-50q0 -54 38.5 -89.5t96.5 -35.5z" />
    <glyph glyph-name="tm_AuLengthMark" unicode="&#xbd7;" horiz-adv-x="1201" 
d="M111 237q0 -63 26 -111.5t75.5 -76t120.5 -27.5q52 0 85 33t33 84t-33 84.5t-85 33.5q-50 0 -83.5 -33t-33.5 -84t33.5 -84.5t83.5 -33.5v-29q-47 0 -84 19t-58 52t-21 76q0 46 21 81.5t58 56t84 20.5q49 0 86.5 -20.5t59.5 -56t22 -82.5q0 -46 -22 -81.5t-59.5 -55.5
t-86.5 -20q-86 0 -148 33t-94.5 90.5t-32.5 131.5q0 86 38 152t108 104t168 38q83 0 150.5 -38.5t105.5 -104.5v125h558l5 -40h-197v-473h-50v473h-267v-473h-49v228q0 75 -33.5 133t-91.5 91.5t-131 33.5q-82 0 -140.5 -32.5t-89.5 -88.5t-31 -128z" />
    <glyph glyph-name="tm_Zero" unicode="&#xbe6;" horiz-adv-x="721" 
d="M360 531q89 0 157 -35t107 -97t39 -142t-39 -142.5t-107 -97.5t-157 -35q-88 0 -156 35t-106.5 97.5t-39.5 142.5q1 80 39.5 142t106.5 97t156 35zM360 27q75 0 131 30t87.5 81.5t31.5 118.5q1 67 -31 118t-88 81t-131 30q-74 0 -130 -30t-87.5 -81t-31.5 -118
q1 -67 32 -118.5t87 -81.5t130 -30z" />
    <glyph glyph-name="tm_One" unicode="&#xbe7;" horiz-adv-x="729" 
d="M458 205q0 -71 -27.5 -121t-77.5 -76t-117 -26q-56 0 -98.5 20t-66 55t-23.5 79q0 66 47.5 110t133.5 44h276q59 0 100.5 -19.5t63.5 -53t22 -77.5q0 -45 -23.5 -81t-68 -56.5t-106.5 -20.5v40q71 0 108 33t37 85q0 48 -33.5 79t-98.5 31h-275q-63 0 -96.5 -32.5
t-33.5 -82.5q0 -47 36.5 -77.5t98.5 -30.5q52 0 90.5 20.5t60 60.5t21.5 97v268h-192v-210h-50v250h461l5 -40h-174v-268z" />
    <glyph glyph-name="tm_Two" unicode="&#xbe8;" horiz-adv-x="751" 
d="M741 0h-664v40h664v-40zM51 274q0 38 19.5 69.5t53 50t76.5 18.5q44 0 78.5 -18t54.5 -50t20 -73q0 -42 -20 -75t-55.5 -51.5t-80.5 -18.5q-46 0 -82 19t-56.5 53t-20.5 77q0 74 35 132t98 91t146 33q81 0 143.5 -33.5t98 -91.5t35.5 -133q0 -78 -33 -139t-95.5 -95
t-151.5 -34v35q66 0 117 30t80 82.5t29 120.5q0 62 -28 110t-78 75.5t-117 27.5q-68 0 -119.5 -26.5t-80 -74t-28.5 -111.5q0 -45 30 -74t78 -29q45 0 74.5 28t29.5 72q0 43 -29 71t-72 28q-49 0 -80 -27t-31 -69h-38z" />
    <glyph glyph-name="tm_Three" unicode="&#xbe9;" horiz-adv-x="814" 
d="M391 473v-327h-49v327h-195v-473h-49v513h486l4 -40h-197zM804 40v-40h-462v40h123q49 0 85 20t56 55.5t20 80.5q0 53 -28 88.5t-82 35.5q-55 0 -90 -39t-35 -98h-40q0 53 21.5 94t60 64.5t86.5 23.5q51 0 86.5 -22.5t54.5 -60.5t19 -87q0 -51 -21 -90.5t-59 -64.5h205z
" />
    <glyph glyph-name="tm_Four" unicode="&#xbea;" horiz-adv-x="796" 
d="M748 250l-48 12v251h48v-263zM458 205q0 -71 -27.5 -121t-77.5 -76t-117 -26q-56 0 -98.5 20t-66 55t-23.5 79q0 66 47.5 110t133.5 44h515l4 -40h-517q-63 0 -96.5 -32.5t-33.5 -82.5q0 -47 36.5 -77.5t98.5 -30.5q52 0 90.5 20.5t60 60.5t21.5 97v268h-192v-210h-50
v250h461l5 -40h-174v-268z" />
    <glyph glyph-name="tm_Five" unicode="&#xbeb;" horiz-adv-x="1224" 
d="M636 0v473h-211v-473h-50v513h503l5 -40h-198v-184q22 28 54 44t72 16q54 0 91 -28.5t55.5 -78.5t18.5 -115q0 -88 -30 -157.5t-86.5 -119t-134.5 -75.5t-173 -26q-111 0 -199 36t-149.5 102t-93.5 158t-32 205q0 115 37 213t109 171t175 113.5t235 40.5q110 0 200.5 -32
t156 -91t101 -142t35.5 -185v-338h-50v336q0 93 -31.5 168t-90.5 128t-140 82t-181 29q-121 0 -214.5 -37.5t-158 -104.5t-97.5 -157t-33 -196q0 -102 28 -185.5t82.5 -143.5t132.5 -92t178 -32q112 0 195 39.5t129.5 114.5t46.5 179q0 51 -12.5 90.5t-37.5 62.5t-64 23
q-54 0 -89 -38.5t-35 -98.5v-167h-49z" />
    <glyph glyph-name="tm_Six" unicode="&#xbec;" horiz-adv-x="1043" 
d="M1033 0h-306v40h306v-40zM867 158q0 47 -28.5 77.5t-79.5 30.5q-54 0 -88 -35t-34 -91h-47q0 50 22.5 89t61.5 61t88 22q48 0 84 -19.5t55 -54.5t19 -81q0 -44 -21.5 -78.5t-64 -54t-107.5 -19.5v35q70 0 105 33.5t35 84.5zM458 205q0 -71 -27.5 -121t-77.5 -76t-117 -26
q-56 0 -98.5 20t-66 55t-23.5 79q0 66 47.5 110t133.5 44h226q59 0 99.5 -19.5t61.5 -53t21 -77.5v-140h-49v140q0 48 -34 79t-99 31h-224q-63 0 -96.5 -32.5t-33.5 -82.5q0 -47 36.5 -77.5t98.5 -30.5q52 0 90.5 20.5t60 60.5t21.5 97v268h-192v-210h-50v250h461l5 -40
h-174v-268z" />
    <glyph glyph-name="tm_Seven" unicode="&#xbed;" horiz-adv-x="734" 
d="M639 513v-513h-49v473h-136v40h185zM111 237q0 -63 26 -111.5t75.5 -76t120.5 -27.5q52 0 85 33t33 84t-33 84.5t-85 33.5q-50 0 -83.5 -33t-33.5 -84t33.5 -84.5t83.5 -33.5v-29q-47 0 -84 19t-58 52t-21 76q0 46 21 81.5t58 56t84 20.5q49 0 86.5 -20.5t59.5 -56
t22 -82.5q0 -46 -22 -81.5t-59.5 -55.5t-86.5 -20q-86 0 -148 33t-94.5 90.5t-32.5 131.5q0 82 35.5 144t107.5 97t179 35h180v-40h-171q-94 0 -156 -30t-92 -83t-30 -123z" />
    <glyph glyph-name="tm_Eight" unicode="&#xbee;" horiz-adv-x="1056" 
d="M958 -126v639h-49v-639h49zM909 85h-189q-29 -69 -85 -120.5t-134 -80t-172 -28.5q-86 0 -151.5 23t-102.5 62t-37 88q0 43 28 69.5t82 26.5h180q-45 28 -71.5 74.5t-26.5 104.5q0 67 30.5 118t84.5 80t124 29q64 0 115.5 -22.5t88.5 -63t56.5 -95.5t19.5 -120
q0 -28 -3.5 -54t-11.5 -51h175v-40zM284 304q0 -51 24 -91.5t66 -64t96 -23.5h209q8 24 12 50.5t4 54.5q0 74 -27 132t-77.5 91t-121.5 33q-55 0 -96.5 -24t-65 -64.5t-23.5 -93.5zM329 -99q118 0 205.5 50.5t128.5 133.5h-512q-33 0 -46.5 -15.5t-13.5 -40.5
q0 -35 29.5 -64t83.5 -46.5t125 -17.5z" />
    <glyph glyph-name="tm_Nine" unicode="&#xbef;" horiz-adv-x="928" 
d="M559 290q58 0 101 -25.5t67.5 -67.5t24.5 -93q0 -34 -14 -62t-38.5 -44t-57.5 -16t-58.5 16t-40 44t-14.5 62q0 45 15 83.5t42.5 66.5t64 43.5t79.5 15.5q49 0 84.5 -22t55.5 -59.5t20 -86.5q0 -45 -10 -79t-27 -72l-51 6q17 33 26 73.5t9 71.5q0 56 -28.5 89.5
t-78.5 33.5q-43 0 -76.5 -20.5t-53 -57.5t-19.5 -86q0 -33 17 -54.5t44 -21.5q25 0 40.5 21.5t15.5 54.5q0 42 -18 75t-49 52t-71 19h-329q-63 0 -96.5 -32.5t-33.5 -82.5q0 -47 36.5 -77.5t98.5 -30.5q52 0 90.5 20.5t60 60.5t21.5 97v268h-192v-210h-50v250h461l5 -40
h-174v-268q0 -71 -27.5 -121t-77.5 -76t-117 -26q-56 0 -98.5 20t-66 55t-23.5 79q0 66 47.5 110t133.5 44h330z" />
    <glyph glyph-name="tm_Ten" unicode="&#xbf0;" horiz-adv-x="774" 
d="M631 527q30 -49 48.5 -101.5t27.5 -102t9 -88.5q0 -77 -20 -134t-59.5 -88t-100.5 -31q-51 0 -89.5 23t-59.5 70q-22 -47 -60 -70t-90 -23q-61 0 -101 31t-59 88t-19 134q0 39 8.5 88.5t27.5 102t48 101.5l50 -14q-28 -40 -46.5 -91t-27 -101t-8.5 -88q0 -94 31 -150
t96 -56q60 0 92.5 44.5t32.5 138.5v128h49v-128q0 -94 33 -138.5t92 -44.5q66 0 96.5 56t30.5 150q0 38 -8.5 88t-26.5 101t-47 91z" />
    <glyph glyph-name="tm_Hundred" unicode="&#xbf1;" horiz-adv-x="955" 
d="M88 0v333q0 70 21.5 113.5t58.5 64t86 20.5q43 0 75 -18.5t53 -51.5v52h558l5 -40h-197v-473h-49v473h-267v-473h-50v317q0 74 -32 121.5t-96 47.5q-52 0 -84.5 -33.5t-32.5 -119.5v-333h-49z" />
    <glyph glyph-name="tm_Thousand" unicode="&#xbf2;" horiz-adv-x="1040" 
d="M819 250v-116h16q51 0 88 -22t58 -62t21 -90q0 -56 -27.5 -98t-78 -65.5t-117.5 -23.5h-138q-52 0 -82.5 -15.5t-47.5 -42.5l-38 25q19 33 63.5 52.5t101.5 19.5h141q79 0 124.5 42t45.5 106q0 38 -13.5 68.5t-39 48.5t-60.5 18h-17v-29q0 -54 -23.5 -93.5t-63.5 -60.5
t-94 -21q-48 0 -83.5 16t-54.5 44t-19 64q0 52 39 85.5t111 33.5h138v116h-311v-45q0 -71 -27.5 -121t-77.5 -76t-117 -26q-56 0 -98.5 20t-66 55t-23.5 79q0 53 30.5 92.5t87.5 53.5v231h461l5 -40h-174v-183h499l5 -40h-143zM216 473v-183h192v183h-192zM236 27
q52 0 90.5 20.5t60 60.5t21.5 97v45h-177q-63 0 -96.5 -32.5t-33.5 -82.5q0 -47 36.5 -77.5t98.5 -30.5zM534 14q0 -34 27 -55.5t77 -21.5q40 0 69 15.5t45.5 44.5t16.5 69v29h-136q-51 0 -75 -23t-24 -58z" />
    <glyph glyph-name="tm_Naal" unicode="&#xbf3;" horiz-adv-x="882" 
d="M872 0h-327v40h327v-40zM377 531q90 0 158.5 -35.5t107 -98t38.5 -142.5q0 -67 -23 -127.5t-60 -101.5l-53 14q36 38 59.5 92.5t23.5 122.5q0 67 -31.5 119t-88 82t-131.5 30q-83 0 -143 -32.5t-91.5 -88.5t-31.5 -128q0 -63 26 -111.5t75.5 -76t120.5 -27.5q52 0 85 33
t33 84t-33 84.5t-85 33.5q-51 0 -84 -33t-33 -84t33 -84.5t84 -33.5v-29q-47 0 -84 19t-58 52t-21 76q0 46 21 81.5t58 56t84 20.5q49 0 86.5 -20.5t59.5 -56t22 -82.5q0 -46 -22 -81.5t-59.5 -55.5t-86.5 -20q-86 0 -148 33t-94.5 90.5t-32.5 131.5q0 86 38.5 152t110 104
t170.5 38z" />
    <glyph glyph-name="tm_Maatham" unicode="&#xbf4;" horiz-adv-x="1168" 
d="M147 40v478l-49 -5v-513h446q67 0 110 30t63.5 82t20.5 119q0 87 -24 155t-70 106.5t-112 38.5q-45 0 -81.5 -19.5t-57 -59t-20.5 -100.5v-342l50 9v335q0 70 32 101t80 31t81.5 -33t51 -90.5t17.5 -131.5q0 -55 -13.5 -98.5t-44.5 -68t-83 -24.5h-397zM1168 564v40h-166
q28 20 42.5 50t14.5 67q0 46 -24.5 81.5t-67 55.5t-96.5 20q-51 0 -95 -15.5t-77.5 -44t-52.5 -67t-19 -83.5q0 -34 14.5 -62t40 -44t59.5 -16q33 0 58 16t39 44t14 62q0 61 -27 108t-72.5 74.5t-103.5 27.5q-62 0 -110 -26.5t-75 -73t-27 -106.5q0 -53 20.5 -95.5
t56.5 -68.5l58 16q-38 17 -60 56t-22 92q0 47 20.5 83t56.5 56.5t82 20.5q45 0 78.5 -21t52.5 -58t19 -85q0 -33 -16 -54.5t-42 -21.5q-28 0 -44 21.5t-16 54.5q0 49 24.5 86t68 57.5t97.5 20.5q60 0 97.5 -30.5t37.5 -80.5q0 -51 -31.5 -84t-90.5 -33v-40h284z" />
    <glyph glyph-name="tm_Varudam" unicode="&#xbf5;" horiz-adv-x="1719" 
d="M609 531q90 0 158.5 -35.5t107.5 -98t39 -142.5q0 -67 -23 -127.5t-61 -101.5l-53 14q36 38 59.5 92.5t23.5 122.5q0 67 -30.5 119t-86.5 82t-134 30q-83 0 -142.5 -32.5t-91.5 -88.5t-32 -128q0 -63 26 -111.5t75.5 -76t121.5 -27.5q52 0 84.5 33t32.5 84t-32.5 84.5
t-84.5 33.5q-51 0 -84.5 -33t-33.5 -84t33.5 -84.5t84.5 -33.5v-29q-48 0 -84.5 19t-57.5 52t-21 76q0 46 21 81.5t57.5 56t84.5 20.5q49 0 86.5 -20.5t59.5 -56t22 -82.5q0 -46 -22 -81.5t-59.5 -55.5t-86.5 -20q-86 0 -148 33t-95 90.5t-33 131.5q0 86 39 152t110.5 104
t169.5 38zM1496 349q54 0 91 -28.5t55.5 -78.5t18.5 -115q0 -96 -36.5 -164.5t-104 -112.5t-159.5 -64.5t-203 -20.5h-554q-121 0 -218 31t-166 87t-105.5 132t-36.5 166q0 59 18.5 123.5t50.5 122.5t73 96l51 -10q-40 -32 -72 -87.5t-50 -120t-18 -126.5
q0 -109 57.5 -193.5t163.5 -133t252 -48.5h554q98 -1 180 18t143 58t94.5 100.5t33.5 147.5q0 76 -28 126t-88 50q-53 0 -87.5 -38.5t-34.5 -98.5v-167h-50v473h-204v-473h-341l1 40h291v473h496l4 -40h-197v-184q22 28 53.5 44t71.5 16z" />
    <glyph glyph-name="tm_Patru" unicode="&#xbf6;" horiz-adv-x="955" 
d="M857 -130h-633q-39 0 -56 -17.5t-17 -44.5q0 -44 46 -67.5t117 -23.5q69 0 124.5 23t88 63t32.5 91v206h50v-204q0 -66 -39 -117t-105 -79.5t-151 -28.5q-64 0 -113 17t-76 48t-27 72q0 44 31 72.5t95 28.5h583v604h50v-643zM609 513v-513h-511v513l49 5v-478h412v473h50
z" />
    <glyph glyph-name="tm_Varavu" unicode="&#xbf7;" horiz-adv-x="1274" 
d="M639 290h125q20 0 38 -3.5t35 -10.5q30 18 65 27.5t75 9.5q53 0 94.5 -20t65.5 -55.5t24 -83.5q0 -35 -14.5 -64.5t-41.5 -49.5h159v-40h-275v40q57 0 87.5 32.5t30.5 81.5q0 51 -36.5 82.5t-93.5 31.5q-26 0 -49.5 -4.5t-43.5 -14.5q33 -25 51.5 -63t18.5 -82
q0 -34 -14 -62t-38.5 -44t-57.5 -16t-58.5 16t-38.5 44t-13 62q0 43 16.5 79t45.5 64q-7 2 -15 2.5t-16 0.5h-126v-250h-49v473h-201q-94 0 -156 -30t-92 -83t-30 -123q0 -56 20.5 -101t61.5 -74q-11 16 -17 36t-6 42q0 46 21 81.5t58 56t84 20.5q49 0 86.5 -20.5t59.5 -56
t22 -82.5q0 -46 -22 -81.5t-59.5 -55.5t-86.5 -20q-86 0 -148 33t-94.5 90.5t-32.5 131.5q0 82 35.5 144t107.5 97t179 35h452l5 -40h-198v-183zM216 140q0 -51 33 -84.5t84 -33.5q52 0 85 33t33 84t-33 84.5t-85 33.5q-51 0 -84 -33t-33 -84zM787 104q0 -33 15.5 -54.5
t41.5 -21.5t41.5 21.5t15.5 54.5q0 39 -15 70.5t-42 50.5q-27 -22 -42 -53t-15 -68z" />
    <glyph glyph-name="tm_Merpadi" unicode="&#xbf8;" horiz-adv-x="1813" 
d="M1355 531q49 0 83.5 -20.5t53 -57t18.5 -84.5v-612h-50v607q0 56 -26.5 89t-78.5 33q-50 0 -78.5 -31.5t-28.5 -80.5q0 -53 38.5 -89t107.5 -36q58 0 109.5 30.5t93 81.5t69.5 112l40 -13q-26 -70 -73 -128.5t-108 -93t-131 -34.5q-61 0 -105.5 22.5t-69 61t-25.5 86.5
q0 46 20 81.5t56 55.5t85 20zM1086 271q0 63 -22 111.5t-65.5 76t-109.5 27.5q-60 0 -110.5 -24t-87.5 -67t-57.5 -100t-20.5 -124q0 -62 27.5 -103t75.5 -41t74 41t26 103q0 68 -27 125.5t-76.5 100t-117 66t-148.5 23.5q-104 0 -179 -33t-116 -91.5t-41 -133.5
q0 -59 27 -106t77 -73.5t118 -26.5q52 0 85 33t33 84t-33 84.5t-85 33.5q-51 0 -84 -33t-33 -84t33 -84.5t84 -33.5v-29q-47 0 -84 19t-58 52t-21 76q0 46 21 81.5t58 56t84 20.5q49 0 86.5 -20.5t59.5 -56t22 -82.5q0 -46 -22 -81.5t-59.5 -55.5t-86.5 -20q-84 0 -145.5 32
t-95.5 88t-34 126q0 88 48 156t135.5 107.5t205.5 39.5q90 0 167 -27.5t134.5 -76.5t89.5 -114.5t32 -141.5q0 -55 -18.5 -97.5t-53 -67t-82.5 -24.5q-47 0 -82.5 24.5t-54.5 67t-19 97.5q0 74 25 139t69.5 115t104.5 78t130 28q81 0 136.5 -34t84 -93t28.5 -135
q0 -49 -13 -108t-43 -121h584v433h50v-473h-688v40q30 57 44 120t14 111z" />
    <glyph glyph-name="tm_Rupee" unicode="&#xbf9;" horiz-adv-x="1054" 
d="M425 0h-50v513h523l5 -40h-198v-184q21 28 53.5 44t72.5 16q54 0 91 -28.5t55.5 -78.5t18.5 -115q0 -87 -31 -156.5t-87.5 -119t-134.5 -76t-172 -26.5q-120 0 -211.5 37.5t-154.5 106.5t-95 165.5t-32 215.5q0 134 37.5 245t106 191.5t161.5 124t203 43.5
q76 0 137.5 -16.5t106.5 -45t69.5 -62t24.5 -67.5q0 -45 -27.5 -72t-68.5 -27q-42 0 -70.5 25.5t-29.5 63.5q-2 41 25.5 67.5t71.5 27.5q-42 27 -104.5 43t-134.5 16q-99 0 -182.5 -39.5t-144.5 -113.5t-94.5 -176.5t-33.5 -229.5q0 -109 28 -197t84 -150.5t138 -96
t190 -33.5q83 0 151.5 22.5t117.5 66t76 105t27 139.5q0 51 -12.5 90.5t-37.5 62.5t-64 23q-54 0 -89 -38.5t-35 -98.5v-167h-49v473h-231v-473zM773 680q0 -24 15.5 -40t39.5 -16q25 0 40.5 16t15.5 40t-15.5 39.5t-40.5 15.5q-24 0 -39.5 -15.5t-15.5 -39.5z" />
    <glyph glyph-name="tm_Enn" unicode="&#xbfa;" horiz-adv-x="972" 
d="M810 721q0 49 -38 80t-97 31q-55 0 -98 -20.5t-67.5 -57.5t-24.5 -86q0 -33 16.5 -54.5t43.5 -21.5q25 0 42 21.5t17 54.5q0 48 -19.5 85t-53 58t-78.5 21q-46 0 -82 -20.5t-56.5 -56.5t-20.5 -83q0 -46 17 -82t47 -56.5t69 -20.5v-37q-56 0 -98 25t-65 69.5t-23 101.5
q0 60 27.5 106.5t75 73t109.5 26.5q58 0 104 -27.5t72.5 -74.5t26.5 -108q0 -34 -14 -62t-39 -44t-58 -16q-34 0 -59.5 16t-39.5 44t-14 62q0 45 19 83.5t52 67t77 44t95 15.5q55 0 97.5 -20t66.5 -55.5t24 -81.5q0 -37 -14.5 -66.5t-42.5 -50.5h166v-40h-284v40
q59 0 90.5 33t31.5 84zM517 349q56 0 92 -28.5t54.5 -78.5t18.5 -115q0 -82 -31.5 -148t-93 -104.5t-152.5 -38.5h-102q-59 0 -101.5 -22t-64.5 -57l-39 22q24 41 76 69t122 28h109q75 0 125 33.5t74.5 90.5t24.5 128q0 77 -27 126.5t-88 49.5q-53 0 -88 -38.5t-35 -98.5
v-167h-49v473h-195v-473h-49v513h486l4 -40h-197v-184q22 28 54 44t72 16z" />
    <glyph glyph-name="uni200C" unicode="&#x200c;" horiz-adv-x="0" 
d="M-27 -68h54v1168h-54v-1168z" />
    <glyph glyph-name="uni200D" unicode="&#x200d;" horiz-adv-x="0" 
d="M0 1026l-73 74l-40 -40l74 -74l-74 -74l39 -39l47 43v-984h54v985l48 -44l39 39l-74 74l74 74l-40 40z" />
    <glyph glyph-name="endash" unicode="&#x2013;" horiz-adv-x="435" 
d="M397 295h-367l8 -44h367z" />
    <glyph glyph-name="emdash" unicode="&#x2014;" horiz-adv-x="529" 
d="M491 295h-461l8 -44h461z" />
    <glyph glyph-name="quoteleft" unicode="&#x2018;" horiz-adv-x="156" 
d="M73 509q13 0 22 6t14.5 16t5.5 20q0 14 -10 28t-29 15q1 27 18 46.5t42 33.5l-18 28q-26 -13 -46 -35.5t-31 -51t-11 -58.5q0 -20 11.5 -34t31.5 -14z" />
    <glyph glyph-name="quoteright" unicode="&#x2019;" horiz-adv-x="156" 
d="M83 702q-13 0 -22.5 -6t-15 -16t-5.5 -21q0 -9 4.5 -18.5t13.5 -16.5t21 -8q-2 -26 -18 -45.5t-41 -34.5l17 -27q27 13 46.5 35.5t31 50.5t11.5 58q0 20 -12.5 34.5t-30.5 14.5z" />
    <glyph glyph-name="quotesinglbase" unicode="&#x201a;" horiz-adv-x="156" 
d="M83 84q-13 0 -22.5 -6t-15 -15.5t-5.5 -20.5q0 -9 4.5 -18.5t13.5 -16.5t21 -7q-2 -27 -18 -46.5t-41 -34.5l17 -27q27 14 46.5 36t31 50t11.5 59q0 19 -12.5 33t-30.5 14z" />
    <glyph glyph-name="quotedblleft" unicode="&#x201c;" horiz-adv-x="289" 
d="M73 509q13 0 22 6t14.5 16t5.5 20q0 14 -10 28t-29 15q1 27 18 46.5t42 33.5l-18 28q-26 -13 -46 -35.5t-31 -51t-11 -58.5q0 -20 11.5 -34t31.5 -14zM206 509q14 0 23.5 6t14.5 16t5 20t-4.5 19.5t-13 16.5t-20.5 7q1 27 17 46.5t41 33.5l-16 28q-27 -13 -47 -35.5
t-31 -51t-11 -58.5q0 -20 12 -34t30 -14z" />
    <glyph glyph-name="quotedblright" unicode="&#x201d;" horiz-adv-x="289" 
d="M217 702q-13 0 -22.5 -6t-15 -16t-5.5 -21q0 -14 10.5 -28t28.5 -15q-1 -26 -17.5 -45.5t-41.5 -34.5l17 -27q27 13 46.5 35.5t30.5 50.5t11 58q0 20 -12 34.5t-30 14.5zM83 702q-13 0 -22.5 -6t-15 -16t-5.5 -21q0 -9 4.5 -18.5t13.5 -16.5t21 -8q-2 -26 -18 -45.5
t-41 -34.5l17 -27q27 13 46.5 35.5t31 50.5t11.5 58q0 20 -12.5 34.5t-30.5 14.5z" />
    <glyph glyph-name="quotedblbase" unicode="&#x201e;" horiz-adv-x="289" 
d="M83 85q-13 0 -22.5 -6t-15 -15.5t-5.5 -21.5q0 -9 4.5 -18.5t13.5 -16.5t21 -7q-2 -27 -18 -46.5t-41 -34.5l17 -27q27 14 46.5 36t31 50t11.5 59q0 19 -12.5 33.5t-30.5 14.5zM217 84q-13 0 -22.5 -6t-15 -15.5t-5.5 -20.5q0 -14 10.5 -28t28.5 -14q-1 -27 -17.5 -46.5
t-41.5 -34.5l17 -27q27 14 46.5 36t30.5 50t11 59q0 19 -12 33t-30 14z" />
    <glyph glyph-name="dagger" unicode="&#x2020;" horiz-adv-x="369" 
d="M154 783v-161h-124l19 -42h105l5 -580l47 -4l5 584h128l-19 42h-109v158z" />
    <glyph glyph-name="daggerdbl" unicode="&#x2021;" horiz-adv-x="376" 
d="M216 1l-2 188h132l-19 43h-113l2 305h130l-19 43h-113l3 200l-58 3l2 -203h-131l19 -43h111l-1 -305h-129l19 -43h111l-2 -195z" />
    <glyph glyph-name="bullet" unicode="&#x2022;" horiz-adv-x="202" 
d="M101 256q20 0 36 9.5t25.5 25.5t9.5 35q0 21 -9.5 36.5t-25.5 25.5t-36 10q-19 0 -35.5 -10t-26 -25.5t-9.5 -36.5q0 -19 9.5 -35t26 -25.5t35.5 -9.5z" />
    <glyph glyph-name="ellipsis" unicode="&#x2026;" horiz-adv-x="395" 
d="M71 0q17 0 28.5 11.5t11.5 28.5q0 18 -11.5 29t-28.5 11t-29 -11t-12 -29q0 -17 12 -28.5t29 -11.5zM199 0q17 0 28.5 11.5t11.5 28.5q0 18 -11.5 29t-28.5 11t-29 -11t-12 -29q0 -17 12 -28.5t29 -11.5zM325 0q17 0 28.5 11.5t11.5 28.5q0 18 -11.5 29t-28.5 11t-29 -11
t-12 -29q0 -17 12 -28.5t29 -11.5z" />
    <glyph glyph-name="perthousand" unicode="&#x2030;" horiz-adv-x="1187" 
d="M534 710l-308 -710l52 -4l309 710zM192 702q-43 0 -78 -21t-55.5 -59t-20.5 -90q0 -54 19.5 -91.5t54.5 -57.5t81 -20q42 0 76.5 20.5t55 58.5t20.5 90q0 54 -19 92t-53.5 58t-80.5 20zM192 659q41 0 70 -32t29 -95q0 -43 -14.5 -71t-37 -41.5t-46.5 -13.5
q-40 0 -70.5 32t-30.5 94q0 44 15 72t37.5 41.5t47.5 13.5zM995 338q-42 0 -77 -21t-55.5 -59t-20.5 -90q0 -54 19.5 -92t54.5 -57.5t80 -19.5q43 0 77.5 20.5t55 58.5t20.5 90q0 54 -19 92t-53.5 58t-81.5 20zM632 338q-43 0 -78 -21t-55.5 -59t-20.5 -90q0 -54 19.5 -92
t54.5 -57.5t80 -19.5q43 0 77.5 20.5t55 58.5t20.5 90q0 54 -19 92t-53.5 58t-80.5 20zM995 294q42 0 71 -31.5t29 -94.5q0 -43 -14.5 -70.5t-37 -41t-47.5 -13.5q-39 0 -69.5 31.5t-30.5 93.5q0 44 15 72t38 41t46 13zM632 294q41 0 70 -31.5t29 -94.5q0 -43 -14.5 -70.5
t-37 -41t-47.5 -13.5q-39 0 -69.5 31.5t-30.5 93.5q0 44 15 72t38 41t47 13z" />
    <glyph glyph-name="guilsinglleft" unicode="&#x2039;" horiz-adv-x="211" 
d="M30 226l140 -143l21 39l-114 123l114 123l-21 40l-140 -144v-38z" />
    <glyph glyph-name="guilsinglright" unicode="&#x203a;" horiz-adv-x="212" 
d="M182 264l-140 144l-22 -39l116 -123l-116 -124l22 -39l140 144v37z" />
    <glyph glyph-name="fraction" unicode="&#x2044;" horiz-adv-x="380" 
d="M416 700l-502 -834h55l496 834h-49z" />
    <glyph glyph-name="foursuperior" unicode="&#x2074;" horiz-adv-x="401" 
d="M376 415h-81v352h-32l-253 -352l4 -39h233v-93h48v93h77zM247 676v-261h-185z" />
    <glyph glyph-name="Euro" unicode="&#x20ac;" horiz-adv-x="593" 
d="M0 450l7 -44h414l-7 44h-414zM0 269l7 -44h414l-7 44h-414zM565 657q-18 13 -49 21t-62.5 12t-52.5 4q-73 0 -131.5 -27.5t-99 -76.5t-62 -114t-21.5 -140q0 -69 19 -132t57 -112t96 -77.5t136 -28.5q29 0 61.5 5t61.5 13.5t47 18.5l-24 42q-27 -12 -61.5 -21t-88.5 -9
q-58 0 -103.5 24t-76.5 66t-47.5 96.5t-16.5 115.5q0 92 33.5 161.5t91 108.5t128.5 39q36 0 60.5 -4t44.5 -10.5t40 -15.5z" />
    <glyph glyph-name="Turkishlira" unicode="&#x20ba;" horiz-adv-x="486" 
d="M108 0h55q56 0 110.5 26t98 72t69 106t25.5 127h-53q0 -55 -22 -106.5t-59 -92t-81 -64t-88 -23.5v349l182 65l-8 41l-174 -62v62l182 64l-8 41l-174 -62v163l-55 -10v-172l-108 -38l7 -42l101 35v-60l-108 -38l7 -42l101 36v-375z" />
    <glyph glyph-name="Ruble" unicode="&#x20bd;" horiz-adv-x="549" 
d="M443 204h-406l5 -43h406zM153 0v264h103q53 0 99 12.5t81.5 38t55.5 65.5t20 95q0 74 -32 119t-87 65.5t-126 20.5h-169v-680h55zM274 634q55 0 95.5 -15.5t63.5 -50.5t23 -94q0 -56 -26 -93t-69.5 -54.5t-97.5 -17.5h-110v325h121zM125 308h-88l5 -42h88z" />
    <glyph glyph-name="litre" unicode="&#x2113;" horiz-adv-x="344" 
d="M23 185q9 6 19 12.5t20.5 14.5t20.5 15v-89q0 -46 13.5 -79.5t42.5 -52t73 -18.5q13 0 26.5 2.5t26.5 8.5t21 13l-16 38q-12 -5 -26 -10t-29 -5q-29 0 -46 14.5t-24 38t-7 51.5v135q47 44 87 95t64.5 103.5t24.5 101.5q0 40 -14.5 68.5t-40.5 44t-60 15.5t-60.5 -16
t-41 -46t-14.5 -74v-276q-9 -9 -22 -19.5t-26.5 -21t-24.5 -17.5zM138 343v223q0 49 18.5 69t42.5 21q24 0 41.5 -20t17.5 -64q0 -57 -35.5 -116.5t-84.5 -112.5z" />
    <glyph glyph-name="trademark" unicode="&#x2122;" horiz-adv-x="714" 
d="M288 680h-278v-38h117v-336h48v336h116zM519 420l104 153v-267h44v374h-21l-133 -197l-138 197h-19v-374h46v266l105 -154z" />
    <glyph glyph-name="Ohm" unicode="&#x2126;" horiz-adv-x="709" 
d="M603 338q0 -40 -9.5 -84.5t-27 -85.5t-41.5 -72.5t-53 -48.5l-5 -47h189l5 44h-120q38 28 64.5 75.5t41.5 104.5t15 113q0 100 -36.5 181t-104.5 129t-165 49q-96 -1 -165 -49t-106 -129t-37 -181q0 -56 14.5 -113t41.5 -104.5t64 -75.5h-119l5 -44h190l-5 47
q-29 17 -53 48.5t-41.5 72.5t-27 85.5t-9.5 84.5q0 88 32 157.5t88.5 110t127.5 40.5q72 0 127.5 -40.5t87.5 -110t32 -157.5z" />
    <glyph glyph-name="estimated" unicode="&#x212e;" horiz-adv-x="486" 
d="M448 241v5q0 72 -23 129t-66 90t-106 33q-71 0 -119 -33t-72 -90t-24 -130q0 -75 25.5 -133.5t78 -91.5t133.5 -33q28 0 57 5.5t56.5 15t48.5 21.5l-20 41q-31 -16 -65.5 -27t-82.5 -11q-62 0 -100.5 28t-56 75.5t-18.5 105.5h354zM96 280q5 48 22.5 87t49.5 62t80 23
t78 -23t45.5 -62t19.5 -87h-295z" />
    <glyph glyph-name="partialdiff" unicode="&#x2202;" horiz-adv-x="525" 
d="M487 240q0 84 -21 160t-65 141.5t-115 118t-172 90.5l-16 -37q101 -42 165.5 -95t101 -114.5t51.5 -128.5t15 -136q0 -56 -20.5 -103t-58.5 -75t-92 -28t-91 28.5t-56 77t-19 107.5q1 57 21 103.5t58.5 74.5t91.5 28q31 0 59.5 -9t53.5 -26t45 -41l27 20q-24 31 -50 53.5
t-58.5 35.5t-75.5 13q-71 0 -122 -33.5t-78.5 -90.5t-27.5 -129q0 -75 25.5 -133t74.5 -91.5t121 -33.5q71 1 122 34t78.5 90t27.5 129z" />
    <glyph glyph-name="Delta" unicode="&#x2206;" horiz-adv-x="581" 
d="M257 680l-247 -680h561v11l-259 669h-55zM499 44h-420l206 564z" />
    <glyph glyph-name="product" unicode="&#x220f;" horiz-adv-x="601" 
d="M98 0h52v639h300v-639h54v680h-406v-680z" />
    <glyph glyph-name="summation" unicode="&#x2211;" horiz-adv-x="437" 
d="M390 680h-360v-45l205 -290l-205 -295v-50h387l-5 50h-319l192 280v30l-192 275h303z" />
    <glyph glyph-name="minus" unicode="&#x2212;" horiz-adv-x="471" 
d="M432 295h-402l8 -44h403z" />
    <glyph glyph-name="divisionslash" unicode="&#x2215;" horiz-adv-x="380" 
d="M318 710l-308 -710l51 -4l309 710z" />
    <glyph glyph-name="bulletmath" unicode="&#x2219;" horiz-adv-x="202" 
d="M101 256q20 0 36 9.5t25.5 25.5t9.5 35q0 21 -9.5 36.5t-25.5 25.5t-36 10q-19 0 -35.5 -10t-26 -25.5t-9.5 -36.5q0 -19 9.5 -35t26 -25.5t35.5 -9.5z" />
    <glyph glyph-name="radical" unicode="&#x221a;" horiz-adv-x="528" 
d="M467 710l-264 -652l-139 263l-54 -4l168 -317l48 -4l292 710z" />
    <glyph glyph-name="infinity" unicode="&#x221e;" horiz-adv-x="816" 
d="M233 458q-58 0 -102.5 -28.5t-68.5 -76.5t-24 -107t23.5 -104t67.5 -70t104 -25q37 0 67.5 17.5t55 45t41.5 58.5q21 -34 50 -61.5t64 -43.5t72 -16q60 0 104 28t67.5 76.5t23.5 106.5q0 60 -23.5 105t-67.5 70t-104 25q-37 0 -68 -17t-55 -44.5t-41 -58.5
q-20 33 -49.5 60t-64 43.5t-72.5 16.5zM422 212l12 37q8 24 21.5 52t32 52.5t42 40.5t52.5 16q44 0 76 -19.5t49.5 -53.5t17.5 -78q0 -47 -17.5 -84.5t-49.5 -58.5t-77 -21q-36 0 -66 16.5t-53 43t-40 57.5zM395 293l-13 -38q-9 -25 -22 -53.5t-31 -52.5t-41.5 -39
t-52.5 -15q-43 0 -75.5 19t-50 53.5t-17.5 77.5q0 48 17.5 85t50 58.5t76.5 21.5q36 0 65.5 -16.5t53.5 -42.5t40 -58z" />
    <glyph glyph-name="integral" unicode="&#x222b;" horiz-adv-x="299" 
d="M177 653q0 37 15.5 60t53.5 23q7 0 17.5 -2.5t23.5 -6.5l12 43q-6 3 -16.5 6t-23 5t-26.5 2q-36 0 -60.5 -17t-37.5 -48t-13 -74v-693q0 -36 -15.5 -59t-53.5 -23q-10 0 -22.5 3t-18.5 6l-12 -44q7 -2 17 -5.5t23 -5.5t26 -2q36 0 61 17.5t37.5 48.5t12.5 73v693z" />
    <glyph glyph-name="approxequal" unicode="&#x2248;" horiz-adv-x="500" 
d="M428 382q-3 -14 -14 -23t-25 -12.5t-27 -3.5q-19 0 -45.5 5.5t-59.5 16.5q-67 22 -111 22q-18 0 -37 -3.5t-36.5 -12t-29 -22.5t-13.5 -36l41 -10q4 15 15.5 23.5t26.5 12t27 3.5q44 0 112 -22q35 -11 61 -17t43 -6t36 3.5t36 12t28.5 23t13.5 36.5zM428 205
q-3 -15 -14 -23.5t-25 -12.5t-27 -4q-19 0 -45.5 6t-59.5 17q-67 22 -111 22q-18 0 -37 -3.5t-36.5 -12t-29 -23t-13.5 -36.5l41 -9q4 14 15.5 22.5t26.5 12.5t27 4q44 0 112 -22q35 -11 61 -17t43 -6t36 3.5t36 12t28.5 22.5t13.5 36z" />
    <glyph glyph-name="notequal" unicode="&#x2260;" horiz-adv-x="497" 
d="M338 522l-66 -151h-242l8 -44h214l-63 -143h-159l8 -44h132l-67 -150l49 -4l69 154h246l-7 44h-221l64 143h164l-7 44h-138l65 147z" />
    <glyph glyph-name="lessequal" unicode="&#x2264;" horiz-adv-x="322" 
d="M302 145l-219 145l219 142l-23 38l-249 -163v-37l249 -162zM293 44h-262l8 -44h260z" />
    <glyph glyph-name="greaterequal" unicode="&#x2265;" horiz-adv-x="322" 
d="M292 308l-249 162l-23 -36l219 -144l-219 -143l23 -39l249 163v37zM282 44h-262l8 -44h260z" />
    <glyph glyph-name="lozenge" unicode="&#x25ca;" horiz-adv-x="520" 
d="M271 0l219 292v15l-219 292h-22l-219 -292v-15l219 -292h22zM259 539l178 -240l-178 -238l-174 238z" />
    <glyph glyph-name="uni25CC" unicode="&#x25cc;" horiz-adv-x="615" 
d="M307 459q13 0 21 8t8 21t-8 21.5t-21 8.5t-21 -8.5t-8 -21.5t8 -21t21 -8zM397 444q13 0 21 8t8 21t-8 21t-21 8t-21 -8t-8 -21q0 -29 29 -29zM218 502q-13 0 -21 -8t-8 -21t8 -21t21 -8t21 8t8 21t-8 21t-21 8zM473 393q13 0 21.5 8t8.5 21t-8.5 21.5t-21.5 8.5
t-21 -8.5t-8 -21.5t8 -21t21 -8zM142 452q-13 0 -21.5 -8.5t-8.5 -21.5t8.5 -21t21.5 -8t21 8t8 21t-8 21.5t-21 8.5zM521 314q13 0 21 8t8 21t-8 21.5t-21 8.5t-21 -8.5t-8 -21.5t8 -21t21 -8zM94 373q-13 0 -21.5 -8.5t-8.5 -21.5t8.5 -21t21.5 -8t21 8t8 21t-8 21.5
t-21 8.5zM535 229q13 0 21.5 7.5t8.5 20.5q0 14 -8.5 22t-21.5 8t-21 -8t-8 -22q0 -13 8 -20.5t21 -7.5zM80 287q-13 0 -21.5 -8t-8.5 -22q0 -13 8.5 -20.5t21.5 -7.5t21 7.5t8 20.5q0 14 -8 22t-21 8zM521 145q13 0 21 8t8 21t-8 21t-21 8t-21 -8t-8 -21t8 -21t21 -8z
M94 203q-13 0 -21.5 -8t-8.5 -21t8.5 -21t21.5 -8t21 8t8 21t-8 21t-21 8zM474 65q13 0 21.5 8t8.5 21t-8.5 21t-21.5 8t-21 -8t-8 -21t8 -21t21 -8zM141 123q-13 0 -21.5 -8t-8.5 -21t8.5 -21t21.5 -8t21 8t8 21t-8 21t-21 8zM218 74q-13 0 -21 -8.5t-8 -21.5t8 -21t21 -8
t21 8t8 21t-8 21.5t-21 8.5zM397 15q13 0 21 8t8 21t-8 21.5t-21 8.5t-21 -8.5t-8 -21.5t8 -21t21 -8zM307 0q13 0 21 8t8 21t-8 21.5t-21 8.5t-21 -8.5t-8 -21.5t8 -21t21 -8z" />
    <glyph glyph-name="commaaccent" unicode="&#xf6c3;" horiz-adv-x="0" 
d="M73 -21q-12 0 -22 -6t-15.5 -15.5t-5.5 -21.5q0 -13 10.5 -27t28.5 -15q-1 -27 -17.5 -46.5t-41.5 -34.5l17 -27q27 13 46.5 35.5t31 51t11.5 58.5q0 20 -12.5 34t-30.5 14z" />
    <glyph glyph-name="fi" unicode="&#xfb01;" horiz-adv-x="459" 
d="M19 431h73v-431h55v431h109l-21 41h-88v100q0 36 15.5 59t53.5 23q10 0 22.5 -3t18.5 -6l12 44q-6 3 -16.5 6t-23 5t-26.5 2q-36 0 -61 -17t-37.5 -48.5t-12.5 -73.5v-91h-73v-41zM392 0v485h-55v-485h55zM364 596q18 0 30.5 12t12.5 30t-13 30t-30 12q-19 0 -30.5 -12
t-11.5 -30t11.5 -30t30.5 -12z" />
    <glyph glyph-name="fl" unicode="&#xfb02;" horiz-adv-x="479" 
d="M19 431h73v-431h55v431h109l-21 41h-88v100q0 36 15.5 59t53.5 23q10 0 22.5 -3t18.5 -6l12 44q-6 3 -16.5 6t-23 5t-26.5 2q-36 0 -61 -17t-37.5 -48.5t-12.5 -73.5v-91h-73v-41zM402 0v706l-55 -10v-696h55z" />
    <glyph glyph-name="grave.case" horiz-adv-x="141" 
d="M95 739l36 12l-55 141h-66z" />
    <glyph glyph-name="dieresis.case" horiz-adv-x="258" 
d="M50 768q17 0 28.5 11.5t11.5 28.5t-11.5 28t-28.5 11t-28.5 -11t-11.5 -28t11.5 -28.5t28.5 -11.5zM208 768q17 0 28.5 11.5t11.5 28.5t-11.5 28t-28.5 11q-18 0 -29 -11t-11 -28t11 -28.5t29 -11.5z" />
    <glyph glyph-name="macron.case" horiz-adv-x="261" 
d="M10 790h241l-5 43h-236v-43z" />
    <glyph glyph-name="acute.case" horiz-adv-x="141" 
d="M46 739l85 153h-66l-55 -141z" />
    <glyph glyph-name="circumflex.case" horiz-adv-x="276" 
d="M138 853l79 -113l49 12l-104 141h-49l-103 -143l47 -10z" />
    <glyph glyph-name="caron.case" horiz-adv-x="276" 
d="M139 778l-80 114l-49 -10l104 -143h49l103 141l-47 12z" />
    <glyph glyph-name="breve.case" horiz-adv-x="280" 
d="M226 881q0 -33 -22.5 -60t-63.5 -27q-42 0 -64.5 27.5t-22.5 59.5h-43q0 -33 14.5 -63t43 -48.5t72.5 -18.5q45 0 73.5 18.5t42.5 48.5t14 63h-44z" />
    <glyph glyph-name="dotaccent.case" horiz-adv-x="105" 
d="M53 768q17 0 29.5 12.5t12.5 30.5q0 17 -12.5 29.5t-29.5 12.5q-19 0 -31 -12.5t-12 -30.5q0 -17 12 -29.5t31 -12.5z" />
    <glyph glyph-name="ring.case" horiz-adv-x="197" 
d="M99 909q-24 0 -44 -11t-32.5 -30t-12.5 -43q0 -35 26.5 -58t62.5 -23q24 0 44 10.5t32 29t12 41.5q0 24 -12 43t-32 30t-44 11zM99 778q-20 0 -33.5 13.5t-13.5 33.5q0 21 13.5 35t33.5 14t33.5 -14t13.5 -35q0 -20 -13.5 -33.5t-33.5 -13.5z" />
    <glyph glyph-name="tilde.case" horiz-adv-x="299" 
d="M248 849q-2 -23 -13.5 -35.5t-28.5 -12.5q-13 0 -25 6.5t-23 19.5t-27.5 19.5t-37.5 6.5q-22 0 -41 -9t-30.5 -28.5t-11.5 -53.5h42q2 23 13 36t29 13q13 0 26 -6.5t26 -19.5t28 -20t32 -7q23 0 42 9t30 29.5t11 52.5h-41z" />
    <glyph glyph-name="hungarumlaut.case" horiz-adv-x="274" 
d="M46 739l85 153h-66l-55 -141zM179 739l85 153h-65l-55 -141z" />
    <glyph glyph-name="tm_LllUu" horiz-adv-x="1223" 
d="M574 518l-50 -5v-513h446q68 0 111 30t63.5 82t20.5 119q0 87 -24.5 155t-70.5 106.5t-112 38.5q-45 0 -81.5 -19.5t-56.5 -59t-20 -100.5v-365q0 -40 9 -71.5t49 -48.5q-32 -22 -76.5 -38.5t-98.5 -25t-116 -8.5q-96 0 -176 27t-138.5 78t-90 122t-31.5 157
q0 63 14.5 119t43 98t66.5 66t85 24q29 0 47 -18.5t18 -48.5q0 -28 -18 -47t-47 -19t-47.5 19t-18.5 47q0 30 18.5 48.5t47.5 18.5v35q-48 0 -79 -29t-31 -74q0 -46 31 -76.5t79 -30.5q33 0 58.5 14t40 38.5t14.5 55.5q0 49 -31.5 80.5t-81.5 31.5q-57 0 -104.5 -28
t-83 -76.5t-55 -112t-19.5 -135.5q0 -96 35.5 -175t101 -136t155 -88t197.5 -31q78 0 146 14.5t121 40t86 55.5h165l-5 40h-172q-31 0 -45 20t-14 61v374q0 70 32 101t81 31q48 0 81 -33t50.5 -90.5t17.5 -131.5q0 -55 -13.5 -98.5t-44.5 -68t-83 -24.5h-396v478z" />
    <glyph glyph-name="tm_VowelU.alt2" horiz-adv-x="464" 
d="M258 473h-527v40h527q49 0 86.5 -20t59.5 -55.5t22 -81.5t-22 -82t-59.5 -56.5t-86.5 -20.5t-87 20.5t-59.5 56.5t-21.5 81t21 80.5t59 55.5t88 20v-38q-52 0 -85.5 -33.5t-33.5 -84.5t33.5 -84t85.5 -33q50 0 82.5 33.5t32.5 84.5q0 52 -32.5 84.5t-82.5 32.5z" />
    <glyph glyph-name="tm_VowelUu.alt1" horiz-adv-x="426" 
d="M218 473v-603h-49v603h-316v40h558l5 -40h-198z" />
    <glyph glyph-name="tm_CU" horiz-adv-x="805" 
d="M645 0h-49v268l49 3v-271zM458 205q0 -71 -27.5 -121t-77.5 -76t-117 -26q-56 0 -98.5 20t-66 55t-23.5 79q0 66 47.5 110t133.5 44h533l5 -40h-536q-63 0 -96.5 -32.5t-33.5 -82.5q0 -47 36.5 -77.5t98.5 -30.5q52 0 90.5 20.5t60 60.5t21.5 97v268h-192v-210h-50v250
h461l5 -40h-174v-268z" />
    <glyph glyph-name="tm_MUu" horiz-adv-x="1223" 
d="M574 518v-478h396q52 0 83 24.5t44.5 68t13.5 98.5q0 74 -17.5 131.5t-50.5 90.5t-81 33q-49 0 -81 -31t-32 -101v-332q0 -59 -24 -109t-70 -86.5t-110.5 -57t-144.5 -20.5q-97 0 -175 30t-133.5 84.5t-84.5 129.5t-29 165q0 80 19.5 147.5t55 118t83 79t104.5 28.5
q50 0 81.5 -31.5t31.5 -80.5q0 -31 -14.5 -55.5t-40 -38.5t-58.5 -14q-48 0 -79 30.5t-31 76.5q0 45 31 74t79 29v-35q-29 0 -47.5 -18.5t-18.5 -48.5q0 -28 18.5 -47t47.5 -19t47 19t18 47q0 30 -18 48.5t-47 18.5q-47 0 -85 -24t-66.5 -68.5t-43 -104t-14.5 -131.5
q0 -80 25.5 -147t73 -115t116 -74.5t154.5 -26.5q92 0 159.5 29.5t104 80.5t36.5 117v330q0 61 20 100.5t56 59t82 19.5q66 0 112 -38.5t70.5 -106.5t24.5 -155q0 -67 -20.5 -119t-63.5 -82t-111 -30h-446v513z" />
    <glyph glyph-name="tm_TtU" horiz-adv-x="779" 
d="M554 349q42 0 73.5 -20.5t52 -56t31 -82.5t10.5 -99q0 -99 -37 -176t-107.5 -121.5t-173.5 -44.5q-104 0 -176.5 50t-110.5 137t-38 198q0 53 10.5 108t29.5 108t45.5 98t56.5 75l50 -10q-30 -27 -55.5 -68.5t-44.5 -93.5t-29 -108t-10 -111q0 -97 31 -173.5t92 -120
t149 -43.5q87 0 146 38.5t89 105.5t30 153q0 57 -11.5 104.5t-37.5 77t-67 29.5q-55 0 -88.5 -38t-33.5 -98v-167h-49v513h49v-222q22 28 53.5 43t70.5 15z" />
    <glyph glyph-name="tm_LlU" horiz-adv-x="1574" 
d="M1013 -196q97 0 179.5 19t143.5 58t94.5 100t33.5 147q0 76 -28.5 126t-86.5 50q-54 0 -89 -38.5t-35 -98.5h-39q0 51 21 92.5t58 65.5t86 24q54 0 91 -28.5t55.5 -78.5t18.5 -115q0 -96 -36.5 -164.5t-104 -112.5t-160 -64.5t-202.5 -20.5h-404q-122 0 -220.5 31
t-168 87t-106 132t-36.5 166q0 59 18.5 123.5t50.5 122.5t73 96l51 -10q-40 -32 -72 -87.5t-50 -120t-18 -126.5q0 -78 33 -146t95 -119.5t150.5 -80.5t199.5 -29h404zM349 237q0 -63 26 -111.5t75.5 -76t120.5 -27.5q52 0 85 33t33 84t-33 84.5t-85 33.5q-51 0 -84 -33
t-33 -84t33 -84.5t84 -33.5v-29q-47 0 -84 19t-58 52t-21 76q0 46 21 81.5t58 56t84 20.5q49 0 86.5 -20.5t59.5 -56t22 -82.5q0 -46 -22 -81.5t-59.5 -55.5t-86.5 -20q-86 0 -148 33t-94.5 90.5t-32.5 131.5q0 86 38 152t108 104t168 38q83 0 150.5 -38.5t105.5 -104.5v125
h558l5 -40h-197v-473h-50v473h-267v-473h-49v228q0 75 -33.5 133t-91.5 91.5t-131 33.5q-82 0 -140.5 -32.5t-89.5 -88.5t-31 -128z" />
    <glyph glyph-name="tm_LllU" horiz-adv-x="1074" 
d="M701 354q0 70 32 101t81 31q48 0 81 -33t50.5 -90.5t17.5 -131.5q0 -55 -14 -98.5t-45 -68t-82 -24.5h-397v478l-50 -5v-513h447q67 0 110.5 30t64 82t20.5 119q0 87 -24.5 155t-71 106.5t-111.5 38.5q-46 0 -82 -19.5t-56 -59t-20 -100.5v-354q0 -40 9 -71.5t49 -48.5
q-37 -44 -96 -63.5t-134 -19.5q-81 0 -146 25t-110 70t-69 107t-24 135q0 51 9.5 106.5t26 108.5t38.5 96.5t47 69.5l-50 10q-25 -30 -47.5 -76.5t-40 -100.5t-27 -108.5t-9.5 -103.5q0 -83 27.5 -153.5t80 -122.5t127 -80.5t167.5 -28.5q62 0 117.5 14.5t98.5 41.5t67 65
h173l-4 39h-172q-21 0 -34 9t-19 27t-6 45v364z" />
    <glyph glyph-name="tm_Shree" horiz-adv-x="1735" 
d="M1174 -196q98 0 180.5 19t143 58t94 100t33.5 147q0 76 -28 126t-87 50q-53 0 -88 -38.5t-35 -98.5v-167h-50v473h-230v-473h-50v317q0 74 -32 121.5t-96 47.5q-51 0 -84 -33.5t-33 -119.5v-333h-457v513l50 5v-478h357v293q0 70 21.5 113.5t59.5 64t86 20.5
q43 0 75 -18.5t53 -51.5v52h241q-34 26 -53.5 67t-19.5 92q0 60 27.5 106.5t75 73t109.5 26.5q59 0 105.5 -26t73 -69t26.5 -92q0 -44 -27.5 -73.5t-69.5 -29.5q-43 0 -71 25.5t-30 63.5q-1 41 27 68t71 27q9 0 16.5 -1t14.5 -4q-20 31 -55 48t-81 17t-82 -20.5t-56.5 -56.5
t-20.5 -83q0 -46 17 -82t46.5 -56.5t69.5 -20.5h169l4 -40h-197v-185q21 28 53.5 44.5t72.5 16.5q54 0 90.5 -28.5t55.5 -78.5t19 -115q0 -96 -37 -164.5t-104.5 -112.5t-159.5 -64.5t-203 -20.5h-570q-121 0 -218 31t-166 87t-105.5 132t-36.5 166q0 59 18.5 123.5
t50.5 122.5t73 96l51 -10q-40 -32 -72 -87.5t-50 -120t-18 -126.5q0 -80 33 -148t94.5 -119t148.5 -79.5t197 -28.5h570zM1492 680q0 -23 15 -38t38 -15t38.5 15t15.5 38q0 22 -15.5 37t-38.5 15t-38 -15t-15 -37z" />
    <glyph glyph-name="tm_VowelI.alt4" horiz-adv-x="242" 
d="M-212 797q115 0 194.5 -38t122 -104t42.5 -152v-503h-49v503q0 73 -36 129t-105 88t-169 32q-108 0 -163.5 -34.5t-55.5 -90.5q0 -51 38.5 -82.5t109.5 -31.5v-33q-93 0 -147 40.5t-55 106.5q0 50 32 88t93 60t148 22z" />
    <glyph glyph-name="tm_VUu" horiz-adv-x="1219" 
d="M1047 72q51 0 87 -22.5t55.5 -61.5t19.5 -88q0 -85 -47 -140t-129 -81.5t-186 -26.5h-570q-63 0 -112 12.5t-77 38.5t-28 66q0 47 34.5 78.5t89.5 31.5h590v-40h-590q-33 0 -52 -20t-19 -50q0 -40 46 -58.5t118 -18.5h570q90 0 159.5 22t109.5 68t40 119q0 53 -29 89.5
t-82 36.5q-54 0 -89 -38.5t-35 -98.5v-81h-49v294h49v-91q22 28 54 44t72 16zM628 255q0 67 -31 119t-87 82t-133 30q-83 0 -143 -32.5t-91.5 -88.5t-31.5 -128q0 -63 26 -111.5t75.5 -76t120.5 -27.5q52 0 85 33t33 84t-33 84.5t-85 33.5q-51 0 -84 -33t-33 -84t33 -84.5
t84 -33.5v-29q-47 0 -84 19t-58 52t-21 76q0 46 21 81.5t58 56t84 20.5q49 0 86.5 -20.5t59.5 -56t22 -82.5q0 -46 -22 -81.5t-59.5 -55.5t-86.5 -20q-86 0 -148 33t-94.5 90.5t-32.5 131.5q0 86 38.5 152t110 104t170.5 38q90 0 158.5 -35.5t107 -98t38.5 -142.5
q0 -63 -19.5 -118.5t-52.5 -96.5h263v473h49v-513h-376v40q36 38 59.5 92.5t23.5 122.5z" />
    <glyph glyph-name="tm_KU" horiz-adv-x="1023" 
d="M435 263v250h461l5 -40h-174v-268q0 -71 -27.5 -121t-77.5 -76t-116 -26q-56 0 -99 20t-66.5 55t-23.5 79q0 66 48 110t133 44h244q72 0 121.5 -28.5t75.5 -79t26 -117.5q0 -70 -28.5 -128t-83 -100t-133 -65t-177.5 -23q-145 0 -249 52.5t-160 144.5t-56 209
q0 48 10.5 100.5t29.5 103t45.5 93.5t56.5 71l51 -10q-30 -24 -55.5 -64.5t-45 -89.5t-29.5 -102t-10 -104q0 -103 49 -184.5t141.5 -127.5t221.5 -46q117 0 199.5 34t126 94.5t43.5 140.5q0 55 -19 97t-56.5 65.5t-93.5 23.5h-243q-64 0 -97 -32.5t-33 -82.5
q0 -47 37 -77.5t99 -30.5q52 0 90.5 20.5t59.5 60.5t21 97v268h-192v-210h-50z" />
    <glyph glyph-name="tm_LlUu" horiz-adv-x="1759" 
d="M606 -196h592q97 0 179.5 19t143.5 58t94.5 100t33.5 147q0 76 -28.5 126t-86.5 50q-54 0 -89 -38.5t-35 -98.5h-39q0 51 21 92.5t58 65.5t86 24q54 0 91 -28.5t55.5 -79t18.5 -114.5q0 -96 -36.5 -164.5t-104 -112.5t-160 -64.5t-202.5 -20.5h-592q-119 0 -217 29
t-167.5 82.5t-106.5 125.5t-37 158q0 78 19.5 146t55 118.5t83 78.5t104.5 28q33 0 58.5 -14.5t40 -39.5t14.5 -58q0 -31 -14.5 -55.5t-40 -38.5t-58.5 -14q-48 0 -79 30.5t-31 76.5q0 45 31 74t79 29v-35q-29 0 -47.5 -18.5t-18.5 -48.5q0 -28 18.5 -47t47.5 -19t47 19
t18 47q0 30 -18 48.5t-47 18.5q-62 0 -109.5 -42t-73.5 -116t-26 -168q0 -77 33.5 -142t95.5 -113t150 -74.5t196 -26.5zM534 237q0 -63 25.5 -111.5t75.5 -76t121 -27.5q52 0 85 33t33 84t-33 84.5t-85 33.5q-51 0 -84 -33t-33 -84t33 -84.5t84 -33.5v-29q-47 0 -84 19
t-58 52t-21 76q0 46 21 81.5t58 56t84 20.5q49 0 86.5 -20.5t59.5 -56t22 -82.5q0 -46 -22 -81.5t-59.5 -55.5t-86.5 -20q-86 0 -148 33t-94.5 90.5t-32.5 131.5q0 86 37.5 152t108 104t168.5 38q83 0 150.5 -38.5t105.5 -104.5v125h558l5 -40h-198v-473h-49v473h-267v-473
h-49v228q0 75 -33.5 133t-91.5 91.5t-131 33.5q-82 0 -140.5 -32.5t-89.5 -88.5t-31 -128z" />
    <glyph glyph-name="tm_VowelAi.alt" horiz-adv-x="355" 
d="M232 596q-50 0 -82.5 -17t-49 -48.5t-16.5 -74.5q0 -24 16 -40.5t40 -16.5q25 0 42 16t18 40q0 27 -16.5 43.5t-41.5 16.5q-26 0 -42.5 -16.5t-15.5 -42.5l-33 -1q-1 44 25.5 71.5t67.5 27.5q46 0 74.5 -27.5t26.5 -71.5q0 -40 -30 -67t-75 -26q-44 1 -73 28t-29 69
q0 51 24 92.5t67.5 66t102.5 24.5q51 0 89 -20t59 -55t21 -80q0 -36 -15.5 -67.5t-41 -59.5t-55.5 -55l-81 -72q-33 -29 -47 -56t-14 -53q0 -40 30 -68.5t82 -28.5q46 0 81.5 23.5t55.5 63.5t19 91l41 -4q0 -64 -25.5 -114t-69.5 -77.5t-102 -27.5q-50 0 -87 18.5t-57.5 50
t-20.5 70.5q0 24 9 48.5t28 50t49 52.5l81 73q22 21 42 41.5t32.5 46t12.5 57.5q0 30 -15 54t-41 38t-60 14z" />
    <glyph glyph-name="tm_KUu" horiz-adv-x="1056" 
d="M1046 0h-244l32 40h212v-40zM559 290q58 0 101 -25.5t67.5 -67.5t24.5 -93q0 -34 -14 -62t-38.5 -44t-57.5 -16t-58.5 16t-40 44t-14.5 62q0 45 15 83.5t42.5 66.5t64 43.5t79.5 15.5q49 0 84.5 -22t55.5 -59.5t20 -86.5q0 -33 -5 -59.5t-15 -51.5l-68 -34q17 33 26 73.5
t9 71.5q0 56 -28.5 89.5t-78.5 33.5q-43 0 -76.5 -20.5t-53 -57.5t-19.5 -86q0 -33 17 -54.5t44 -21.5q25 0 40.5 21.5t15.5 54.5q0 42 -18 75t-49 52t-71 19h-329q-63 0 -96.5 -32.5t-33.5 -82.5q0 -47 36.5 -77.5t98.5 -30.5q52 0 90.5 20.5t60 60.5t21.5 97v268h-192
v-210h-50v250h461l5 -40h-174v-268q0 -71 -27.5 -121t-77.5 -76t-117 -26q-56 0 -98.5 20t-66 55t-23.5 79q0 66 47.5 110t133.5 44h330z" />
    <glyph glyph-name="tm_NU" horiz-adv-x="972" 
d="M391 473v-473h-49v473h-195v-473h-49v513h486l4 -40h-197zM682 127q0 -142 -43.5 -244t-126.5 -157t-204 -55q-64 0 -111.5 17.5t-73 48t-25.5 70.5q0 46 33 74t97 28h598v604h49v-643h-647q-41 0 -59 -17t-18 -46q0 -42 42 -66t115 -24q85 0 146 30t99.5 85.5t57 130.5
t18.5 165q0 77 -27 126.5t-88 49.5q-53 0 -88 -38.5t-35 -98.5h-39q0 51 20.5 92.5t57.5 65.5t87 24q56 0 92 -28.5t54.5 -78.5t18.5 -115z" />
    <glyph glyph-name="tm_VowelI.alt1" horiz-adv-x="242" 
d="M-139 797q87 0 151 -38t99.5 -104t35.5 -152v-503h-49v503q0 73 -29 129t-82 88t-126 32q-83 0 -129 -34.5t-46 -90.5q0 -37 20 -69.5t57 -45.5l-51 -19q-36 20 -57 57t-22 77q0 50 27.5 88t79 60t121.5 22z" />
    <glyph glyph-name="tm_VowelI.alt2" horiz-adv-x="242" 
d="M-245 797q94 0 167.5 -21.5t123 -61t75.5 -93.5t26 -118v-503h-49v503q0 73 -39.5 129t-115.5 88t-188 32q-113 0 -174.5 -34.5t-61.5 -90.5q0 -39 22 -67t63 -40l-33 -26q-49 17 -76.5 52t-28.5 81q0 50 34.5 88t99.5 60t155 22z" />
    <glyph glyph-name="tm_VowelUu.alt2" horiz-adv-x="653" 
d="M362 612q73 0 130 -32.5t90 -90.5t33 -132q0 -77 -38.5 -137.5t-105 -95t-152.5 -34.5h-57v40h57q72 0 126.5 29.5t85 80.5t30.5 117q0 62 -25.5 109t-70 74t-103.5 27q-50 0 -90 -14t-69 -40h50q51 0 89.5 -20t60 -55.5t21.5 -81.5t-21 -82t-58 -56.5t-85 -20.5
q-49 0 -87.5 21.5t-60.5 59.5t-22 86q0 31 6.5 58t18.5 51h-391v40h416q36 46 93.5 72.5t128.5 26.5zM373 356q0 52 -33 84.5t-87 32.5h-84q-15 -22 -22.5 -50t-7.5 -59q0 -54 34.5 -90t86.5 -36q49 0 81 33.5t32 84.5z" />
    <glyph glyph-name="tm_RU" horiz-adv-x="1054" 
d="M831 349q54 0 91 -28.5t55.5 -78.5t18.5 -115q0 -82 -30.5 -151t-88.5 -120t-141 -79t-189 -28q-109 0 -196 31t-148 87t-93 132t-32 167q0 64 18.5 132t50.5 127.5t73 97.5l51 -10q-40 -32 -72 -89t-50 -125t-18 -135q0 -107 49.5 -190.5t143 -131t223.5 -47.5
q126 0 214 43t135 118t47 172q0 51 -12.5 90.5t-37.5 62.5t-64 23q-54 0 -89 -38.5t-35 -98.5v-167h-49v473h-231v-473h-50v513h523l5 -40h-198v-184q22 28 54 44t72 16z" />
    <glyph glyph-name="tm_TtI" horiz-adv-x="810" 
d="M796 40h-649v478l-49 -5v-513h702zM479 531q-59 0 -101 -32t-64 -88.5t-22 -128.5q1 -81 29.5 -144.5t82 -99.5t128.5 -36v38q-57 0 -99 31t-65 86t-23 125q0 59 15 105t45.5 72.5t73.5 26.5q65 0 94 -48.5t29 -124.5v-556h49v556q0 63 -19 112.5t-57 77.5t-96 28z" />
    <glyph glyph-name="tm_TtIi" horiz-adv-x="769" 
d="M755 40h-608v478l-49 -5v-513h661zM495 405q-62 0 -109.5 -26.5t-75 -73t-27.5 -106.5q0 -57 24 -101.5t66 -70t96 -25.5v38q-39 0 -69 20.5t-47 56.5t-17 82q0 47 20.5 82.5t56.5 56.5t82 21q50 0 86.5 -20t56 -54.5t19.5 -77.5q0 -24 -15 -39t-39 -15t-38.5 15
t-14.5 39q0 22 14.5 37t38.5 15t39 -15t15 -37l39 -1q0 41 -27 67t-69 26q-29 0 -51.5 -12.5t-35 -33.5t-11.5 -49q2 -38 30 -63.5t71 -25.5q42 0 69.5 29t27.5 74q0 49 -26.5 91.5t-73 69t-105.5 26.5z" />
    <glyph glyph-name="tm_NyU" horiz-adv-x="1199" 
d="M111 237q0 -56 20.5 -101t61.5 -74q-11 16 -17 36t-6 42q0 46 21 81.5t58 56t84 20.5q49 0 86.5 -20.5t59.5 -56t22 -82.5q0 -46 -22 -81.5t-59.5 -55.5t-86.5 -20q-86 0 -148 33t-94.5 90.5t-32.5 131.5q0 82 35.5 144t107.5 97t179 35h430l5 -40h-198v-184
q21 28 53.5 44t72.5 16q54 0 90.5 -28.5t55.5 -78.5t19 -115q0 -61 -15 -115.5t-44 -102.5h202v604h50v-643h-279q-70 -92 -190.5 -145.5t-277.5 -53.5q-84 0 -142 16.5t-88 48t-30 75.5q0 45 34 71.5t95 26.5h563q33 47 51 102.5t18 116.5q0 51 -12 90.5t-37.5 62.5
t-65.5 23q-54 0 -88.5 -38.5t-34.5 -98.5v-167h-50v473h-178q-94 0 -156 -30t-92 -83t-30 -123zM216 140q0 -51 33 -84.5t84 -33.5q52 0 85 33t33 84t-33 84.5t-85 33.5q-51 0 -84 -33t-33 -84zM354 -283q128 0 231 41t169 112h-531q-37 0 -56.5 -16.5t-19.5 -42.5
q0 -31 25.5 -51.5t72.5 -31.5t109 -11z" />
    <glyph glyph-name="tm_CUu" horiz-adv-x="1217" 
d="M728 205q0 -71 -27.5 -121t-77.5 -76t-116 -26q-56 0 -99 20t-66.5 55t-23.5 79q0 66 48 110t134 44h533l5 -40h-537q-63 0 -96.5 -32.5t-33.5 -82.5q0 -47 37 -77.5t99 -30.5q52 0 90.5 20.5t60 60.5t21.5 97v268h-193v-210h-49v250h460l5 -40h-174v-268zM1020 183
q40 0 71.5 -21t49.5 -58.5t18 -84.5q0 -59 -33.5 -108.5t-98.5 -85.5t-159.5 -56t-216.5 -20q-137 0 -243 31.5t-180 88t-112 133.5t-38 168q0 65 18.5 131.5t50.5 125t73 96.5l51 -10q-40 -32 -72 -88t-50 -122.5t-18 -134.5q0 -108 61 -192.5t177 -132.5t282 -48
q148 0 249.5 29.5t154 80.5t52.5 116q0 51 -25 84.5t-64 33.5q-44 0 -73 -31.5t-29 -80.5v-27h-50v268l50 3v-138q18 23 44.5 36.5t59.5 13.5z" />
    <glyph glyph-name="tm_NnU" horiz-adv-x="1867" 
d="M1468 241q0 116 -49 180.5t-149 64.5q-59 0 -109.5 -24t-87.5 -67t-57.5 -100t-20.5 -124q0 -62 27.5 -103t74.5 -41q48 0 75.5 41t27.5 103q0 66 -21.5 123t-60.5 100t-93 67.5t-118 24.5q-92 0 -158 -42.5t-101 -114t-35 -158.5q0 -62 27.5 -103t75.5 -41t74 41t26 103
q0 68 -27 125.5t-76.5 100t-117 66t-148.5 23.5q-104 0 -179 -33t-116 -91.5t-41 -133.5q0 -59 27 -106t77 -73.5t118 -26.5q52 0 85 33t33 84t-33 84.5t-85 33.5q-51 0 -84 -33t-33 -84t33 -84.5t84 -33.5v-29q-47 0 -84 19t-58 52t-21 76q0 46 21 81.5t58 56t84 20.5
q49 0 86.5 -20.5t59.5 -56t22 -82.5q0 -46 -22 -81.5t-59.5 -55.5t-86.5 -20q-84 0 -145.5 32t-95.5 88t-34 126q0 88 48 156t135.5 107.5t205.5 39.5q90 0 167 -27.5t134.5 -76.5t89.5 -114.5t32 -141.5q0 -55 -18.5 -97.5t-53 -67t-82.5 -24.5q-47 0 -82.5 24.5t-54.5 67
t-19 97.5q0 73 24.5 138t70.5 115t109.5 78.5t142.5 28.5q76 0 139.5 -27.5t109.5 -77t71.5 -115t25.5 -140.5q0 -55 -19.5 -97.5t-54 -67t-82.5 -24.5q-47 0 -82 24.5t-54.5 67t-19.5 97.5q0 74 25.5 139t70 115t104.5 78t129 28q122 0 186 -77.5t64 -214.5
q0 -131 -62.5 -236t-188.5 -179t-317 -113.5t-449 -39.5q-140 0 -231 18.5t-134.5 51.5t-43.5 75q0 39 31 66t99 27h1495v604h50v-643h-1545q-44 0 -60.5 -16t-16.5 -38q0 -29 42.5 -51.5t122.5 -35t191 -12.5q197 0 353 23.5t270.5 68t190.5 108t113.5 145t37.5 179.5z" />
    <glyph glyph-name="tm_MU" horiz-adv-x="1074" 
d="M425 518l-50 -5v-513h447q67 0 110.5 30t64 82t20.5 119q0 87 -24.5 155t-71 106.5t-111.5 38.5q-46 0 -82 -19.5t-56 -59t-20 -100.5v-345q0 -62 -26.5 -109.5t-79.5 -75t-133 -27.5q-69 0 -121.5 26t-88.5 72.5t-54 109.5t-18 134q0 55 9.5 110.5t26 106t38.5 92
t47 67.5l-50 10q-25 -30 -47.5 -74t-40 -96t-27 -106.5t-9.5 -107.5q0 -82 22 -152.5t64.5 -124t105.5 -83.5t143 -30q94 0 158 34t97 94t33 137v340q0 70 32 101t81 31q48 0 81 -33t50.5 -90.5t17.5 -131.5q0 -55 -14 -98.5t-45 -68t-82 -24.5h-397v478z" />
    <glyph glyph-name="tm_RUu" horiz-adv-x="1203" 
d="M854 473v-473h-49v473h-231v-473h-50v513h522l5 -40h-197zM634 -205q146 0 248 43t155.5 118t53.5 172q0 51 -12 90.5t-37.5 62.5t-64.5 23q-54 0 -88.5 -38.5t-34.5 -98.5h-40q0 51 20.5 92.5t57.5 65.5t87 24q54 0 91 -28.5t56 -78.5t19 -115q0 -82 -34.5 -151
t-100.5 -120t-160.5 -79t-215.5 -28q-128 0 -231 31.5t-176 88.5t-111 135.5t-38 173.5q0 72 19.5 136t55 112.5t83 76.5t104.5 28q33 0 58.5 -14.5t40 -39.5t14.5 -58q0 -31 -14.5 -55.5t-40 -38.5t-58.5 -14q-48 0 -79 30.5t-31 76.5q0 45 31 74t79 29v-35
q-29 0 -47.5 -18.5t-18.5 -48.5q0 -28 18.5 -47t47.5 -19t47 19t18 47q0 30 -18 48.5t-47 18.5q-47 0 -85 -24t-66.5 -66.5t-43 -98t-14.5 -119.5q0 -85 34.5 -155.5t100 -121.5t158.5 -78.5t210 -27.5z" />
    <glyph glyph-name="tm_RrU" horiz-adv-x="1020" 
d="M923 513v-643h-271q-52 -93 -139.5 -146t-211.5 -53q-57 0 -103.5 15t-73.5 44.5t-27 73.5q0 49 35 77t105 28h377q32 65 47.5 147t15.5 175q0 74 -15 131.5t-47 90.5t-83 33q-31 0 -58 -15.5t-43.5 -47t-16.5 -79.5v-344h-49v317q0 50 -13 87.5t-39.5 59.5t-66.5 22
q-51 0 -80 -36t-29 -117v-333h-49v333q0 67 19 110.5t54 65.5t82 22q50 0 86.5 -26.5t55.5 -71.5q21 47 59.5 72.5t84.5 25.5q69 0 113.5 -38.5t66 -106.5t21.5 -155q0 -92 -15 -173.5t-44 -148.5h201v604h51zM301 -283q101 0 173 40.5t118 112.5h-351q-47 0 -69 -18.5
t-22 -47.5q0 -32 20.5 -51t55 -27.5t75.5 -8.5z" />
    <glyph glyph-name="tm_TtUu" horiz-adv-x="828" 
d="M393 513h49v-221q23 27 54.5 42t69.5 15q43 0 74.5 -20t52 -55t31 -79.5t10.5 -93.5q0 -76 -21 -140.5t-61.5 -112t-100 -73.5t-135.5 -26q-81 0 -144 35t-106.5 101t-65.5 159.5t-22 212.5q0 107 25 203t74 169.5t121.5 116t167.5 42.5q66 0 121.5 -20.5t96.5 -58
t64 -87.5t23 -110q0 -45 -25.5 -74.5t-70.5 -29.5q-42 0 -70.5 25.5t-29.5 63.5q-1 41 26.5 68t71.5 27q42 0 69 -26t27 -67l-40 1q0 23 -14.5 38t-39.5 15q-22 0 -37.5 -15t-15.5 -38t15.5 -38t37.5 -15q25 0 39.5 15t14.5 38q0 52 -19 96.5t-54 77t-83 50.5t-107 18
q-84 0 -146.5 -38.5t-104.5 -106.5t-63 -155.5t-21 -186.5q0 -109 18.5 -194t54.5 -144.5t89 -90.5t123 -31q87 0 146 39.5t89 109t30 159.5q0 51 -12 96.5t-37.5 74.5t-67.5 29q-55 0 -88.5 -38t-33.5 -98v-167h-49v513z" />
    <glyph glyph-name="tm_NgUu" horiz-adv-x="1152" 
d="M979 72q51 0 87 -22.5t56 -61.5t20 -88q0 -85 -47 -140t-129.5 -81.5t-186.5 -26.5h-502q-63 0 -112 12.5t-77 38.5t-28 66q0 47 34.5 78.5t89.5 31.5h522v-40h-522q-33 0 -52 -20t-19 -50q0 -40 46 -58.5t118 -18.5h502q90 0 160 22t110 68t40 119q0 53 -30 89.5
t-83 36.5t-87.5 -38.5t-34.5 -98.5v-81h-50v294h50v-91q21 28 53 44t72 16zM391 473v-327h-49v327h-195v-473h-49v513h486l4 -40h-197zM853 513v-513h-511v40h462v473h49zM626 196q0 53 -28 88.5t-82 35.5q-55 0 -90 -39t-35 -98h-40q0 53 21.5 94t60 64.5t86.5 23.5
q51 0 86.5 -22.5t54.5 -60.5t19 -87q0 -57 -26 -100t-74 -66.5t-114 -23.5v35q49 0 85 20t56 55.5t20 80.5z" />
    <glyph glyph-name="tm_VowelU.alt1" horiz-adv-x="0" 
d="M-98 -187l-49 -10v227l49 1v-218z" />
    <glyph glyph-name="tm_VowelI.alt3" horiz-adv-x="242" 
d="M-180 797q104 0 177 -38t111.5 -104t38.5 -152v-503h-49v503q0 73 -32 129t-94 88t-152 32q-83 0 -128.5 -34.5t-45.5 -90.5q0 -51 38 -82.5t110 -31.5v-33q-62 0 -107.5 18.5t-69.5 51.5t-25 77q0 50 28 88t79 60t121 22z" />
    <glyph glyph-name="tm_KSsa" horiz-adv-x="1495" 
d="M1041 531q50 0 84.5 -20.5t52.5 -57t18 -84.5v-612h-49v607q0 56 -27 89t-79 33q-50 0 -78.5 -31.5t-28.5 -80.5q0 -53 39 -89t108 -36q58 0 109 30.5t93 81.5t70 112l40 -13q-27 -70 -73.5 -128.5t-107.5 -93t-131 -34.5q-61 0 -106 22.5t-69 61t-25 86.5q0 46 20 81.5
t56 55.5t84 20zM837 145q0 56 -28.5 89.5t-78.5 33.5q-43 0 -76.5 -20.5t-53 -57.5t-19.5 -86q0 -33 17 -54.5t44 -21.5q25 0 40.5 21.5t15.5 54.5q0 42 -18 75t-49 52t-71 19h-329q-63 0 -96.5 -32.5t-33.5 -82.5q0 -47 36.5 -77.5t98.5 -30.5q52 0 90.5 20.5t60 60.5
t21.5 97v268h-192v-210h-50v250h461l5 -40h-174v-268q0 -71 -27.5 -121t-77.5 -76t-117 -26q-56 0 -98.5 20t-66 55t-23.5 79q0 66 47.5 110t133.5 44h330q58 0 101 -25.5t67.5 -67.5t24.5 -93q0 -34 -14 -62t-38.5 -44t-57.5 -16t-58.5 16t-40 44t-14.5 62q0 45 15 83.5
t42.5 66.5t64 43.5t79.5 15.5q49 0 84.5 -22t55.5 -59.5t20 -86.5q0 -31 -4.5 -56t-13.5 -49h481v433h49v-473h-600q17 33 26 73.5t9 71.5z" />
    <glyph glyph-name="tm_LU" horiz-adv-x="1229" 
d="M1131 513v-643h-908q-41 0 -61.5 -17t-20.5 -47q0 -42 55 -65.5t152 -23.5q89 0 161.5 21.5t125 60.5t80.5 93t28 120h52q0 -77 -33 -139.5t-93 -107.5t-142 -69.5t-179 -24.5q-82 0 -140.5 17t-89 47.5t-30.5 70.5q0 49 35.5 76t99.5 27h859v604h49zM813 513l49 14
q30 -49 48.5 -101.5t27.5 -102t9 -88.5q0 -77 -19.5 -134t-59.5 -88t-100 -31q-55 0 -94 25t-60 76t-21 127v47q0 71 -28.5 122.5t-80.5 79t-122 27.5q-78 0 -134.5 -32t-86.5 -88t-30 -128q0 -62 26 -111t75.5 -77t120.5 -28q52 0 85 33t33 84t-33 84.5t-85 33.5
q-51 0 -84 -33t-33 -84t33 -84.5t84 -33.5v-29q-47 0 -84 19t-58 52t-21 76q0 46 21 81.5t58 56t84 20.5q49 0 86.5 -20.5t59.5 -56t22 -82.5q0 -46 -22 -81.5t-59.5 -55.5t-86.5 -20q-86 0 -148 33.5t-94.5 91.5t-32.5 131q0 86 37 152t105 103.5t162 37.5q84 0 147 -33.5
t98.5 -94.5t35.5 -146v-47q0 -94 32.5 -138.5t92.5 -44.5q65 0 96 56t31 150q0 38 -8.5 88t-26.5 101t-47 91z" />
    <glyph glyph-name="tm_TU" horiz-adv-x="982" 
d="M884 513v-643h-706q-41 0 -59 -16.5t-18 -42.5q0 -42 48 -67t137 -25q88 0 154 23t110 65.5t66 100t22 126.5q0 63 -18.5 111.5t-55 76.5t-88.5 28h-245q-63 0 -96.5 -32.5t-33.5 -82.5q0 -47 36.5 -77.5t98.5 -30.5q52 0 90.5 20.5t60 60.5t21.5 97v268h-192v-210h-50
v250h461l5 -40h-174v-268q0 -71 -27.5 -121t-77.5 -76t-117 -26q-56 0 -98.5 20t-66 55t-23.5 79q0 66 47.5 110t133.5 44h246q68 0 116.5 -33t74 -91t25.5 -132q0 -115 -50.5 -196t-141 -124t-213.5 -43q-76 0 -129 17.5t-81 49t-28 73.5q0 43 33 70.5t97 27.5h657v604h49z
" />
    <glyph glyph-name="tm_VowelUu.alt3" horiz-adv-x="653" 
d="M362 612q73 0 130 -32.5t90 -90.5t33 -132q0 -77 -38.5 -137.5t-105 -95t-152.5 -34.5h-57v40h57q72 0 126.5 29.5t85 80.5t30.5 117q0 62 -25.5 109t-70 74t-103.5 27q-50 0 -90 -14t-69 -40h50q51 0 89.5 -20t60 -55.5t21.5 -81.5t-21 -82t-58 -56.5t-85 -20.5
q-49 0 -87.5 21.5t-60.5 59.5t-22 86q0 31 6.5 58t18.5 51h-300v40h325q36 46 93.5 72.5t128.5 26.5zM373 356q0 52 -33 84.5t-87 32.5h-84q-15 -22 -22.5 -50t-7.5 -59q0 -54 34.5 -90t86.5 -36q49 0 81 33.5t32 84.5z" />
    <glyph glyph-name="tm_VowelU.alt3" horiz-adv-x="464" 
d="M258 473h-443v40h443q49 0 86.5 -20t59.5 -55.5t22 -81.5t-22 -82t-59.5 -56.5t-86.5 -20.5t-87 20.5t-59.5 56.5t-21.5 81t21 80.5t59 55.5t88 20v-38q-52 0 -85.5 -33.5t-33.5 -84.5t33.5 -84t85.5 -33q50 0 82.5 33.5t32.5 84.5q0 52 -32.5 84.5t-82.5 32.5z" />
    <glyph glyph-name="tm_NnnU" horiz-adv-x="1485" 
d="M1086 241q0 116 -49 180.5t-148 64.5q-60 0 -110.5 -24t-87.5 -67t-57.5 -100t-20.5 -124q0 -62 27.5 -103t75.5 -41t74 41t26 103q0 68 -27 125.5t-76.5 100t-117 66t-148.5 23.5q-104 0 -179 -33t-116 -91.5t-41 -133.5q0 -59 27 -106t77 -73.5t118 -26.5q52 0 85 33
t33 84t-33 84.5t-85 33.5q-51 0 -84 -33t-33 -84t33 -84.5t84 -33.5v-29q-47 0 -84 19t-58 52t-21 76q0 46 21 81.5t58 56t84 20.5q49 0 86.5 -20.5t59.5 -56t22 -82.5q0 -46 -22 -81.5t-59.5 -55.5t-86.5 -20q-84 0 -145.5 32t-95.5 88t-34 126q0 88 48 156t135.5 107.5
t205.5 39.5q90 0 167 -27.5t134.5 -76.5t89.5 -114.5t32 -141.5q0 -55 -18.5 -97.5t-53 -67t-82.5 -24.5q-47 0 -82.5 24.5t-54.5 67t-19 97.5q0 74 25 139t69.5 115t104.5 78t130 28q121 0 185 -77.5t64 -214.5q0 -125 -46.5 -229t-138.5 -180t-228.5 -117.5t-316.5 -41.5
q-108 0 -177.5 18t-103 50t-33.5 72q0 43 33 70.5t102 27.5h1109v604h49v-643h-1158q-46 0 -64 -16.5t-18 -42.5q0 -41 64.5 -67.5t196.5 -26.5q169 0 296 38.5t212 108t127.5 165.5t42.5 212z" />
    <glyph glyph-name="tm_YUu" horiz-adv-x="1096" 
d="M925 72q50 0 86.5 -22.5t55.5 -61.5t19 -88q0 -85 -46.5 -140t-128.5 -81.5t-187 -26.5h-447q-63 0 -112 12.5t-77 38.5t-28 66q0 47 34.5 78.5t89.5 31.5h468v-40h-468q-33 0 -52 -20t-19 -50q0 -40 46 -58.5t118 -18.5h447q90 0 160 22t109.5 68t39.5 119
q0 53 -29 89.5t-82 36.5q-54 0 -88.5 -38.5t-34.5 -98.5v-81h-50v294h50v-91q21 28 53.5 44t72.5 16zM799 513v-513h-417v513h50v-473h317v473h50zM88 513l49 5v-338q0 -85 32.5 -119t84.5 -34q64 0 96 48t32 121h37q0 -61 -19.5 -109.5t-56 -76.5t-89.5 -28q-49 0 -86 20.5
t-58.5 64t-21.5 113.5v333z" />
    <glyph glyph-name="tm_PUu" horiz-adv-x="906" 
d="M734 72q51 0 87.5 -22.5t55.5 -61.5t19 -88q0 -85 -47 -140t-128.5 -81.5t-186.5 -26.5h-257q-63 0 -112 12.5t-77 38.5t-28 66q0 47 34.5 78.5t89.5 31.5h278v-40h-278q-33 0 -52 -20t-19 -50q0 -40 46 -58.5t118 -18.5h257q90 0 160 22t110 68t40 119q0 53 -29.5 89.5
t-82.5 36.5q-54 0 -88.5 -38.5t-34.5 -98.5v-81h-50v294h50v-91q21 28 53 44t72 16zM609 513v-513h-511v513l49 5v-478h412v473h50z" />
    </font>
</defs>
</svg>
