<?xml version="1.0" ?><svg height="581" id="svg2" version="1.0" width="581" xmlns="http://www.w3.org/2000/svg" xmlns:cc="http://web.resource.org/cc/" xmlns:dc="http://purl.org/dc/elements/1.1/" xmlns:inkscape="http://www.inkscape.org/namespaces/inkscape" xmlns:rdf="http://www.w3.org/1999/02/22-rdf-syntax-ns#" xmlns:sodipodi="http://inkscape.sourceforge.net/DTD/sodipodi-0.dtd" xmlns:svg="http://www.w3.org/2000/svg"><defs id="defs5"/><g id="g2189" transform="translate(-108.6301,-17.01933)"><path d="M 204.23206,298.99034 L 204.23206,73.75045 L 407.19778,73.75045 L 610.16349,73.75045 L 610.16349,298.99034 L 610.16349,524.23023 L 407.19778,524.23023 L 204.23206,524.23023 L 204.23206,298.99034 z " id="path1312" style="fill:#ffffff;fill-opacity:1"/><path d="M 152.8081,594.8144 C 133.08748,589.64792 121.31673,577.8635 115.87317,557.83656 C 114.20714,551.70722 114.10639,537.679 114.10639,311.83656 C 114.10639,85.540296 114.20444,71.954205 115.88499,65.40117 C 120.13213,48.840083 129.26291,36.936163 142.60639,30.564126 C 157.69534,23.35855 139.36397,23.836556 400.60638,23.836556 C 661.09318,23.836556 643.59635,23.394461 658.14136,30.343725 C 670.6046,36.298371 679.35393,47.661906 684.31407,64.336556 C 686.00182,70.010309 686.11355,83.22134 686.3689,307.30063 C 686.66882,570.48309 687.03909,554.95385 680.11435,569.61689 C 673.81255,582.96086 661.79654,591.99347 645.8521,595.37232 C 640.10821,596.58953 603.53733,596.79623 399.60638,596.76413 C 167.05589,596.72753 159.89461,596.67096 152.8081,594.8144 z M 446.36003,380.08656 C 446.56133,274.33578 446.87147,246.83656 447.86285,246.83656 C 448.54989,246.83656 479.03448,276.76156 515.60638,313.33656 C 552.17828,349.91156 582.43951,379.83656 582.85356,379.83656 C 583.26761,379.83656 583.60638,353.39999 583.60638,321.08863 L 583.60638,262.3407 L 493.85846,172.58863 C 444.49711,123.22499 403.65866,82.836556 403.10636,82.836556 C 401.29341,82.836556 224.73111,260.24559 223.65185,263.15166 C 222.14156,267.21835 222.20934,378.47314 223.72268,379.40844 C 224.38436,379.81738 251.77299,353.16661 290.97548,313.96745 C 327.35055,277.59546 357.44822,247.83656 357.85918,247.83656 C 358.27014,247.83656 358.60638,306.81614 358.60638,378.9023 C 358.60638,467.80147 358.94126,510.59378 359.64729,511.91301 C 360.65686,513.7994 361.97443,513.85012 403.39729,513.59727 L 446.10638,513.33656 L 446.36003,380.08656 z " id="path1310" style="fill:#000000"/></g></svg>