<?xml version="1.0" ?><svg data-name="Layer 2" id="Layer_2" viewBox="0 0 50 50" xmlns="http://www.w3.org/2000/svg"><defs><style>.cls-1{fill:#010101;}</style></defs><title/><path class="cls-1" d="M46,12H37.8C40,10.2,41,8,41,6.3S39.4,2,36,2c-4.9,0-8.9,4.7-11,8-2.2-3.3-6.1-8-11-8C10.6,2,9,4.1,9,6.3s1,3.9,3.2,5.7H4a2,2,0,0,0-2,2v8a2,2,0,0,0,2,2H6V46a2,2,0,0,0,2,2H42a2,2,0,0,0,2-2V24h2a2,2,0,0,0,2-2V14A2,2,0,0,0,46,12ZM36,6c0.2,0,1,0,1,.3s-2.4,4.2-8.2,5.3C30.6,9,33.4,6,36,6ZM14,6c2.7,0,5.4,3,7.3,5.6-5.8-1.1-8.2-4-8.2-5.3S13.7,6,14,6ZM6,16H23v4H6V16Zm4,8H23V44H10V24ZM40,44H27V24H40V44Zm4-24H27V16H44v4Z"/></svg>